<?xml version="1.0" standalone="no"?>
<!DOCTYPE svg PUBLIC "-//W3C//DTD SVG 1.1//EN" "http://www.w3.org/Graphics/SVG/1.1/DTD/svg11.dtd" >
<svg>
<metadata>
Created by FontForge 20090622 at Sat Feb 23 10:50:58 2019
 By ffonts
Copyright (c) 2011-2012, Sorkin Type Co (www.sorkintype.com) with Reserved Font Name 'Autour'
</metadata>
<defs>
<font id="AutourOne-Regular" horiz-adv-x="0" >
  <font-face 
    font-family="Autour One"
    font-weight="400"
    font-stretch="normal"
    units-per-em="2048"
    panose-1="2 0 5 3 0 0 0 2 0 4"
    ascent="1638"
    descent="-410"
    x-height="1217"
    cap-height="1574"
    bbox="-168 -550 3314 2012"
    underline-thickness="189"
    underline-position="-65"
    unicode-range="U+0001-U+FB04"
  />
<missing-glyph 
 />
    <glyph glyph-name=".notdef" 
 />
    <glyph glyph-name=".null" 
 />
    <glyph glyph-name=".null" 
 />
    <glyph glyph-name="nonmarkingreturn" unicode="&#xd;" 
 />
    <glyph glyph-name="space" unicode=" " horiz-adv-x="769" 
 />
    <glyph glyph-name="I" unicode="I" horiz-adv-x="794" 
d="M273 80q0 51 7.5 100.5t7.5 105.5q0 255 -4.5 513t-4.5 530q0 28 -6 56.5t-6 61.5q0 26 7 49t24 40.5t47 27.5t75 10t71 -34t26 -91q0 -17 -3 -33.5l-6 -34.5q-2 -86 -3 -185t-1 -227q0 -114 1 -233t3 -229t5.5 -205.5t8.5 -164.5v1q2 -15 3.5 -28.5t1.5 -27.5
q0 -24 -5.5 -44.5t-18.5 -35.5t-36 -23t-57 -8q-40 0 -66.5 7t-42 21t-22 34.5t-6.5 46.5z" />
    <glyph glyph-name="H" unicode="H" horiz-adv-x="1576" 
d="M219 74q0 51 3.5 101t3.5 107v36.5t-0.5 61t-1.5 109t-2.5 181.5t-3.5 278.5l-5 399.5q0 28 -7.5 56.5t-7.5 60.5q0 26 6.5 46t24 34t46.5 21.5t74 7.5q23 0 40 -9.5t28.5 -25t17 -34.5t5.5 -38q0 -45 -3 -91.5t-3 -105.5v-221l200 -6t200 -3q72 0 144 5.5t151 7.5
q0 19 0.5 42.5t0.5 57.5v81v114q0 29 -6 58t-6 59q0 26 6.5 46t24 34t47 21.5t74.5 7.5q24 0 41 -11t27.5 -27.5t15 -35t4.5 -33.5q0 -76 -4.5 -152.5t-6.5 -161.5v-138t0.5 -142t0.5 -152v-166q0 -101 2.5 -170.5t6 -117t7.5 -76.5l7 -49q3 -17 5 -33t2 -34q0 -23 -5.5 -42
t-19 -32.5t-36.5 -21.5t-58 -8q-40 0 -66 6.5t-41.5 20t-22 32.5t-6.5 45q0 52 7.5 103t7.5 105q0 131 -4.5 265t-5.5 288q-71 1 -163 0.5t-187.5 -2t-185 -4t-156.5 -3.5q2 -161 5 -270.5t6 -182t6.5 -116t6.5 -71.5q3 -27 4.5 -52t1.5 -61q0 -23 -5 -41.5t-18.5 -32.5
t-36 -21.5t-58.5 -7.5q-40 0 -65 6.5t-39.5 19.5t-19.5 32t-5 45z" />
    <glyph glyph-name="E" unicode="E" horiz-adv-x="1321" 
d="M198 113q0 17 4.5 36t9.5 35l9 32l-23 1196q0 49 11.5 76t29.5 40t41.5 15t47.5 2h527q18 2 40.5 5.5t31.5 3.5q38 0 61.5 -7t37 -20.5t18 -33.5t4.5 -47q0 -38 -9.5 -61t-26 -35.5t-38.5 -16.5t-47 -4q-11 0 -29 0.5t-38 2.5h-156.5t-95 -0.5t-54 -0.5h-32.5h-93v-317
q6 0 14.5 -0.5t26.5 -0.5h49.5h84.5h131h189q11 0 25 1t28 3q18 2 42 4t52 2q27 0 48 -11t35.5 -27.5t22 -35.5t7.5 -36q0 -54 -35.5 -79t-91.5 -25l-628 -1v-599q99 0 199 -3t209 -3q30 0 55 3t48 7q21 3 42.5 5.5t47.5 2.5q30 0 55.5 -4.5t44.5 -16t30 -31t11 -49.5
q0 -44 -15 -68t-40.5 -35.5t-58 -14t-67.5 -2.5h-673q-26 0 -47.5 6t-37.5 19.5t-25 35t-9 52.5z" />
    <glyph glyph-name="Q" unicode="Q" horiz-adv-x="1742" 
d="M144 773q0 178 50.5 325t143 253t223 164.5t289.5 58.5q168 0 296.5 -58.5t216 -164.5t132.5 -253t45 -325q0 -152 -39 -284.5t-114 -238.5q26 -26 52.5 -43.5t51.5 -16.5q12 0 24 4.5t25 10t27 10t31 4.5q18 0 36 -6.5t32 -20t23 -33t9 -46.5q0 -36 -15.5 -62.5
t-41.5 -44.5t-61.5 -26.5t-74.5 -8.5q-37 0 -71 10.5t-65.5 29t-60.5 43.5t-56 53q-84 -65 -186.5 -100.5t-223.5 -35.5q-106 0 -199 28t-170.5 80t-138.5 124.5t-103.5 161.5t-64.5 192t-22 216zM372 773q0 -75 14 -148.5t41.5 -140t68 -123t93 -98t117 -65t139.5 -23.5
q81 0 148 24.5t120 69.5q-23 27 -46 50t-45.5 40t-45.5 27t-47 10q-8 0 -20 -1.5t-26 -1.5t-38 3.5t-47.5 15t-40.5 32.5t-17 57q0 34 12.5 55.5t33 34t45.5 17.5t50 5q57 0 103 -12t87 -35.5t80.5 -58t83.5 -78.5q38 76 57 164t19 180q0 120 -28 227.5t-85.5 189.5
t-145 130t-207.5 48q-113 0 -201 -43t-148.5 -121t-92 -187.5t-31.5 -243.5z" />
    <glyph glyph-name="O" unicode="O" horiz-adv-x="1684" 
d="M144 773q0 178 50.5 325t143 253t223 164.5t289.5 58.5q168 0 296.5 -58.5t216 -164.5t132.5 -253t45 -325q0 -169 -49 -315.5t-140 -254.5t-220 -170t-289 -62q-106 0 -199 28t-170.5 80t-138.5 124.5t-103.5 161.5t-64.5 192t-22 216zM372 773q0 -75 14 -148.5
t41.5 -140t68 -123t93 -98t117 -65t139.5 -23.5q79 0 144 23.5t117 65t90.5 98t64 123t38 140t12.5 148.5q0 120 -28 227.5t-85.5 189.5t-145 130t-207.5 48q-113 0 -201 -43t-148.5 -121t-92 -187.5t-31.5 -243.5z" />
    <glyph glyph-name="N" unicode="N" horiz-adv-x="1724" 
d="M203 64q0 42 6 71t7 27q2 109 3.5 221t1.5 237v171.5t-1.5 187t-4.5 186t-8 169.5q-4 23 -6 41.5t-2 39.5q0 49 21 77.5t68 39.5q20 17 44.5 23.5t47.5 6.5q24 0 43.5 -14t34.5 -33t25 -39.5t14 -33.5q31 -46 74.5 -105l95 -126.5l109.5 -141l117.5 -148.5l118.5 -149.5
l112 -143.5l99 -130.5t79 -110.5q0 214 -1.5 368.5t-3.5 263t-5 178.5l-5 116t-3.5 75.5t-1.5 56.5q0 40 8.5 65.5t24 39.5t38.5 19t53 5q39 0 61 -16t33.5 -40.5t14 -55t2.5 -59.5v-1147q0 -36 4 -72.5t4 -77.5q0 -39 -6 -64.5t-19.5 -41.5t-35 -22.5t-51.5 -6.5
q-56 0 -89.5 28t-47.5 68l-192.5 256.5l-196.5 253l-199 255l-199 261.5l-60 94q1 -153 2 -272.5t2 -213t2 -165t1.5 -128t1 -103t0.5 -90.5q1 -26 3.5 -55.5t2.5 -57.5q0 -26 -4.5 -50t-17.5 -42t-36.5 -28.5t-61.5 -10.5q-51 0 -86 25t-35 68z" />
    <glyph glyph-name="S" unicode="S" horiz-adv-x="1354" 
d="M154 359q5 81 33.5 123.5t100.5 42.5q45 0 77 -25.5t32 -70.5q0 -26 -5 -52t-3 -54q4 -34 30 -62t66 -48.5t91 -32t104 -11.5q54 0 107.5 9.5t97 35.5t70.5 71t27 117q0 47 -23 88.5t-59 76t-79.5 62.5t-83.5 49l-116.5 56.5t-116 58t-107 67t-88.5 85.5t-60 113.5
t-22 149.5q0 95 40.5 164t106.5 114t151.5 66.5t175.5 21.5q80 0 155 -14t134 -45.5t98 -84t47 -128.5q2 -28 -7 -49.5t-25 -36t-36.5 -22t-41.5 -7.5q-32 0 -54 10t-36 25t-21 34t-9 37q-15 24 -39 39.5t-53.5 25t-61.5 13t-62 3.5q-42 0 -83.5 -9t-75.5 -29t-55 -51
t-21 -76q0 -53 25 -94t63 -73t84.5 -58t90.5 -48l110 -57.5t111.5 -66t103.5 -77.5t86 -93.5t58.5 -112.5t21.5 -135q0 -79 -22 -141t-60 -109t-89 -80t-110 -54t-122.5 -30.5t-126.5 -9.5q-53 0 -113.5 9t-119.5 28.5t-112.5 50t-94 74t-63.5 100t-21 127.5z" />
    <glyph glyph-name="P" unicode="P" horiz-adv-x="1412" 
d="M207 83q0 32 4.5 64.5t5.5 67.5l-4 1150q-6 14 -10.5 39t-4.5 47q0 20 7 40t20.5 35.5t33.5 25t46 9.5q44 0 88 -4.5t92 -4.5q38 0 76.5 4.5t81.5 4.5q141 0 263 -39t211 -114.5t140 -185.5t51 -251q0 -134 -34 -233.5t-92.5 -170.5t-137 -116.5t-169 -71.5t-187.5 -36
t-192 -10q-10 0 -17 -0.5t-13 -0.5t-12.5 0.5t-15.5 0.5v-55.5t0.5 -33.5t0.5 -22v-21q0 -32 6.5 -64t6.5 -68q0 -27 -12 -45.5t-30 -30t-39 -17t-39 -5.5q-24 0 -47 7.5t-40 22t-27.5 35t-10.5 47.5zM439 550l41.5 -2t40.5 -2t34 -1.5t23 -0.5q111 0 191.5 18t135.5 49
t89 72.5t52 90t24 101t6 104.5q0 83 -23.5 143.5t-61.5 101.5t-86.5 66t-99 38.5t-98.5 18t-84 4.5q-46 0 -92.5 -1.5t-99.5 -2.5q2 -131 3 -230.5t1.5 -176t1 -133.5t1 -102t1 -82t0.5 -73z" />
    <glyph glyph-name="T" unicode="T" horiz-adv-x="1138" 
d="M445 1320q-70 0 -145 -1t-164 -1q-24 0 -42 11t-30 28.5t-18 39.5t-6 44q0 59 33 81.5t107 22.5h798q20 0 41.5 -5t39 -18t29 -34t11.5 -54q0 -24 -8 -46t-21.5 -38t-32 -26t-39.5 -10q-16 0 -31 3t-32 3h-258l-3 -1128q0 -24 3.5 -47t3.5 -50q0 -22 -4 -44t-17 -40
t-37 -29.5t-63 -11.5q-46 0 -70 15.5t-34.5 39.5t-11.5 53t-1 56z" />
    <glyph glyph-name="U" unicode="U" horiz-adv-x="1527" 
d="M189 735q-1 159 0.5 319.5t1.5 336.5q0 42 4.5 76t16.5 58t32.5 36.5t52.5 12.5q73 0 103 -42.5t30 -115.5q0 -21 -1 -45t-2 -57l-2.5 -80t-2.5 -113t-2 -156t-1 -210q0 -72 4.5 -142.5t18 -134t38.5 -117.5t64.5 -93.5t97 -61.5t136.5 -22q91 0 154 37t102.5 108
t57 175.5t17.5 239.5q0 243 -4 411t-6 243q-1 15 -1 31v19q0 71 31.5 98.5t84.5 27.5q34 0 57.5 -10t37.5 -26t20 -36t6 -39q0 -33 -2.5 -67.5t-2.5 -71.5q0 -80 1 -148t3 -130q0 -72 2 -145.5t2 -158.5q0 -183 -34.5 -326.5t-105.5 -242.5t-178.5 -151t-252.5 -52
q-73 0 -144 13.5t-135 46.5t-118.5 89t-94.5 141t-63 202t-23 273z" />
    <glyph glyph-name="L" unicode="L" horiz-adv-x="1099" 
d="M198 111q0 29 8.5 57.5t8.5 60.5l-15 1194q1 76 26.5 112.5t87.5 36.5q34 0 57 -6t37 -21t19.5 -39t5.5 -60v-150q0 -62 -0.5 -147.5t-0.5 -182.5v-200.5v-202v-186.5t1 -154q117 0 197.5 0.5t132.5 2.5q28 2 56 6.5t60 4.5q66 0 100.5 -30t34.5 -88q0 -39 -15 -62.5
t-39.5 -36t-55 -16.5t-61.5 -4h-531q-25 0 -46 4.5t-36 16.5t-23.5 33.5t-8.5 56.5z" />
    <glyph glyph-name="F" unicode="F" horiz-adv-x="1317" 
d="M216 98q-2 40 1 81t4 86l-23 1151q0 67 23.5 102.5t66.5 35.5q39 0 61 -2t39 -4q10 -2 20 -2h21h552q84 0 118.5 -23t34.5 -74q0 -35 -9.5 -57t-28.5 -35t-47.5 -17.5t-66.5 -4.5l-551 1l6 -380q111 0 198.5 0.5t156 1.5t120 2.5t90.5 2.5q10 0 19 0.5t17 0.5
q17 1 34.5 1h28.5q27 0 48 -10.5t35.5 -27t22 -36t7.5 -36.5q0 -53 -36 -78.5t-91 -25.5l-650 -1v-503q0 -20 3.5 -39.5t8 -39t8.5 -39.5t4 -41q0 -26 -6 -47.5t-21.5 -37t-41.5 -24t-66 -8.5q-54 0 -82 30.5t-28 96.5z" />
    <glyph glyph-name="B" unicode="B" horiz-adv-x="1476" 
d="M200 75q-4 27 1.5 57.5t10.5 54.5q2 105 2.5 213.5t-0.5 236.5t-2 283t-1 353l-12 135q0 42 4 69t16.5 43t35 22t58.5 6q50 0 99 1.5t99 3.5q51 2 100.5 5.5t102.5 3.5q35 0 87.5 -2t110 -14.5t115 -38.5t103 -74t74 -121.5t28.5 -180.5q0 -92 -38 -169t-97 -134
q25 -10 48 -23t41.5 -26.5t32 -26t20.5 -20.5q43 -53 70.5 -119.5t27.5 -131.5q0 -112 -23.5 -192.5t-66.5 -136t-104 -89.5t-136.5 -52.5t-164 -24.5t-185.5 -6q-17 0 -48 2t-68 5.5t-76 8.5t-72 11q-25 -11 -68 -11q-54 0 -86.5 18.5t-38.5 60.5zM435 892q37 -5 75 -8.5
t68 -3.5q119 0 201 9t133 35.5t73.5 73.5t22.5 123q0 63 -17 107t-53.5 71.5t-93 40t-134.5 12.5q-29 0 -94.5 -0.5t-180.5 -5.5v-2q0 -2 0.5 -3.5t0.5 -3.5q2 -103 1.5 -209t-2.5 -223v-13zM435 209l49 -8t57.5 -7t75.5 -5t102 -2q68 0 138.5 8t128 35t94 78.5t36.5 137.5
q0 71 -27.5 119t-68 77.5t-87.5 42t-86 12.5q-35 0 -71.5 -1t-83.5 -2.5t-109.5 -3t-148.5 -2.5v-198t0.5 -130.5t0.5 -86.5v-64z" />
    <glyph glyph-name="J" unicode="J" horiz-adv-x="1471" 
d="M126 447q0 25 1 56.5t6 63.5t14.5 63t26 55t41 38.5t60.5 14.5q47 0 79.5 -26.5t32.5 -86.5q0 -24 -5.5 -46.5l-11.5 -45.5t-11.5 -46.5t-5.5 -48.5q0 -64 27.5 -111t73 -78.5t106 -47t126.5 -15.5q72 0 127.5 22.5t93.5 73.5t58 133.5t20 203.5v463q0 80 -2.5 131t-6 91
t-6 76.5t-2.5 86.5q0 29 9.5 49.5t26.5 33t39.5 18.5t48.5 6q66 0 89 -36.5t23 -104.5q0 -38 -0.5 -67.5t-1 -65.5t-1 -85.5t-0.5 -127.5l9 -512q0 -113 -24.5 -221t-84 -193.5t-160 -137.5t-252.5 -52q-55 0 -118.5 9t-126 30.5t-120 57t-101.5 88.5t-70.5 125t-26.5 166z
" />
    <glyph glyph-name="X" unicode="X" horiz-adv-x="1241" 
d="M49 108q0 25 14 47t37 50l236.5 358l161.5 259l-133.5 202.5l-169.5 247.5l-41.5 60t-34.5 53.5t-24 44t-9 33.5q0 23 9 43t24.5 34.5t35.5 23t43 8.5q26 0 46.5 -11.5t36.5 -31.5l35 -51l49 -75.5l57 -90.5l60 -96l75 -122.5l63 -101.5l62 101.5l66.5 110l71.5 121.5
l79 137q11 24 21.5 43t23.5 32.5t30.5 21t42.5 7.5t47 -8t38.5 -23t26 -36t9.5 -47q0 -25 -19 -60t-49 -69l-104 -158l-87 -132.5l-75 -115.5l-69 -106l61.5 -99l69.5 -110.5l72 -112.5l68.5 -106l59.5 -90.5l45 -65.5q13 -18 29 -35q20 -21 36 -42.5t16 -52.5q0 -26 -6 -49
t-22 -40.5t-43.5 -27.5t-69.5 -10q-9 0 -22 7t-27 20.5t-28.5 34.5t-26.5 48v1q-2 7 -26.5 49.5l-67.5 114.5l-103.5 170.5l-135.5 219.5l-50.5 -86.5l-57 -98.5l-60 -103.5l-58.5 -101l-53 -91.5l-44 -74q-26 -47 -48 -78.5t-47 -31.5t-51 8t-47.5 25t-35 43t-13.5 62z" />
    <glyph glyph-name="Z" unicode="Z" horiz-adv-x="1354" 
d="M132 122q0 14 7 31.5t18 36t24.5 36t27.5 31.5l173 271.5l131 209l102 166.5l87 143l85 139.5l96 155.5l-596 -12q-75 0 -109.5 28t-34.5 85t34 79.5t100 22.5h226.5h170.5h125.5t92 0.5t70 0.5t59.5 1q22 18 84 18q31 0 52 -10.5t33.5 -27t17.5 -37.5t5 -41
q0 -14 -9.5 -33.5t-22.5 -39.5t-26.5 -38.5l-20.5 -28.5l-347 -552l-346 -552l557 6q23 6 57.5 9t57.5 3q58 0 91 -25.5t33 -88.5q0 -27 -9 -47.5t-31.5 -34t-61 -20.5t-96.5 -7h-762q-42 0 -69.5 8.5t-44.5 24.5t-24 38.5t-7 50.5z" />
    <glyph glyph-name="one" unicode="1" horiz-adv-x="1021" 
d="M443 88q0 48 6.5 97t6.5 109v130v136t-0.5 150.5t-1 174.5t-1 208t-1.5 250q-24 -12 -50 -29.5t-53.5 -34t-56 -28t-56.5 -11.5q-51 0 -82 31t-31 80q0 69 80 109q49 25 96 52l85 50q60 37 106.5 59t82.5 22q29 0 50.5 -12t36 -31t21.5 -41.5t7 -44.5q0 -14 -4.5 -26.5
t-4.5 -26.5q-2 -85 -2.5 -199t-0.5 -236q0 -67 -1 -148t-1.5 -167t-0.5 -172t1.5 -162t5 -137.5t10.5 -98.5q2 -14 4 -26.5t2 -26.5q0 -22 -5 -41.5t-18.5 -34.5t-36.5 -23.5t-58 -8.5q-39 0 -65 7t-41.5 21t-22 34t-6.5 46z" />
    <glyph glyph-name="dollar" unicode="$" horiz-adv-x="1398" 
d="M225 325q0 45 2 91t15 83.5t40.5 61t77.5 23.5q46 0 77 -28t31 -75q0 -24 -3 -44.5t-7 -40.5q-4 -19 -7 -36t-3 -34q0 -44 25 -73.5t64 -48t87 -26.5t95 -8q53 0 104.5 11t92 36.5t65.5 68.5t25 106q0 65 -29.5 112.5t-75.5 83t-102.5 61.5t-109.5 47l-93.5 40t-92 48
t-83 62t-67.5 80t-45.5 103t-16.5 132q0 73 28.5 134t76 108t109.5 79t129 48v88q0 32 4 58.5t15.5 45.5t32.5 29.5t56 10.5q23 0 42.5 -4t33 -13.5t21 -26.5t7.5 -43v-64.5t-1 -72.5q58 -9 120 -30.5t113.5 -57t84.5 -86t33 -118.5q0 -27 -9 -48.5t-24 -35.5t-34.5 -21.5
t-40.5 -7.5q-20 0 -40.5 8t-37.5 21.5t-28.5 32.5t-13.5 42q-15 30 -39.5 48t-54.5 27.5t-63 12.5t-64 3q-33 0 -73.5 -10.5t-76 -32t-59 -54.5t-23.5 -77q0 -54 25.5 -95.5t67 -74.5t95.5 -60.5t111 -53.5q47 -21 96.5 -45.5t96 -54t87 -66t71 -82.5t48 -102.5t17.5 -126.5
q0 -95 -33.5 -169t-89.5 -127.5t-128.5 -87t-151.5 -46.5v-124q0 -32 -4 -59t-15.5 -46.5t-33 -30t-55.5 -10.5q-48 0 -77 18t-29 70v36.5v45.5t0.5 49.5t1.5 48.5q-76 11 -146.5 38.5t-124.5 72.5t-86.5 108t-32.5 145z" />
    <glyph glyph-name="Y" unicode="Y" horiz-adv-x="1226" 
d="M500 69q0 36 1 64.5t2.5 59t3 67.5t2 91t0 130t-2.5 184l-133 220.5l-111 177.5l-95.5 146.5l-86.5 126.5q-26 38 -43 68t-17 54q0 57 34.5 86t90.5 29q22 0 40.5 -13t34 -33.5t28.5 -46t23 -50.5q33 -66 71 -128l78.5 -122.5l82.5 -122l82 -125.5l32 -53l31 53
l193.5 304t121.5 208h-1q10 26 21 49.5t25 41t32 28t43 10.5q22 0 44 -4.5t39.5 -17.5t28.5 -35.5t11 -58.5q0 -18 -10 -49.5t-46 -65.5l-122 -189.5l-116.5 -182l-103.5 -166t-82 -141.5q-6 -58 -5.5 -129t4 -148.5t7.5 -157.5t4 -155q0 -20 -5.5 -39t-18.5 -33t-36 -22.5
t-57 -8.5q-27 0 -48.5 8t-37.5 21.5t-24.5 31.5t-8.5 38z" />
    <glyph glyph-name="V" unicode="V" horiz-adv-x="1344" 
d="M557 72l-80 218l-88 231l-88.5 226.5l-80.5 203.5l-66.5 166.5l-56 144.5l-41.5 112t-22 70q-7 27 -0.5 50t22 40.5t38 27t49.5 9.5q72 0 100 -64l41.5 -104l63 -161l77.5 -200.5l85.5 -221.5l85.5 -225.5l79 -211.5l78.5 206.5l77.5 205.5l73 195l64.5 175.5l53.5 147.5
t39 111q1 22 10 48t25.5 48.5t40.5 38t56 15.5q23 0 45 -9t39 -24.5t27.5 -37.5t10.5 -47q0 -21 -6 -42t-14.5 -40.5t-18 -36t-16.5 -27.5l-1 -2l-86 -203l-74 -184l-66.5 -173.5l-63.5 -171.5l-82.5 -220.5l-97.5 -252.5q2 -8 3 -17t1 -17q0 -31 -10.5 -50t-28 -30
t-40.5 -15t-47 -4q-29 0 -47.5 9t-30.5 24t-19 33t-13 36z" />
    <glyph glyph-name="C" unicode="C" horiz-adv-x="1495" 
d="M109 756q0 144 31.5 260.5t86.5 207.5t129 157t160 109t179.5 63.5t186.5 20.5q85 0 167 -15.5t162 -43.5l48.5 -17.5t44 -21.5t31.5 -33t12 -51q0 -36 -11.5 -59.5t-29.5 -37.5t-39.5 -20t-41.5 -6q-14 0 -30 4.5t-33 11.5t-33 16.5t-29 18.5q-36 15 -67.5 22.5
t-60.5 11t-57 4t-56 0.5q-63 0 -126 -14.5t-121.5 -45t-109.5 -76.5t-88.5 -109.5t-59 -144.5t-21.5 -181q0 -166 47.5 -280.5t124 -185.5t172.5 -102.5t194 -31.5q45 0 88.5 5.5t81 14t66.5 19t44 21.5q30 26 53 39.5t53 13.5q23 0 43.5 -5t35.5 -17.5t24 -32.5t9 -50
q0 -42 -28.5 -76.5t-91.5 -64.5v1q-21 -12 -61.5 -27t-91 -27.5t-106.5 -21t-110 -8.5q-123 0 -227.5 29.5t-190 82t-151.5 125.5t-111 160t-68 185.5t-23 202.5z" />
    <glyph glyph-name="G" unicode="G" horiz-adv-x="1681" 
d="M148 756q0 205 59 358t163 255t246 153t309 51q43 0 97 -1.5t110.5 -7.5t111.5 -17t102 -29q37 -14 62 -40t25 -75q0 -57 -28.5 -91.5t-66.5 -34.5q-8 0 -21 2t-22 7q-39 21 -94.5 34t-114.5 21t-115 11t-96 3q-55 0 -113 -13.5t-113.5 -42.5t-105 -74t-86.5 -107
t-59 -142.5t-22 -180.5q0 -117 27.5 -207t75.5 -156.5t113 -112t140.5 -73.5t157.5 -40t164 -12q36 0 81.5 1.5t90.5 9.5q0 98 -0.5 167t-1.5 123t-2.5 99t-3.5 96q0 36 -5 72.5t-5 78.5q0 15 6.5 32.5t21 33t38.5 26t60 10.5q59 0 91.5 -27.5t32.5 -74.5q0 -20 -1 -38.5
t-1 -39.5l-2.5 -77.5t-2.5 -116t-2 -171t-1 -240.5q-1 -57 -15 -89t-38 -47.5t-55.5 -18.5t-65.5 -3q-29 0 -61 -3t-65 -7t-64.5 -7t-59.5 -3q-213 0 -376.5 63t-274.5 169.5t-168 247t-57 296.5z" />
    <glyph glyph-name="K" unicode="K" horiz-adv-x="1415" 
d="M203 93q0 340 -1.5 676t-3.5 677q0 69 29.5 98.5t91.5 29.5q23 0 44 -7t37 -20.5t25.5 -32.5t9.5 -43q0 -143 -0.5 -272t-1.5 -260l533 504q11 16 34.5 38.5t51 43t55 35t48.5 14.5q23 0 44 -6t36.5 -19t25 -34t9.5 -50q0 -31 -9.5 -53.5t-25.5 -40t-35.5 -31
t-40.5 -25.5l-289 -248.5l-296 -248.5q66 -18 129.5 -60.5t121.5 -98t107.5 -118.5t87.5 -122l57.5 -87t56 -73.5t54 -50.5t52.5 -19q21 0 47 -1.5t49 -11t38.5 -29.5t15.5 -57q0 -41 -17 -65t-43 -36t-58.5 -15t-63.5 -3q-57 0 -108.5 29.5t-98 78t-89.5 109.5l-85 124
q-38 57 -82.5 115.5t-95 108t-105.5 86.5t-112 52v-112q0 -112 0.5 -215t1.5 -184q3 -28 4 -49.5l2 -41.5q0 -52 -33.5 -76.5t-92.5 -24.5q-13 0 -32 4.5t-36.5 18t-30 37.5t-12.5 62z" />
    <glyph glyph-name="a" unicode="a" horiz-adv-x="1594" 
d="M114 600q0 136 46 253t126.5 203t189 135t234.5 49q64 0 122.5 -15t109 -39.5t91 -55.5t69.5 -64q-1 14 -1 30v28q0 25 7 46.5t22 37.5t38 25.5t56 9.5q28 0 50.5 -10.5t38.5 -26t25 -33t9 -31.5q0 -34 -3.5 -68.5t-5.5 -69.5q0 -110 -1.5 -194.5t-3.5 -155.5
q-2 -48 -3 -99.5t-1 -94.5v-154t5 -83q9 2 26.5 9t32.5 15l28 10t35 5q24 0 42 -10.5t30.5 -27t18.5 -37t6 -39.5q0 -27 -13 -54.5t-48 -39.5l-61 -23t-62.5 -22t-63 -17t-64.5 -7q-39 0 -64 16t-39 41.5t-20 56.5t-7 61q-31 -39 -75 -73t-97 -60t-113.5 -41t-124.5 -15
q-130 0 -238 47.5t-185.5 132t-120.5 199.5t-43 250zM344 600q0 -81 24.5 -156t71 -132.5t114.5 -91.5t154 -34q85 0 154 33t120.5 86t84.5 118.5t45 131.5v88q-11 61 -41.5 129t-80 125.5t-118.5 95t-156 37.5q-82 0 -150 -33.5t-117.5 -92t-77 -136.5t-27.5 -168z" />
    <glyph glyph-name="d" unicode="d" horiz-adv-x="1578" 
d="M119 600q0 136 45.5 251.5t126 200t190.5 132.5t239 48q58 0 115 -11.5t108.5 -34t95.5 -55.5t77 -76v74t-0.5 114t-1.5 147t-2 172h-85q-23 0 -45 -5t-47 -5q-18 0 -36.5 8.5t-33 24t-24 38t-9.5 51.5q0 52 27 80t68 28q10 0 24 -0.5t32 -5.5q66 -1 133 1.5t144 3.5
q42 0 66 -29t24 -77q0 -34 -9 -53q-2 -65 -3 -160.5t-2 -203.5t-1.5 -220t-1 -209.5t-0.5 -172.5v-109q0 -98 1.5 -176.5t5.5 -123.5l18 11q21 12 40.5 21t42.5 11q17 2 35 -3.5t33 -18t25 -33.5t10 -51q0 -42 -22.5 -67.5t-46.5 -35.5q-24 -11 -46 -22.5l-45 -23.5
l-65.5 -34t-55.5 -16q-48 0 -77.5 45.5t-44.5 121.5q-40 -41 -91 -74t-109 -57t-121.5 -37t-127.5 -13q-130 0 -235.5 49t-180.5 134t-116 199.5t-41 246.5zM342 600q0 -79 25 -153.5t72.5 -132.5t115.5 -93t154 -35q66 0 132 21.5t121.5 61t96.5 96t56 127.5v67t-0.5 44.5
t-0.5 34v35.5q-16 72 -51.5 134.5t-86.5 108.5t-114.5 72.5t-134.5 26.5q-83 0 -153.5 -30t-122 -84.5t-80.5 -131t-29 -169.5z" />
    <glyph glyph-name="o" unicode="o" horiz-adv-x="1460" 
d="M109 603q0 130 48.5 244.5t133 200t197.5 135t242 49.5q141 0 255.5 -49.5t196 -135t125.5 -200t44 -244.5q0 -95 -22.5 -179t-63.5 -154t-98.5 -125.5t-126.5 -94t-147.5 -59t-162.5 -20.5q-126 0 -239 45.5t-198 128t-134.5 199t-49.5 259.5zM340 603q0 -95 27 -172
t77.5 -131.5t122.5 -84t162 -29.5q80 0 151 27t124.5 79.5t85 130.5t31.5 180q0 84 -26.5 159.5t-76.5 131.5t-123 89t-166 33t-165 -33t-122 -89t-76 -131.5t-26 -159.5z" />
    <glyph glyph-name="e" unicode="e" horiz-adv-x="1402" 
d="M357 451q19 -75 56.5 -125.5t84.5 -81.5t99.5 -44.5t102.5 -13.5q78 0 139 13.5t104.5 33t70.5 40.5t38 37q10 15 22.5 28.5t27 24t29 16.5t27.5 6q50 0 77.5 -29.5t27.5 -79.5q0 -19 -14 -48t-52 -64q-42 -39 -93.5 -74t-113.5 -61.5t-134.5 -42t-156.5 -15.5
q-99 0 -181 26.5t-147 72t-113 105.5t-80 128t-48 140t-16 140q0 148 48 267.5t132 204.5t199 131t249 46q96 0 180 -28.5t149.5 -80t110 -123t62.5 -157.5q20 -17 29.5 -44.5t9.5 -54.5q0 -45 -30.5 -73.5t-76.5 -39.5q-101 -26 -202 -48l-203 -43l-205.5 -43zM340 636
q170 40 344 75t354 78q-17 46 -46 87.5t-68 72.5t-86.5 49t-102.5 18q-85 0 -154.5 -27.5t-120.5 -77t-82 -120t-38 -155.5z" />
    <glyph glyph-name="q" unicode="q" horiz-adv-x="1536" 
d="M114 603q0 128 46.5 242.5t128.5 200.5t194.5 136t245.5 50q142 0 241 -45.5t172 -130.5q14 49 39.5 77.5t63.5 28.5q60 0 90 -33.5t30 -86.5q0 -48 -12 -97q0 -25 -0.5 -56t-1.5 -63q-1 -18 -1.5 -37t-1 -46t-0.5 -64.5v-92v-129t-0.5 -175.5t-0.5 -231v-295
q34 22 65.5 37.5t59.5 15.5q48 0 79.5 -25.5t31.5 -73.5q0 -29 -6 -48t-17.5 -34t-28.5 -27t-40 -25l-111 -52q-16 -13 -30 -20t-28 -10.5t-29 -4t-33 -0.5q-26 0 -49.5 9t-41.5 29t-28.5 50.5t-10.5 74.5v486q-37 -38 -83.5 -68.5t-100 -52.5t-113.5 -34t-123 -12
q-129 0 -238.5 45.5t-189 128t-124 199t-44.5 259.5zM335 603q0 -93 30 -170t81.5 -131.5t121 -85t149.5 -30.5q74 0 141 25t121 69.5t92.5 106t55.5 134.5l-4 174q-16 63 -50 121t-84.5 102.5t-116.5 71t-146 26.5q-93 0 -165.5 -35t-123 -93t-76.5 -132t-26 -153z" />
    <glyph glyph-name="n" unicode="n" horiz-adv-x="1622" 
d="M283 74q0 18 1.5 37t3.5 37q3 27 6 59t3 72q0 78 -0.5 147.5t-2.5 143.5v6.5t-0.5 18.5t-1 41t-1.5 76l-2.5 122.5l-3.5 179.5q-13 -2 -30.5 -3.5t-41.5 -1.5q-18 0 -36.5 6t-34 18.5t-25 33t-9.5 50.5q0 54 27.5 81.5t67.5 27.5q16 0 31 -4t32 -4q20 0 41 1t41 3
q22 2 43.5 3t38.5 1q41 0 68 -27t27 -76q0 -12 -0.5 -28t-2.5 -31q34 33 77 63t93.5 53.5t108.5 37.5t123 14q127 0 222.5 -41.5t160 -120t97 -192.5t32.5 -259q0 -44 -6 -92t-16.5 -96t-25 -95.5t-32.5 -89.5q23 7 44 12t35 7q112 11 112 -102q0 -14 -3 -30.5t-12 -32
t-25 -29t-41 -22.5l-108 -25q-50 -15 -80.5 -25.5l-51 -17t-34.5 -9t-31 -1.5q-24 0 -42 11.5t-30 29t-18 38.5t-6 41q0 32 9 65t32 60q28 36 47.5 81t31.5 97t17.5 109t5.5 116q0 68 -14.5 138.5t-49 128t-91 94t-141.5 36.5q-59 0 -115.5 -18.5t-108 -49t-96.5 -69.5
t-79 -80q-1 -45 -1.5 -90.5t-0.5 -91.5q-2 -78 -3 -155t-1 -156v-46.5t2 -49.5l27 8q11 3 21.5 5.5t18.5 2.5q54 0 82 -26.5t28 -77.5q0 -38 -15 -60.5t-38 -35t-50.5 -17.5t-53.5 -8q-14 -2 -27 -3.5t-22 -4.5l-55 -15.5t-40 -6.5q-59 0 -80.5 27t-21.5 76z" />
    <glyph glyph-name="i" unicode="i" horiz-adv-x="833" 
d="M482 1378q-24 -11 -50 -10.5t-47.5 11t-37.5 30.5t-20 48q-3 19 1.5 43.5t12 50t14 50t8.5 44.5q3 45 27 75t72 37q35 6 66 -4t46 -44q5 -11 8.5 -25.5t5.5 -25.5q1 -10 -0.5 -25t-5.5 -31.5t-9.5 -33t-10.5 -28.5q-8 -17 -10.5 -36.5t-5.5 -35.5t-6 -29t-9.5 -24
t-18 -20t-30.5 -17zM311 75q0 25 2.5 42t5 37.5t5 48.5t2.5 76q0 179 -1 355.5t-5 373.5q-15 -1 -34 -2t-39.5 -1.5l-39.5 -1t-34 -0.5q-18 0 -36.5 5.5t-33.5 18.5t-25 33.5t-10 50.5q0 53 28.5 80.5t67.5 27.5q38 0 75.5 -3.5t73.5 -3.5q37 0 74 3.5t70 3.5q51 0 73 -27
t22 -75q0 -41 -7 -80.5t-7 -84.5q0 -90 -1 -181t-1.5 -185l-1 -192t1.5 -202q16 1 29 5t25 8.5t25.5 8t30.5 3.5q26 0 42.5 -6t26.5 -16.5t15 -26t9 -33.5q7 -47 -23 -75t-82 -44l-61.5 -16l-59.5 -14.5t-51 -10.5t-36 -4q-59 0 -87 27.5t-28 76.5z" />
    <glyph glyph-name="b" unicode="b" horiz-adv-x="1529" 
d="M198 65v92.5t-1 111.5q-1 91 -1 195.5t0.5 215.5l1 226.5t0.5 229.5t-1.5 223.5t-4.5 209.5q-18 1 -37 -2.5t-44 -3.5q-18 0 -35.5 6t-31 19.5t-21.5 34.5t-8 51q0 53 27.5 80.5t67.5 27.5q16 0 31 -4t32 -4q40 0 79.5 4t84.5 4q41 0 68 -27.5t27 -75.5q0 -65 -1 -141.5
t-2.5 -156.5t-2.5 -158.5t-2 -146.5q33 35 76 63.5t94 49t107 32t115 11.5q133 0 243.5 -44t189.5 -125.5t122.5 -197t43.5 -257.5q0 -157 -47.5 -276t-132.5 -199.5t-202.5 -121t-258.5 -40.5q-52 0 -103 10t-98 28.5t-88 43.5t-73 55v-42q0 -26 -12 -43t-30 -27
t-39.5 -13.5t-40.5 -3.5q-43 0 -67.5 16.5t-24.5 69.5zM403 594q0 -95 30.5 -170.5t81.5 -128t116.5 -81t135.5 -28.5q87 0 161.5 24t129.5 75t86 130.5t31 189.5q0 95 -26.5 171t-76.5 129.5t-121 82t-161 28.5q-76 0 -146 -31.5t-123.5 -88t-85.5 -134t-32 -168.5z" />
    <glyph glyph-name="h" unicode="h" horiz-adv-x="1555" 
d="M205 72q0 18 1.5 37t3.5 38q3 26 6 58t3 71q0 59 -0.5 152t-1.5 206.5t-2 239t-2.5 250l-3 239.5t-2.5 207q-15 2 -32 -1.5t-40 -3.5q-18 0 -36.5 6t-34 18.5t-25 33.5t-9.5 51q0 53 28 80.5t67 27.5q16 0 31 -4t32 -4q20 0 41 1t41 3q22 2 43.5 3t37.5 1
q42 0 68.5 -27.5t26.5 -75.5q0 -129 -2.5 -262.5t-4.5 -287.5l-2 -51q35 31 77 59t89.5 49t98.5 33.5t104 12.5q126 0 224.5 -37t166.5 -113t103.5 -191t35.5 -272q0 -46 -6.5 -96t-18.5 -100t-29 -98.5t-38 -90.5q22 8 44 14.5t48 6.5q33 0 54 -12.5t32.5 -29.5t15.5 -35
t4 -28q0 -38 -22.5 -65t-57.5 -39q-29 -11 -73 -24t-88.5 -24t-83.5 -19t-59 -8q-65 0 -92.5 31.5t-27.5 81.5q0 27 15 59t36 59q26 37 48 85.5t38.5 103t26 113t9.5 115.5q0 94 -17.5 168t-55.5 125t-98.5 77.5t-146.5 26.5q-50 0 -100 -18t-97 -47.5t-88.5 -68
t-73.5 -78.5q-2 -149 -2.5 -296.5t1.5 -301.5q2 0 5.5 1t16.5 6q9 4 19.5 7t23.5 4q54 2 82.5 -25.5t28.5 -78.5q0 -18 -6.5 -35.5t-17.5 -31.5t-26 -24t-33 -14q-20 -4 -39.5 -8.5t-39.5 -8.5l-38.5 -9t-40 -9t-35.5 -6.5t-26 -2.5q-59 0 -80.5 26t-21.5 75z" />
    <glyph glyph-name="r" unicode="r" horiz-adv-x="1252" 
d="M214 89q0 35 1 70t2 77v771q0 28 -6 56.5t-6 59.5q0 53 38 81t103 28q28 0 49 -9.5t35 -24.5t21 -34t7 -39q0 -17 -2.5 -34.5t-5.5 -34.5q153 38 260.5 69t168.5 51q13 23 36.5 39.5t61.5 16.5q55 0 87.5 -28.5t32.5 -71.5q0 -17 -2 -35t-2 -36q-6 -61 -2.5 -124
t8.5 -127q2 -20 2.5 -42.5t0.5 -45.5q0 -24 -12 -40t-30.5 -25.5t-40.5 -13.5t-43 -4q-30 0 -50 10.5t-32.5 27t-18 37t-5.5 40.5q0 46 1 93.5t2 104.5l-104.5 -24l-145.5 -32q-45 -11 -89 -20.5l-89 -19.5v-653l30 9q20 7 38 12.5t41 7.5q19 -2 37.5 -9t33 -20t23.5 -32.5
t9 -44.5q0 -23 -7.5 -44t-20.5 -37.5t-30.5 -27t-38.5 -11.5q-14 -2 -38 -6.5l-56 -10.5q-51 -10 -82.5 -14t-52.5 -4q-23 0 -44.5 7.5t-37.5 22.5t-25.5 37t-9.5 51z" />
    <glyph glyph-name="u" unicode="u" horiz-adv-x="1437" 
d="M157 546q0 94 20.5 203t66.5 209q-20 -6 -37 -6q-38 0 -59 13.5t-30.5 31.5t-11 37t-1.5 30q0 30 10 49.5t28 31.5t44.5 19t59.5 14q17 2 37 9.5t39 15.5q26 11 55 20t60 9q32 0 54.5 -9t37 -24.5t21 -36t6.5 -43.5q0 -29 -13 -59t-37 -57q-32 -36 -56 -89t-40.5 -114.5
t-25 -127t-8.5 -126.5q0 -188 77.5 -277t228.5 -89q49 0 98.5 14t97 38.5t91 58t81.5 72.5q2 85 3 157.5t1 141.5v79.5t-1 74l-2 76t-3 86.5q-31 -9 -59 -14t-42 -5q-21 0 -40 7t-34 21t-24 35.5t-9 50.5q0 31 11.5 50.5t33 31t51.5 18.5l67 15q21 3 40.5 10.5l39.5 15
t41 13t44 5.5q36 0 55 -12.5t28 -34t10.5 -51t1.5 -62.5v-74.5t1 -102.5q0 -164 3 -333.5t3 -362.5q0 -27 3.5 -54.5t3.5 -59.5q0 -27 -3.5 -47.5t-17 -34.5t-40 -22.5t-73.5 -9.5q-30 0 -50.5 11.5t-33 28.5t-18 36.5t-5.5 35.5q0 11 1.5 17.5t3.5 16.5
q-46 -40 -94.5 -67.5t-95.5 -45t-91.5 -25.5t-82.5 -8q-260 0 -390.5 147t-130.5 428z" />
    <glyph glyph-name="t" unicode="t" horiz-adv-x="1000" 
d="M285 290l-6 705l-121 -1q-23 0 -40 9.5t-28.5 26t-17.5 37.5t-6 44q0 39 9.5 59.5t27.5 30t44 11t60 1.5h71v37q0 37 -0.5 60t-0.5 31q0 29 -5.5 58t-5.5 59q0 25 6 44t20.5 32.5t38.5 20.5t59 7q24 0 45.5 -4t38 -15.5t26.5 -31.5t10 -52q0 -43 -7.5 -85t-6.5 -87v-73
q78 2 121.5 3t70.5 2q4 0 7.5 0.5t6.5 0.5q12 1 27 1h24q19 0 37 -6t31.5 -20t21.5 -36t8 -53q0 -24 -4 -45t-15 -37t-32 -25.5t-54 -9.5q-31 0 -62.5 3.5t-64.5 4.5l-121 -1l7 -789q41 7 72 13t58 12t53 14t57 20q17 9 40 18.5t48 9.5q49 0 77 -33.5t28 -87.5
q0 -14 -6.5 -31t-19.5 -33.5t-33.5 -30t-48.5 -19.5q-30 -6 -69 -15l-82 -19l-86 -20t-81 -17.5t-67 -12.5t-44 -4q-18 0 -39.5 4.5t-39.5 16t-29.5 32t-11.5 52.5z" />
    <glyph glyph-name="m" unicode="m" horiz-adv-x="2349" 
d="M282 73q0 51 7.5 100t7.5 104q0 41 -0.5 81t-1 85t-1.5 98.5t-2.5 121.5l-3.5 154t-4 197q-13 -2 -29.5 -3.5t-41.5 -1.5q-18 0 -37 6t-34 18.5t-25 33t-10 50.5q0 54 28 81.5t68 27.5q16 0 31 -4t32 -4q40 0 79.5 4t83.5 4q43 0 59.5 -27t16.5 -76v-20q79 66 167 97.5
t164 31.5q125 0 222 -36t165 -107q42 34 88 61t92.5 45t91.5 27.5t86 9.5q126 0 229 -37.5t176.5 -110.5t113.5 -179.5t40 -245.5q0 -44 -5.5 -99.5t-15.5 -114t-24 -115t-30 -101.5q13 4 21 5t14 1q35 0 56 -13t32.5 -31t15 -37.5t3.5 -32.5q0 -31 -11 -50.5t-38.5 -33
t-74 -24.5t-117.5 -26l-50.5 -13t-35.5 -5q-32 0 -55 9.5t-37.5 25t-21.5 37t-7 45.5q0 26 14 58.5t37 58.5q23 38 42 92.5t32.5 116.5t20.5 126t7 121q0 80 -19.5 146t-61 113t-105 73t-150.5 26q-44 0 -78.5 -6.5t-64 -18.5t-55.5 -30t-52 -42q41 -112 41 -261
q0 -45 -6 -102t-17 -117t-28 -118t-38 -106q16 3 33 9.5t37 6.5q33 0 53.5 -13t31 -31.5t14 -40t3.5 -38.5q0 -32 -12.5 -50.5t-32.5 -29t-46 -15t-53 -7.5t-52.5 -7.5t-45.5 -14.5q-3 -2 -14 -4.5t-23.5 -5t-25 -4.5t-19.5 -2q-33 0 -56 12t-37.5 31t-21 42t-6.5 45
q0 26 8 52.5t22 49.5q22 40 41 95.5t32.5 117t21.5 125t8 120.5q0 80 -15.5 146t-51.5 113t-94.5 73t-144.5 26q-85 0 -166.5 -36.5t-160.5 -116.5q0 -45 -0.5 -111.5t-0.5 -140.5v-147t0.5 -131t1 -93.5t1.5 -32.5q18 5 29.5 8.5t19 5.5t11.5 2.5t9 0.5q54 0 82 -26.5
t28 -77.5q0 -38 -15 -60t-38 -35t-52 -18.5t-56 -8.5q-17 -2 -35 -7l-36 -10t-36 -9t-33 -4q-59 0 -81 27.5t-22 76.5z" />
    <glyph glyph-name="p" unicode="p" horiz-adv-x="1504" 
d="M423 -72q1 -45 1.5 -95l1 -98t1 -89.5t0.5 -69.5q0 -26 -10.5 -43t-27 -27t-36.5 -13.5t-39 -3.5q-21 0 -39.5 3.5t-32 13t-21.5 26.5t-8 43v975v137.5t-0.5 143.5t-2 122.5t-3.5 73.5q-8 0 -26.5 -3.5t-35.5 -3.5q-18 0 -36.5 5t-33.5 17t-25 32t-10 51q0 32 7.5 52
t21.5 31.5t34 15.5t46 4q22 0 44 -3t46 -3q21 0 43 3t49 3q44 0 70 -21.5t26 -67.5q0 -20 -3.5 -41t-5.5 -43q31 39 72.5 71.5t91.5 56t107.5 36.5t119.5 13q129 0 236 -42.5t183.5 -122.5t119 -195t42.5 -259q0 -135 -39.5 -252.5t-115.5 -204t-187.5 -136t-254.5 -49.5
q-110 0 -208.5 39.5t-165.5 110.5zM417 525q12 -73 43 -135t76 -107.5t101.5 -71t119.5 -25.5q101 0 175.5 29t123 84t72.5 133.5t24 177.5q0 84 -24 158t-70 129t-113 87t-152 32q-69 0 -133 -32.5t-114.5 -87.5t-84.5 -127.5t-44 -152.5v-91z" />
    <glyph glyph-name="W" unicode="W" horiz-adv-x="1995" 
d="M540 100l-79 218l-83.5 228.5l-84 226.5l-79 213.5l-70.5 188.5l-58 152q-13 33 -23.5 68t-10.5 66q0 109 122 109q14 0 27.5 -2.5t27 -12.5t26 -28.5t24.5 -51.5l137 -385l104.5 -297l79 -230l60.5 -183l53 155l49 143.5l49 141l54 147.5q-8 15 -18.5 43l-22.5 62
l-25 71l-25.5 71.5l-23 62t-18.5 43.5q-18 32 -31 65t-13 59q0 65 27 92.5t93 27.5q22 0 39.5 -10t34.5 -38.5t37.5 -78.5t50.5 -130q7 -17 13.5 -44t13.5 -45q10 21 20.5 50l21 60.5t20 63.5l17.5 60q4 19 11.5 40t21 38.5t35 29t55.5 11.5q51 0 81 -32.5t30 -86.5
q0 -28 -12 -58.5t-28 -61.5q-43 -88 -79 -170t-71 -172l45.5 -121l48 -133l56.5 -160l71 -202l88 261.5l84.5 261l86.5 260t94 258.5v-1q6 30 15.5 58t24.5 49t37.5 33.5t54.5 12.5q57 0 86.5 -29t29.5 -80q0 -18 -2 -33t-5.5 -29.5t-9.5 -30l-14 -34.5l-115.5 -299.5
l-106 -292l-106.5 -305.5l-117 -340q2 -5 1 -8t-1 -8q0 -22 -8.5 -41.5t-25 -34.5t-42 -23.5t-59.5 -8.5q-27 0 -44 8.5t-27.5 22t-17 30.5t-10.5 34v-1q-22 70 -44 127.5l-45 119.5l-72.5 208.5t-74.5 210.5q-21 -59 -46 -137l-53 -163.5l-58 -172.5l-59 -165q2 -9 2 -18
v-12q0 -23 -10.5 -40t-28 -28.5t-40.5 -17.5t-47 -6q-34 0 -55 13.5t-33.5 33.5t-18.5 42.5t-9 40.5z" />
    <glyph glyph-name="l" unicode="l" horiz-adv-x="790" 
d="M254 103q0 62 3 131q2 36 3 81.5t1 90.5q0 30 -0.5 95.5t-1 155.5t-2 200l-3 229.5l-3 243.5t-3.5 243q-39 -1 -79 -4.5t-82 -3.5q-18 0 -36.5 6t-33.5 18.5t-25 33.5t-10 51q0 53 28.5 80.5t66.5 27.5q35 0 69 -4t72 -4q28 0 49 1t40.5 2.5t41.5 3t53 1.5
q42 0 68.5 -26.5t26.5 -81.5q0 -20 -3.5 -39t-8 -38t-8 -38.5t-4.5 -39.5v-1311q41 12 65.5 18t42.5 6q105 0 105 -110q0 -45 -30.5 -69.5t-87.5 -38.5l-100 -26q-34 -11 -53 -14t-41 -3q-32 0 -54.5 12t-37 31.5t-21.5 42.5t-7 46z" />
    <glyph glyph-name="M" unicode="M" horiz-adv-x="2027" 
d="M52 79q0 18 5 31q8 21 27.5 85l48 158.5l64 213.5l75 251.5l81 271.5l81.5 274v-1q7 28 15.5 56.5t17 52.5t17 41.5t14.5 23.5q16 17 43 27t53 10q35 0 58 -12.5t39.5 -37t29 -60.5t26.5 -82l251 -797l14 -42q54 166 91.5 297l65 233.5l48 180.5t40.5 140l20 63t25.5 58
t40 42.5t65.5 16.5q35 0 61 -10.5t41 -47.5l14 -35l17.5 -45.5l25.5 -69.5l37 -107l52 -157l71.5 -220.5l95 -298l121.5 -387.5q12 -32 19.5 -55t9.5 -43q2 -26 -2.5 -49t-16.5 -40.5t-33 -27.5t-52 -10q-40 0 -66 16.5t-42.5 40.5t-25.5 52t-14 52l-43 155.5l-51 179.5
l-56 191.5l-57.5 191l-56 177.5l-51.5 152q-38 -106 -69 -214.5l-61.5 -218l-63 -219t-72.5 -217.5q-8 -20 -11.5 -44t-3.5 -40q0 -28 -11 -46t-28.5 -28.5t-39.5 -15t-44 -4.5q-37 0 -59.5 10.5t-36 28.5t-20 40.5t-10.5 46.5q-2 14 -4.5 27.5t-6.5 27.5l-37.5 132.5
l-43.5 151l-47.5 159l-49 157l-48 145.5l-43.5 124q-25 -68 -51.5 -159.5l-54 -194l-55 -210.5l-54 -210.5l-51.5 -193.5t-47 -158q-23 -39 -45.5 -62t-66.5 -23q-26 0 -47.5 8.5t-37.5 23.5t-25 34.5t-9 41.5z" />
    <glyph glyph-name="j" unicode="j" horiz-adv-x="762" 
d="M445 1378q-25 -11 -50.5 -10.5t-47.5 11t-38 30.5t-20 48q-3 19 2 43.5t12 50l14 50t9 44.5q3 45 27 75t72 37q35 6 66 -4t46 -44q5 -11 8 -25.5t5 -25.5q1 -10 -0.5 -25t-5.5 -31.5t-9 -33t-10 -28.5q-8 -17 -10.5 -36.5t-5.5 -35.5t-6.5 -29t-10 -24t-17.5 -20t-30 -17
zM47 -304q20 6 89 31.5t196 90.5l-2 112t-1 123q0 132 -1 268t-3.5 262t-6 236t-7.5 191q-25 -2 -49 -3.5t-44.5 -2t-35 -1t-19.5 -0.5q-18 0 -37 5t-34.5 17.5t-25.5 33.5t-10 52q0 51 28.5 79t68.5 28q15 0 26 -1l22.5 -2t24.5 -2t32 0q43 0 87.5 2t99.5 2q36 0 56.5 -11
t31 -26.5t13.5 -33.5t3 -32q0 -37 -5 -73t-5 -78v-142.5t0.5 -139l1 -146t1.5 -163t2 -191.5t3 -230q0 -40 3.5 -80.5t6.5 -87.5q0 -38 -14 -70t-49 -48v1l-163 -81t-148 -66q-32 -23 -55.5 -31.5t-46.5 -8.5q-25 0 -46.5 6t-37.5 19.5t-25 36t-9 54.5q0 41 23 64.5t61 36.5
z" />
    <glyph glyph-name="v" unicode="v" horiz-adv-x="1307" 
d="M389 350l-86.5 98.5t-78 111.5t-56 131t-21.5 157q0 47 4.5 80t10.5 68h-21q-18 0 -39 6.5t-39 20t-30 35t-12 52.5q0 27 9 47.5t23.5 33.5t33.5 19.5t39 6.5h14t25 -1q7 0 17.5 -0.5t17.5 -0.5q36 -2 73 -2t80 1q34 0 54.5 -8.5t31 -21t13.5 -28.5t3 -31q0 -21 -9 -37
t-21 -31l-24.5 -30t-18.5 -34q-3 -12 -6.5 -32t-6 -41.5t-4 -43t-1.5 -37.5q0 -56 13 -99.5t35.5 -80.5t52 -70l61.5 -67q37 -39 75 -84.5t65 -101.5l5 10q25 52 59 95t77 86l60.5 65t52.5 68.5t36.5 80t13.5 98.5q0 43 -4.5 72.5t-12 50.5t-16.5 35l-17 26q-14 17 -24 38
t-10 55q0 20 5.5 37.5t19 30.5t37 20.5t59.5 7.5q35 0 72 1.5t90 1.5q17 0 37 -6t36.5 -18t27.5 -30t11 -43q0 -44 -25.5 -74t-90.5 -35q6 -21 10.5 -47t7.5 -51t4.5 -46.5t1.5 -33.5q0 -67 -21 -128.5t-54 -116.5t-73.5 -104t-79.5 -91l-63.5 -73.5t-57 -76.5t-42.5 -79.5
t-18 -82.5q-2 -39 -13.5 -61t-28 -32.5t-34.5 -12.5t-32 -2q-21 0 -42 7t-38 19.5t-28 29.5t-11 37q-1 39 -14.5 75.5t-36 71.5t-52 69.5z" />
    <glyph glyph-name="w" unicode="w" horiz-adv-x="1770" 
d="M449 138l-233 584.5t-125 279.5v-1q-17 29 -30 64.5t-13 57.5q0 27 11 47.5t28.5 34t38.5 20.5t41 7q28 0 45.5 -7t29 -20t19.5 -31.5t17 -42.5q85 -194 162 -392.5l163 -409.5l40 109l41 114l48 134.5t48 129.5l-41 95.5t-46 94.5q-17 30 -25.5 59.5t-8.5 52.5
q0 27 9 48t24.5 36t35 22.5t40.5 7.5q28 0 47 -9.5t32 -25t22 -35.5t17 -41q2 -6 3.5 -10t4.5 -11l5 14q9 21 20 42.5t26.5 38t35.5 27t47 10.5q20 0 39.5 -7t35.5 -21t25.5 -34t9.5 -45q0 -26 -9.5 -47t-20.5 -40l-99 -225l194 -484l261 701q7 30 17 65t27 65.5t43.5 51
t66.5 20.5q27 0 49 -9.5t38 -24.5t24.5 -34.5t8.5 -38.5q0 -23 -7 -41.5t-16.5 -36t-21 -34t-20.5 -35.5q-6 -12 -16.5 -39l-25.5 -65l-32.5 -84l-36.5 -95l-48.5 -126l-50.5 -129l-49.5 -123.5l-45.5 -108.5q-14 -31 -22 -55.5t-14 -47.5q-10 -31 -19 -55.5t-22.5 -42
t-35 -27t-55.5 -9.5q-42 0 -78 43t-72 130l-75 197t-78 202l-86.5 -214t-79.5 -223q-9 -27 -18.5 -51.5t-24 -43t-35 -29.5t-50.5 -11q-24 0 -44 9t-38 29.5t-35.5 52t-36.5 76.5z" />
    <glyph glyph-name="uni0001" 
 />
    <glyph glyph-name="uni0002" 
 />
    <glyph glyph-name="uni0003" 
 />
    <glyph glyph-name="uni0004" 
 />
    <glyph glyph-name="uni0005" 
 />
    <glyph glyph-name="uni0006" 
 />
    <glyph glyph-name="uni0007" 
 />
    <glyph glyph-name="uni0008" 
 />
    <glyph glyph-name="acute" unicode="&#xb4;" horiz-adv-x="675" 
d="M121 1413q-20 0 -39 9t-33.5 23.5t-23 32t-8.5 35.5q0 24 14.5 49.5t36 49.5t46 46l44.5 39l108 106v-1q18 19 33.5 33.5t31 24.5t32 15.5t37.5 5.5q25 0 47.5 -8t39 -23.5t26 -37.5t9.5 -50q0 -18 -9 -35t-21.5 -30.5t-25.5 -23t-21 -12.5l1 1l-50 -44l-55.5 -50.5
l-56 -52.5l-51.5 -49q-37 -34 -63 -43.5t-49 -9.5z" />
    <glyph glyph-name="grave" unicode="`" horiz-adv-x="676" 
d="M431 1404q-23 0 -39 4.5t-30 14t-28 23.5t-32 34v-1l-96 94.5t-103 93.5q-33 27 -43 50t-10 55q0 17 8.5 35.5t23 33.5t33 24.5t39.5 9.5t48 -12.5t61 -43.5l87.5 -84l59 -55.5l37.5 -34t24 -20.5q8 -3 21 -13t25.5 -24t21.5 -30.5t9 -34.5q0 -57 -33.5 -88t-83.5 -31z
" />
    <glyph glyph-name="s" unicode="s" horiz-adv-x="1249" 
d="M122 259q0 23 11 42t27.5 32.5t36.5 21t39 7.5q23 0 39 -5t28 -14t21 -21l19 -26q40 -60 117 -92.5t201 -32.5q51 0 96.5 9t80 27t55 44t20.5 60q0 46 -26.5 78t-70 55t-98.5 39t-113 31q-53 13 -107 28.5t-105 36t-95.5 49t-77.5 67.5t-52.5 90.5t-19.5 118.5
q0 90 42.5 152.5t110 101.5t150.5 56.5t163 17.5q46 0 84 -5t71 -13t63 -19.5l60 -23.5q4 15 12.5 30.5t20.5 28t28 20.5t36 8q49 0 76 -19t27 -67q0 -38 -3 -79t-3 -90q5 -12 7 -26.5t2 -25.5q0 -24 -8 -40.5t-22 -27t-32.5 -15.5t-40.5 -5q-20 0 -38.5 7t-33.5 18.5
t-26 26.5t-17 31q-16 13 -40.5 29.5t-58 30.5t-76.5 23.5t-95 9.5q-51 0 -94.5 -9.5t-75 -27.5t-49.5 -43t-18 -56q0 -40 24.5 -68.5t65.5 -50t95.5 -38.5t113.5 -33q81 -22 163.5 -49t149 -69.5t108.5 -107t42 -161.5q0 -75 -23 -130t-61 -94.5t-88.5 -65t-105 -40
t-110.5 -20t-106 -5.5q-70 0 -135 13t-122.5 35t-105 51t-81.5 61t-53 65t-19 63z" />
    <glyph glyph-name="x" unicode="x" horiz-adv-x="1297" 
d="M141 87q0 20 2 33.5t9 25.5t19 26l32 36l46.5 51.5t65 76l86.5 109.5l112 151l-78.5 91.5l-78.5 94.5l-84.5 105l-85.5 101q-24 26 -44.5 61t-20.5 77q0 22 10.5 41.5t27 33.5t37.5 22.5t41 8.5q29 0 60 -22.5t51 -67.5l-1 1l290 -371l250 342v-1l23 40t28.5 38.5t38 29
t50.5 11.5q19 0 39 -9t37 -24.5t28 -36.5t11 -46q0 -20 -13 -46.5t-31.5 -54t-38.5 -52.5l-33 -41l-33 -43.5l-45.5 -60l-69 -91l-103.5 -135.5l119.5 -146l91 -104.5l75 -80.5l71.5 -74q13 -15 21.5 -33.5t13.5 -36t7.5 -32t2.5 -21.5q0 -45 -27 -69t-92 -24q-7 0 -20 6
t-27 13.5t-26 15.5t-17 13l-51.5 62l-40 51.5l-37 50.5l-43.5 59.5l-60 77.5l-86 105l-127 -171.5l-127 -171.5q-5 -15 -15 -34.5t-25 -36.5t-36.5 -28.5t-50.5 -11.5q-12 0 -33.5 5t-42.5 18.5t-36.5 35.5t-15.5 57z" />
    <glyph glyph-name="f" unicode="f" horiz-adv-x="964" 
d="M280 89q0 20 2 40t3 39l-17 829h-31q-18 0 -37 5t-34.5 17.5t-25.5 33t-10 51.5q0 51 28.5 78.5t66.5 27.5q10 0 18 -3t19 -4q-1 18 -2.5 40.5t-2.5 45t-1.5 43t-0.5 35.5q0 110 28 188.5t79.5 129t124 74t161.5 23.5q83 0 140 -21.5t92.5 -53t51 -67.5t15.5 -65
q0 -47 -30.5 -73t-75.5 -26q-35 0 -57 15.5t-47 42.5q-14 15 -38.5 30.5t-69.5 15.5q-79 0 -116.5 -67t-37.5 -198q0 -14 2 -45.5t5 -61.5q51 1 112.5 1h136.5q49 0 74.5 -30t25.5 -69q0 -21 -8 -41t-23 -36t-37.5 -26t-51.5 -10h-219l9 -794q25 6 46 14q30 10 55 17t50 7
q17 0 34 -7.5t30.5 -21.5t22 -33.5t8.5 -42.5q0 -38 -25.5 -68t-76.5 -41l-45.5 -11.5t-60.5 -16.5q-40 -11 -80.5 -19.5t-62.5 -8.5q-20 0 -40.5 5t-37 18.5t-27.5 36t-11 58.5z" />
    <glyph glyph-name="c" unicode="c" horiz-adv-x="1385" 
d="M114 604q0 81 16.5 159t51 148t87 128.5t125 101.5t165 67t207.5 24q72 0 134 -16t104 -43q5 30 17.5 49t29 29.5t35.5 14.5t37 4q48 0 75 -26t27 -68q0 -22 -3 -44.5t-3 -48.5q0 -46 10 -90t10 -89q0 -48 -25 -81.5t-77 -33.5q-27 0 -44.5 6.5t-30 18t-21.5 27t-18 33.5
q-12 24 -28.5 49.5t-47.5 46t-82 33.5t-132 13q-95 0 -166.5 -35.5t-119 -94.5t-71.5 -136t-24 -160q0 -64 22 -135t69.5 -131t121 -99t175.5 -39q38 0 80 9t83 27t78 44.5t64 61.5q17 21 45.5 39t58.5 16t50 -12.5t32 -26t16 -34t3 -35.5q-3 -43 -24 -78.5t-46 -63.5
q-46 -46 -101 -77t-114 -50t-119 -27t-116 -8q-135 0 -248.5 50.5t-195 136.5t-127 201.5t-45.5 244.5z" />
    <glyph glyph-name="y" unicode="y" horiz-adv-x="1457" 
d="M208 -222q0 16 6.5 36t21 37.5t37.5 29.5t56 12q15 0 29 -6.5t26 -17t22.5 -22.5l19.5 -22q30 -37 62 -59t66.5 -33.5t72.5 -15t80 -3.5q77 0 142.5 17.5t113.5 60t76.5 114t31.5 178.5q0 2 -0.5 4t-0.5 4q-27 -26 -61.5 -48t-77 -38t-93.5 -25.5t-112 -9.5
q-119 0 -227 32t-190 105t-130.5 189.5t-48.5 286.5q0 34 6 77.5t18 91.5t30.5 97t44.5 94q-5 -1 -9.5 -1h-9.5q-23 0 -42.5 9t-34 23t-22.5 31t-8 33q0 26 8 46.5t27.5 37t51.5 29t80 22.5q38 8 71.5 17.5t58.5 17.5q33 10 58.5 16.5t51.5 6.5q42 0 71.5 -27.5t29.5 -73.5
q0 -23 -8.5 -48.5t-36.5 -45.5q-28 -11 -55 -37t-51 -62t-44 -79t-34.5 -88.5t-22.5 -91.5t-8 -87q0 -114 30.5 -192.5t81.5 -127t118 -69.5t141 -21q130 0 213.5 40.5t132.5 123.5v23v608q-15 -5 -32 -10t-33.5 -9t-30.5 -6.5t-23 -2.5q-21 0 -41.5 5t-37 16.5t-27 30.5
t-10.5 48q0 48 25 77.5t81 38.5l155 44l-1 -1q21 11 48 17.5t42 6.5q11 0 29.5 -2t36 -12.5t30.5 -34.5t13 -67q0 -12 -1 -24t-3 -21v-4t-0.5 -27t-0.5 -72t-0.5 -139t-1.5 -228.5t-2 -340.5q0 -44 3 -88.5t3 -99.5q0 -167 -43.5 -277.5t-122 -175.5t-187.5 -91.5
t-239 -26.5q-94 0 -182 20.5t-156.5 57.5t-109.5 88t-41 111z" />
    <glyph glyph-name="g" unicode="g" horiz-adv-x="1507" 
d="M242 -255q0 23 7.5 46t21 41t33 29.5t42.5 11.5q17 0 41.5 -7t40.5 -20q25 -23 53.5 -46t64.5 -41t81.5 -29.5t106.5 -11.5q60 0 124.5 22t118 65t88 107t34.5 148q0 14 -1 30.5t-1 32.5q-26 -32 -61 -60t-82 -48.5t-108.5 -32t-140.5 -11.5q-129 0 -237 47.5t-186 132
t-122 199.5t-45 250q-2 144 43.5 260.5t126.5 199t191 127.5t239 45q137 0 237 -40t170 -117q5 16 13 31.5t20.5 27.5t29 19.5t39.5 7.5q34 0 55.5 -8.5t33.5 -23.5t16.5 -35.5t4.5 -44.5q0 -22 -4 -43.5t-4 -46.5q0 -113 -0.5 -215.5t-2.5 -203.5q-2 -100 -3 -212t-1 -225
q0 -131 -29 -225.5t-76.5 -161t-109 -107.5t-127 -64t-130.5 -31t-119 -8q-50 0 -105 8.5t-109 24.5t-103.5 38t-87 48.5t-59.5 57t-22 62.5zM338 600q0 -89 26.5 -165t75 -131.5t117.5 -86.5t155 -31q97 0 171 31t124 86.5t76 131.5t26 165q0 87 -22 165.5t-68.5 137
t-119 93t-172.5 34.5q-89 0 -160.5 -33.5t-122.5 -91.5t-78.5 -136.5t-27.5 -168.5z" />
    <glyph glyph-name="dieresis" unicode="&#xa8;" horiz-adv-x="1009" 
d="M241 1395q-19 0 -38.5 7.5t-35.5 21t-26.5 33.5t-10.5 44q0 32 16.5 69.5t42 69.5t55.5 53.5t57 21.5q23 0 44 -10.5t37.5 -27t26.5 -37t10 -40.5q0 -26 -18 -61.5t-45 -67.5t-58 -54t-57 -22zM664 1388q-18 0 -37.5 7.5t-35.5 21.5t-26 33.5t-10 43.5q0 31 19.5 68
t48.5 68t61.5 52t59.5 21q23 0 42.5 -10t34 -27t23 -38.5t8.5 -45.5v-1q0 -26 -19.5 -59.5t-48 -63t-61 -50t-59.5 -20.5z" />
    <glyph glyph-name="odieresis" unicode="&#xf6;" horiz-adv-x="1460" 
d="M109 0zM109 603q0 130 48.5 244.5t133 200t197.5 135t242 49.5q141 0 255.5 -49.5t196 -135t125.5 -200t44 -244.5q0 -95 -22.5 -179t-63.5 -154t-98.5 -125.5t-126.5 -94t-147.5 -59t-162.5 -20.5q-126 0 -239 45.5t-198 128t-134.5 199t-49.5 259.5zM340 603
q0 -95 27 -172t77.5 -131.5t122.5 -84t162 -29.5q80 0 151 27t124.5 79.5t85 130.5t31.5 180q0 84 -26.5 159.5t-76.5 131.5t-123 89t-166 33t-165 -33t-122 -89t-76 -131.5t-26 -159.5zM473 1395q-19 0 -38.5 7.5t-35.5 21t-26.5 33.5t-10.5 44q0 32 16.5 69.5t42 69.5
t55.5 53.5t57 21.5q23 0 44 -10.5t37.5 -27t26.5 -37t10 -40.5q0 -26 -18 -61.5t-45 -67.5t-58 -54t-57 -22zM896 1388q-18 0 -37.5 7.5t-35.5 21.5t-26 33.5t-10 43.5q0 31 19.5 68t48.5 68t61.5 52t59.5 21q23 0 42.5 -10t34 -27t23 -38.5t8.5 -45.5v-1q0 -26 -19.5 -59.5
t-48 -63t-61 -50t-59.5 -20.5z" />
    <glyph glyph-name="z" unicode="z" horiz-adv-x="1369" 
d="M179 111q0 33 4.5 59t24.5 45l188.5 218.5l188.5 210l168.5 192.5t128.5 167l-104 -3q-58 -2 -114.5 -3t-107.5 -2t-93 -1.5t-72 -0.5h-10q0 -28 4 -60.5t4 -65.5q0 -19 -8 -36.5t-22.5 -31t-35.5 -22t-47 -8.5q-20 0 -40 8t-36.5 22t-27 32.5t-10.5 39.5q0 29 2.5 49
t2.5 52q0 26 -2 44.5t-5 36t-5 37t-2 48.5q0 16 7 34.5t22 34t39 25.5t59 10q23 0 44.5 -8.5t38.5 -23.5q7 1 14.5 1.5t15.5 0.5h663q25 0 48.5 -6.5t41 -20.5t28 -37t10.5 -57t-27.5 -82.5t-63.5 -102.5q-63 -87 -144 -178l-167 -182.5l-170.5 -181t-153.5 -173.5
q92 0 176 1.5t153 4t118 6t70 7.5q15 2 33.5 9t40.5 13q14 42 26.5 85t31.5 87q14 31 49.5 43t99.5 -14q20 -9 37.5 -21.5t28.5 -28.5t14 -35.5t-6 -41.5q-11 -24 -21 -41.5l-20.5 -35l-21.5 -37t-23 -46.5q-5 -12 -9 -26t-9 -28q-4 -20 -12 -37l-15 -39q-8 -18 -22 -31
t-32.5 -20t-41 -6.5t-46.5 10.5q-22 10 -40 30l-667 -9q-54 0 -87 11.5t-52 29t-25.5 39t-6.5 41.5z" />
    <glyph glyph-name="k" unicode="k" horiz-adv-x="1488" 
d="M208 70q0 51 7 100t7 104q0 59 -0.5 152.5t-1.5 206.5t-2 239.5t-2.5 250.5l-3 239.5t-2.5 207.5q-28 -5 -72 -5q-18 0 -36.5 6t-34 18.5t-25 33.5t-9.5 51q0 53 28 80.5t67 27.5q15 0 30.5 -4t32.5 -4q40 0 79.5 4t83.5 4q42 0 68.5 -27.5t26.5 -75.5q-2 -27 -4 -50
t-4 -50t-4 -61t-2 -83q-2 -136 -3.5 -254.5t-2.5 -215.5q37 51 86.5 99.5t110 85.5t131.5 59.5t151 22.5q96 0 169 -25.5t121.5 -72t73 -113t24.5 -147.5q0 -67 -20.5 -123t-54 -101t-76.5 -79t-88 -56q43 -36 66.5 -82.5t37.5 -99.5l13 -45t17 -44.5t22.5 -34t27.5 -13.5
q27 0 53 9.5t55 9.5q44 0 73.5 -29.5t29.5 -83.5q0 -43 -22.5 -69t-57 -40.5t-75.5 -19t-79 -4.5q-70 0 -115 25t-74.5 65t-46.5 89t-31 97l-19.5 64.5t-23 53.5t-31.5 36.5t-45 13.5q-75 0 -113 23t-38 83q0 53 34.5 81t91.5 28q14 0 24.5 -1.5t21.5 -3.5q26 10 62 27.5
t69 45.5t56 67t23 93q0 93 -55.5 130t-154.5 37q-68 0 -134 -35t-122.5 -93t-100 -133.5t-67.5 -156.5l3 -129v-20.5t0.5 -38.5t1.5 -76.5t2 -133.5q15 4 31.5 9.5t33.5 5.5q55 0 83 -26.5t28 -77.5q0 -38 -15 -60.5t-38.5 -35t-51.5 -17.5t-54 -8q-35 -4 -70.5 -15
t-72.5 -11q-59 0 -80.5 25t-21.5 74z" />
    <glyph glyph-name="zero" unicode="0" horiz-adv-x="1461" 
d="M707 -30q-146 0 -257 66.5t-185.5 180.5t-112.5 266t-38 324q0 182 41.5 334t119 261.5t187 170t245.5 60.5q141 0 250 -60.5t183.5 -170t113 -261.5t38.5 -334q0 -172 -37.5 -324t-111 -266t-183 -180.5t-253.5 -66.5zM712 176q64 0 115 25t90.5 69.5t67.5 105t46 130.5
t26.5 146.5t8.5 154.5q0 124 -21 236.5t-64.5 198t-110.5 136t-158 50.5q-92 0 -161 -45t-116 -127t-70.5 -196.5t-23.5 -252.5q0 -77 9.5 -154t29 -147t49.5 -130.5t71 -105t94 -69.5t118 -25z" />
    <glyph glyph-name="asterisk" unicode="*" horiz-adv-x="1184" 
d="M352 1105q-53 0 -82.5 23.5t-29.5 85.5q0 35 15.5 64t38.5 54.5t49 49.5t48 49l-49 18.5l-46 17t-36 13.5t-21 8q-21 7 -39 16t-31.5 22.5t-21.5 33t-8 48.5q0 22 10 38.5t25.5 28t34.5 17.5t38 6q23 0 77 -19.5t135 -58.5q0 40 -3.5 80.5t-3.5 84.5q0 28 10 51t26.5 39
t38 24.5t44.5 8.5q55 0 79 -33t24 -90q0 -20 -0.5 -37t-1.5 -36t-2.5 -42t-4.5 -55q26 9 43.5 16l29.5 12t20 9t15 7q35 16 68.5 29.5t66.5 13.5q44 0 74 -23.5t30 -73.5q0 -25 -12 -45.5t-29 -36t-36 -26t-32 -15.5l-96.5 -31.5l-52.5 -17.5t-24.5 -8.5l-11.5 -4.5
q19 -28 41 -54t41.5 -53.5t33.5 -59t16 -70.5q0 -30 -11.5 -49t-29 -30.5t-36.5 -15.5t-34 -4q-25 0 -46.5 15t-40.5 39.5t-36 54.5l-33 60q-8 15 -14.5 28.5t-17.5 29.5l-18.5 -33.5t-24 -41.5t-31 -45t-38.5 -44q-6 -8 -17 -15.5t-23.5 -13.5t-25 -9.5t-21.5 -3.5z" />
    <glyph glyph-name="eight" unicode="8" horiz-adv-x="1522" 
d="M156 468q0 71 25 131t68 108t101.5 84t125.5 60q-49 28 -91.5 64.5t-74 82t-49.5 101t-18 120.5q0 99 37.5 176.5t104.5 130t159 80t201 27.5t199.5 -26.5t156 -79t101.5 -130.5t36 -181q0 -55 -17 -109t-46.5 -102.5t-70 -90.5t-88.5 -74q79 -34 140.5 -70.5
t102.5 -80.5t62.5 -98t21.5 -123q0 -119 -49 -211.5t-131.5 -156.5t-189.5 -97.5t-224 -33.5q-109 0 -215.5 33.5t-190.5 97.5t-135.5 157t-51.5 211zM766 935q51 13 96 40.5t78 65t52 83t19 93.5q0 59 -23 99.5t-60 66t-85 37t-97 11.5q-48 0 -97.5 -10t-89 -34t-64.5 -65
t-25 -104q0 -49 26 -91.5t68 -77.5t95 -63.5t107 -50.5zM393 480q0 -70 29 -126t77.5 -95t112 -60t132.5 -21q73 0 140.5 16.5t119.5 51.5t83.5 88.5t31.5 127.5q0 35 -18.5 65t-50 55.5t-73 47.5t-88 40.5t-95 34l-93.5 29.5q-60 -12 -116 -32.5t-98.5 -51.5t-68 -73
t-25.5 -97z" />
    <glyph glyph-name="three" unicode="3" horiz-adv-x="1687" 
d="M204 472q0 40 4 85.5t18.5 83t41.5 62.5t72 25q19 0 40 -5t39 -17.5t29.5 -34t11.5 -54.5q0 -40 -10.5 -79t-10.5 -82q0 -57 32.5 -109t88.5 -91t132 -62t162 -23q73 0 142 19.5t122.5 58.5t86 97.5t32.5 135.5q0 78 -26 133t-69.5 89t-100 49.5t-117.5 15.5
q-21 0 -41 -4t-40 -8.5t-40.5 -8.5t-42.5 -4q-28 0 -48 9.5t-32.5 25t-18 36t-5.5 42.5q0 9 4.5 22.5t11.5 28t15.5 28t16.5 21.5q26 26 57 63l64 80l66.5 89l63.5 88.5l55.5 79.5l42.5 62h-618q-30 0 -53.5 9t-39 23.5t-23.5 33.5t-8 40q0 18 6.5 37t20.5 35t35 26t50 10
h849q51 0 81.5 -24t30.5 -71t-28 -82q-13 -16 -39.5 -52l-60.5 -82l-74 -99l-80 -104l-77.5 -95t-67.5 -73q108 8 203 -21t165.5 -89t111.5 -148.5t41 -199.5q0 -126 -50.5 -223.5t-137 -164t-200 -101.5t-239.5 -35q-85 0 -166 15.5t-153 45t-132 73t-103.5 99t-68 123.5
t-24.5 147z" />
    <glyph glyph-name="six" unicode="6" horiz-adv-x="1523" 
d="M125 702q0 131 20.5 251.5t60 225.5t98.5 191.5t136.5 148t172.5 95t208 33.5q90 0 167 -12.5t139 -45.5q32 -18 47.5 -41.5t15.5 -61.5q0 -26 -9.5 -45.5t-25 -32.5t-35 -19t-38.5 -6q-23 0 -38.5 4t-27.5 9.5t-21 11.5t-18 11q-17 9 -56 13.5t-116 4.5
q-83 0 -154.5 -35t-127.5 -99t-95 -152.5t-58 -196.5q43 44 97.5 76.5t111.5 54t112.5 32t99.5 10.5q130 0 234.5 -37t177.5 -109t112.5 -178.5t39.5 -246.5q0 -63 -15.5 -131t-47 -133.5t-79.5 -124t-113.5 -102.5t-149 -70t-184.5 -26q-117 0 -210 28.5t-164.5 79.5
t-122 120.5t-82.5 150.5t-47 171.5t-15 182.5zM361 588q0 -79 26.5 -154t77 -133.5t124.5 -94t170 -35.5q61 0 127 22t121 69t91 120t36 175t-29.5 173.5t-78 116.5t-110 65.5t-125.5 20.5q-56 0 -120.5 -15t-124.5 -46t-109.5 -79.5t-75.5 -114.5v-90z" />
    <glyph glyph-name="nine" unicode="9" horiz-adv-x="1518" 
d="M314 141q0 27 9.5 46.5t25 32t34.5 18t39 5.5q43 0 68.5 -11.5t46.5 -24.5q13 -8 24 -13t27.5 -8t43 -4.5t70.5 -1.5q85 0 156.5 36.5t126 100.5t90 151.5t49.5 188.5q-43 -48 -97 -80t-110.5 -50.5t-111 -26t-98.5 -7.5q-119 0 -225 36.5t-185.5 109.5t-125.5 180.5
t-46 250.5q0 106 36.5 207t110.5 180t187 127.5t265 48.5q117 0 210 -26.5t164 -74.5t122 -114t83 -145t47 -167.5t15 -180.5q0 -113 -15.5 -227.5t-49.5 -221t-87 -198.5t-127.5 -160.5t-171.5 -108t-219 -39.5q-29 0 -68.5 3t-81.5 10t-83.5 19.5t-74.5 31.5t-53 45.5
t-20 61.5zM707 697q56 0 119.5 17.5t122 51.5t106.5 84.5t74 116.5v72q0 79 -27 151t-78.5 126.5t-126 87t-169.5 32.5q-68 0 -136.5 -20t-123 -62t-88.5 -107t-34 -155q0 -80 15 -140.5t41 -104.5t61 -73t75 -46t83 -24t86 -7z" />
    <glyph glyph-name="period" unicode="." horiz-adv-x="588" 
d="M169 98q0 26 4.5 65t18.5 75t40 62t69 26t66.5 -19t34.5 -44.5t13.5 -51.5t2.5 -41v-6q0 -45 -6 -80t-20.5 -59t-38.5 -37t-60 -13q-34 0 -57.5 10.5t-38.5 27.5t-21.5 39t-6.5 46z" />
    <glyph glyph-name="periodcentered" unicode="&#xb7;" horiz-adv-x="844" 
d="M416 633q-34 0 -60 16.5t-44 40.5t-27.5 51t-9.5 49q0 38 9 70t27 55t46 36t66 13q22 0 46 -10t43.5 -29t32 -47.5t12.5 -65.5q0 -21 -6.5 -51.5t-22 -59t-43 -48.5t-69.5 -20z" />
    <glyph glyph-name="colon" unicode=":" horiz-adv-x="588" 
d="M169 0zM169 98q0 26 4.5 65t18.5 75t40 62t69 26t66.5 -19t34.5 -44.5t13.5 -51.5t2.5 -41v-6q0 -45 -6 -80t-20.5 -59t-38.5 -37t-60 -13q-34 0 -57.5 10.5t-38.5 27.5t-21.5 39t-6.5 46zM169 775q0 26 4.5 65t18.5 75t40 62t69 26t66.5 -19t34.5 -44.5t13.5 -51.5
t2.5 -41v-6q0 -45 -6 -80t-20.5 -59t-38.5 -37t-60 -13q-34 0 -57.5 10.5t-38.5 27.5t-21.5 39t-6.5 46z" />
    <glyph glyph-name="exclam" unicode="!" horiz-adv-x="624" 
d="M317 505q-21 0 -40 6t-33.5 19t-23.5 31.5t-9 44.5q0 23 3 45.5t3 47.5q0 135 -4 270t-8.5 271.5t-8 275t-3.5 279.5q0 21 7 40t22 33.5t39.5 23t59.5 8.5q21 0 41.5 -6t37 -19t27 -34t10.5 -52q0 -44 -1 -115.5t-2 -161t-3 -192.5t-3 -210l-2 -213t-1 -201q0 -22 4 -44
t4 -51q0 -47 -32 -71.5t-84 -24.5zM188 86q1 55 7 95.5t19.5 67t36.5 39.5t58 13q51 0 87 -29t36 -86q0 -52 -10.5 -92.5t-28.5 -68t-42 -42t-52 -14.5q-27 0 -48 12t-35 29.5t-21 38t-7 37.5z" />
    <glyph glyph-name="exclamdown" unicode="&#xa1;" horiz-adv-x="624" 
d="M187 0zM307.02 1042.03q20.998 0 39.9971 -6t33.498 -18.999t23.499 -31.498q8.99902 -18.499 8.99902 -44.4971q0 -22.999 -3 -45.4971q-2.99902 -22.499 -2.99902 -47.4971q0 -134.992 3.99902 -269.983q4 -134.992 8.5 -271.483q4.49902 -136.492 7.99902 -274.983
q3.5 -138.492 3.5 -279.483q0 -20.998 -7 -39.9971q-6.99902 -18.999 -21.998 -33.498t-39.498 -22.999q-24.498 -8.49902 -59.4961 -8.49902q-20.999 0 -41.4971 5.99902q-20.499 6 -36.998 18.999t-26.998 33.998q-10.5 20.999 -10.5 51.9971q0 43.9971 1 115.493
q1 71.4951 2 160.989q1 89.4951 3 192.488q2 102.994 3 209.987l2 212.987t1 200.988q0 21.998 -4 43.9971q-4 21.998 -4 50.9971q0 46.9971 31.998 71.4951q31.998 24.499 83.9951 24.499zM436.012 1461q-1 -54.9961 -7 -95.4941q-5.99902 -40.4971 -19.499 -66.9951
q-13.499 -26.499 -36.4971 -39.498q-22.999 -12.999 -57.9971 -12.999q-50.9971 0 -86.9941 28.998q-35.998 28.998 -35.998 85.9951q0 51.9961 10.499 92.4941q10.5 40.4971 28.499 67.9961q17.998 27.498 41.9971 41.9971q23.998 14.499 51.9971 14.499
q26.998 0 47.9971 -11.999q20.998 -11.999 34.998 -29.498q13.999 -17.499 20.998 -37.998q7 -20.499 7 -37.498z" />
    <glyph glyph-name="comma" unicode="," horiz-adv-x="588" 
d="M150 -98q20 30 28.5 57.5t15.5 53.5q-5 10 -9.5 25.5t-7.5 31.5t-4.5 31t-1.5 25q0 30 6 61t22 56.5t42 42t67 16.5t67 -14.5t41 -39t20.5 -57t5.5 -68.5q0 -29 -7.5 -66t-20 -76t-30.5 -78.5t-39 -73.5q-8 -12 -21 -27.5t-30 -29t-36.5 -23t-40.5 -9.5q-46 0 -70 28
t-24 67q0 20 9.5 36.5z" />
    <glyph glyph-name="semicolon" unicode=";" horiz-adv-x="588" 
d="M123 0zM167 775q0 26 4.5 65t18.5 75t40 62t69 26t66.5 -19t34.5 -44.5t13.5 -51.5t2.5 -41v-6q0 -45 -6 -80t-20.5 -59t-38.5 -37t-60 -13q-34 0 -57.5 10.5t-38.5 27.5t-21.5 39t-6.5 46zM150 -98q20 30 28.5 57.5t15.5 53.5q-5 10 -9.5 25.5t-7.5 31.5t-4.5 31
t-1.5 25q0 30 6 61t22 56.5t42 42t67 16.5t67 -14.5t41 -39t20.5 -57t5.5 -68.5q0 -29 -7.5 -66t-20 -76t-30.5 -78.5t-39 -73.5q-8 -12 -21 -27.5t-30 -29t-36.5 -23t-40.5 -9.5q-46 0 -70 28t-24 67q0 20 9.5 36.5z" />
    <glyph glyph-name="question" unicode="?" horiz-adv-x="1354" 
d="M645 420q-67 0 -91.5 54.5t-24.5 152.5q0 57 19.5 109t51 99t70.5 88.5t79 76.5q41 36 87 72.5t84.5 76t64 83t25.5 94.5q0 63 -26.5 108.5t-73 74.5t-110.5 42.5t-139 13.5t-135 -9.5t-102 -29.5t-64.5 -50.5t-22.5 -73.5q0 -24 8 -42t22 -41l21.5 -40t10.5 -46
q0 -24 -8.5 -43t-23.5 -31.5t-34.5 -19.5t-41.5 -7q-39 0 -72 27.5t-56.5 68t-37 86.5t-13.5 84q0 92 41 163t114 119.5t173.5 73.5t218.5 25q120 0 225 -28.5t183 -85.5t123 -141.5t45 -195.5q0 -60 -19 -116.5t-52.5 -108t-78.5 -98t-97 -85.5l-77.5 -58t-77 -65t-59 -76
t-23.5 -92q0 -22 1.5 -44.5t1.5 -50.5t-9 -49.5t-24 -35.5t-35 -21.5t-41 -7.5zM501 85q1 61 7.5 102.5t22 66t41.5 35t67 10.5q34 0 55 -12t31.5 -29.5t14 -37t3.5 -33.5q0 -105 -37 -162t-94 -57q-27 0 -48 12t-35 29.5t-21 38t-7 37.5z" />
    <glyph glyph-name="questiondown" unicode="&#xbf;" horiz-adv-x="1354" 
d="M119 0zM709.039 1121.03q66.9961 0 91.4951 -54.4961q24.498 -54.4971 24.498 -152.491q0 -56.9961 -19.499 -108.993q-19.498 -51.9971 -50.9961 -98.9941q-31.499 -46.9971 -70.4961 -88.4941q-38.998 -41.498 -78.9951 -76.4961q-40.998 -35.9971 -86.9951 -72.4951
t-84.4941 -75.9951q-38.498 -39.498 -63.9961 -82.9951q-25.499 -43.4971 -25.499 -94.4941q0 -62.9961 26.499 -108.493q26.498 -45.498 72.9951 -74.4961t110.493 -42.4971t138.991 -13.499q74.9961 0 134.992 9.49902q59.9961 9.5 101.993 29.498
q41.998 19.999 64.4961 50.4971q22.499 30.498 22.499 73.4961q0 23.998 -7.99902 41.9971q-8 17.999 -21.999 40.9971l-21.499 39.998q-10.499 19.999 -10.499 45.9971q0 23.999 8.49902 42.9971q8.5 18.999 23.499 31.498q14.999 12.5 34.498 19.499q19.499 7 41.4971 7
q38.998 0 71.9961 -27.499q32.998 -27.498 56.4961 -67.9951q23.499 -40.498 36.998 -86.4951t13.499 -83.9951q0 -91.9941 -40.9971 -162.989q-40.998 -70.9961 -113.993 -119.493q-72.9961 -48.4971 -173.489 -73.4951q-100.494 -24.999 -218.487 -24.999
q-119.992 0 -224.986 28.498q-104.993 28.499 -182.988 85.4951t-122.993 141.491q-44.9971 84.4951 -44.9971 195.488q0 59.9961 18.999 116.493q18.999 56.4961 52.4971 107.993t78.4951 97.9941t96.9941 85.4951l77.4951 57.9961t76.9951 64.9961t58.9961 75.9951
q23.499 40.9971 23.499 91.9941q0 21.999 -1.5 44.4971q-1.5 22.499 -1.5 50.4971q0 27.999 9 49.4971q8.99902 21.499 23.998 35.498t34.998 21.499q19.999 7.49902 40.9971 7.49902zM853.03 1456q-1 -60.9961 -7.49902 -102.493q-6.5 -41.498 -21.999 -65.9961
q-15.499 -24.499 -41.4971 -34.998q-25.999 -10.499 -66.9961 -10.499q-33.998 0 -54.9971 11.999q-20.998 11.999 -31.498 29.498q-10.499 17.499 -13.999 36.998q-3.5 19.498 -3.5 33.498q0 104.993 36.998 161.99q36.998 56.9961 93.9941 56.9961
q26.999 0 47.9971 -11.999q20.999 -11.999 34.998 -29.498t20.999 -37.998q6.99902 -20.499 6.99902 -37.498z" />
    <glyph glyph-name="guilsinglleft" unicode="&#x2039;" horiz-adv-x="1200" 
d="M263 513q-14 6 -23.5 19.5t-15.5 31t-9 36t-3 34.5q0 25 5.5 42t16 28.5t26.5 19.5t38 14l82.5 39.5l104.5 51.5l139 71l187 97h-2q6 6 16.5 13t24 14t29.5 11.5t31 4.5q18 0 36.5 -8t32.5 -22.5t23 -33.5t9 -40q0 -27 -7 -47.5t-19 -35.5t-28 -25.5t-33 -17.5
q-44 -18 -87 -38.5l-90 -45l-99.5 -53.5l-115.5 -63l377 -213q11 -2 28.5 -10t34 -22t28.5 -35t12 -50q0 -20 -6.5 -40t-19 -36t-32 -25.5t-45.5 -9.5q-34 0 -55.5 10t-41.5 23h1q-73 35 -141 74.5l-135 80l-134.5 80.5t-139.5 76z" />
    <glyph glyph-name="guilsinglright" unicode="&#x203a;" horiz-adv-x="1200" 
d="M188 169zM937.016 513q14 6 23.499 19.5t15.499 31t8.99902 36q3 18.5 3 34.5q0 25 -5.49902 42q-5.5 17 -15.999 28.5q-10.5 11.5 -26.499 19.5t-37.9971 14l-82.4951 39.5l-104.494 51.5l-138.991 71l-186.988 97h2q-6 6 -16.499 13q-10.5 7 -23.999 14t-29.498 11.5
t-30.998 4.5q-17.999 0 -36.498 -8t-32.498 -22.5t-22.998 -33.5q-9 -19 -9 -40q0 -27 7 -47.5q6.99902 -20.5 18.999 -35.5q11.999 -15 27.998 -25.5t32.998 -17.5q43.9971 -18 86.9941 -38.5l89.9951 -45l99.4932 -53.5l115.493 -63l-376.977 -213q-10.999 -2 -28.498 -10
t-33.998 -22t-28.499 -35q-11.999 -21 -11.999 -50q0 -20 6.5 -40q6.49902 -20 18.999 -36q12.499 -16 31.998 -25.5q19.498 -9.5 45.4971 -9.5q33.998 0 55.4961 10q21.499 10 41.498 23h-1q72.9951 35 140.991 74.5l134.992 80l134.491 80.5t139.491 76z" />
    <glyph glyph-name="guillemotleft" unicode="&#xab;" horiz-adv-x="2032" 
d="M212 169zM263 513q-14 6 -23.5 19.5t-15.5 31t-9 36t-3 34.5q0 25 5.5 42t16 28.5t26.5 19.5t38 14l82.5 39.5l104.5 51.5l139 71l187 97h-2q6 6 16.5 13t24 14t29.5 11.5t31 4.5q18 0 36.5 -8t32.5 -22.5t23 -33.5t9 -40q0 -27 -7 -47.5t-19 -35.5t-28 -25.5t-33 -17.5
q-44 -18 -87 -38.5l-90 -45l-99.5 -53.5l-115.5 -63l377 -213q11 -2 28.5 -10t34 -22t28.5 -35t12 -50q0 -20 -6.5 -40t-19 -36t-32 -25.5t-45.5 -9.5q-34 0 -55.5 10t-41.5 23h1q-73 35 -141 74.5l-135 80l-134.5 80.5t-139.5 76zM1096 513q-14 6 -23.5 19.5t-15.5 31
t-9 36t-3 34.5q0 25 5.5 42t16 28.5t26.5 19.5t38 14l82.5 39.5l104.5 51.5l139 71l187 97h-2q6 6 16.5 13t24 14t29.5 11.5t31 4.5q18 0 36.5 -8t32.5 -22.5t23 -33.5t9 -40q0 -27 -7 -47.5t-19 -35.5t-28 -25.5t-33 -17.5q-44 -18 -87 -38.5l-90 -45l-99.5 -53.5
l-115.5 -63l377 -213q11 -2 28.5 -10t34 -22t28.5 -35t12 -50q0 -20 -6.5 -40t-19 -36t-32 -25.5t-45.5 -9.5q-34 0 -55.5 10t-41.5 23h1q-73 35 -141 74.5l-135 80l-134.5 80.5t-139.5 76z" />
    <glyph glyph-name="guillemotright" unicode="&#xbb;" horiz-adv-x="2028" 
d="M188 169zM937.016 513q14 6 23.499 19.5t15.499 31t8.99902 36q3 18.5 3 34.5q0 25 -5.49902 42q-5.5 17 -15.999 28.5q-10.5 11.5 -26.499 19.5t-37.9971 14l-82.4951 39.5l-104.494 51.5l-138.991 71l-186.988 97h2q-6 6 -16.499 13q-10.5 7 -23.999 14t-29.498 11.5
t-30.998 4.5q-17.999 0 -36.498 -8t-32.498 -22.5t-22.998 -33.5q-9 -19 -9 -40q0 -27 7 -47.5q6.99902 -20.5 18.999 -35.5q11.999 -15 27.998 -25.5t32.998 -17.5q43.9971 -18 86.9941 -38.5l89.9951 -45l99.4932 -53.5l115.493 -63l-376.977 -213q-10.999 -2 -28.498 -10
t-33.998 -22t-28.499 -35q-11.999 -21 -11.999 -50q0 -20 6.5 -40q6.49902 -20 18.999 -36q12.499 -16 31.998 -25.5q19.498 -9.5 45.4971 -9.5q33.998 0 55.4961 10q21.499 10 41.498 23h-1q72.9951 35 140.991 74.5l134.992 80l134.491 80.5t139.491 76zM1765.02 513
q14 6 23.499 19.5t15.499 31t9 36q2.99902 18.5 2.99902 34.5q0 25 -5.49902 42q-5.5 17 -15.999 28.5q-10.5 11.5 -26.499 19.5t-37.9971 14l-82.4951 39.5l-104.494 51.5l-138.991 71l-186.988 97h1.99902q-5.99902 6 -16.498 13q-10.5 7 -23.999 14t-29.498 11.5
t-30.998 4.5q-17.999 0 -36.498 -8t-32.498 -22.5t-22.998 -33.5q-9 -19 -9 -40q0 -27 7 -47.5q6.99902 -20.5 18.999 -35.5q11.999 -15 27.998 -25.5t32.998 -17.5q43.9971 -18 86.9941 -38.5l89.9951 -45l99.4932 -53.5l115.493 -63l-376.977 -213q-10.999 -2 -28.498 -10
t-33.998 -22t-28.499 -35q-11.999 -21 -11.999 -50q0 -20 6.5 -40q6.49902 -20 18.999 -36q12.499 -16 31.998 -25.5q19.498 -9.5 45.4971 -9.5q33.998 0 55.4961 10q21.499 10 41.498 23h-1q72.9951 35 140.991 74.5l134.992 80l134.491 80.5t139.491 76z" />
    <glyph glyph-name="underscore" unicode="_" horiz-adv-x="1348" 
d="M1348 -158q26 0 54.5 -1.5t52 -10.5t39 -28.5t15.5 -54.5q0 -94 -161 -94h-1348q-78 0 -123 20t-45 70q0 28 7.5 47.5t27 30.5t51.5 16t82 5h1348z" />
    <glyph glyph-name="plus" unicode="+" horiz-adv-x="1184" 
d="M461 358v80.5t1 87.5q0 16 0.5 35.5t0.5 51.5l-259 3q-18 0 -35.5 5t-31.5 19t-23 38.5t-9 63.5q0 31 10 48.5t29 26.5t45 11.5t58 2.5l218 -1l3 269q0 18 3 35.5t15 31.5t35.5 23t64.5 9q30 0 49 -10.5t30.5 -29.5t15.5 -45.5t4 -59.5v-72q-1 -42 -1 -79.5v-71.5h184
l71 11q13 0 31 -5t34.5 -18t27.5 -35t11 -56q0 -54 -26.5 -86t-71.5 -32h-78t-86 1q-17 0 -39 0.5t-59 0.5q-1 -69 -0.5 -109t0.5 -66l13 -72q0 -14 -5.5 -31.5t-18.5 -33t-35.5 -26.5t-56.5 -11q-54 0 -86.5 26t-32.5 70z" />
    <glyph glyph-name="quotesingle" unicode="'" horiz-adv-x="546" 
d="M275 1066q-20 0 -40 6t-36.5 19t-27 31.5t-10.5 44.5q0 36 2.5 72t2.5 78q0 33 -2 65t-5 64q-3 33 -5.5 66.5t-2.5 69.5q0 21 7 40t22 33.5t39 23t59 8.5q22 0 43 -5.5t37.5 -18.5t26.5 -34t10 -51q0 -35 -2.5 -68t-5.5 -66q-3 -32 -5 -65t-2 -67q0 -35 4 -71t4 -79
q0 -47 -30 -71.5t-83 -24.5z" />
    <glyph glyph-name="quotedbl" unicode="&#x22;" horiz-adv-x="967" 
d="M151 1066zM275 1066q-20 0 -40 6t-36.5 19t-27 31.5t-10.5 44.5q0 36 2.5 72t2.5 78q0 33 -2 65t-5 64q-3 33 -5.5 66.5t-2.5 69.5q0 21 7 40t22 33.5t39 23t59 8.5q22 0 43 -5.5t37.5 -18.5t26.5 -34t10 -51q0 -35 -2.5 -68t-5.5 -66q-3 -32 -5 -65t-2 -67q0 -35 4 -71
t4 -79q0 -47 -30 -71.5t-83 -24.5zM696 1066q-20 0 -40 6t-36.5 19t-27 31.5t-10.5 44.5q0 36 2.5 72t2.5 78q0 33 -2 65t-5 64q-3 33 -5.5 66.5t-2.5 69.5q0 21 7 40t22 33.5t39 23t59 8.5q22 0 43 -5.5t37.5 -18.5t26.5 -34t10 -51q0 -35 -2.5 -68t-5.5 -66q-3 -32 -5 -65
t-2 -67q0 -35 4 -71t4 -79q0 -47 -30 -71.5t-83 -24.5z" />
    <glyph glyph-name="less" unicode="&#x3c;" horiz-adv-x="1184" 
d="M193 502q-14 6 -24 19.5t-16 30.5t-8.5 35.5t-2.5 34.5q0 26 5.5 43.5t16.5 29t28 19.5t40 14q126 52 251 113t264 122q7 6 18.5 13t24.5 13t27 10.5t26 4.5q19 0 37 -11.5t32 -29.5t23 -40.5t9 -43.5q0 -26 -6.5 -42t-17.5 -27t-26 -18.5t-31 -14.5v1l-388 -181
l370 -176q11 -2 28.5 -8t34 -18.5t28 -32t11.5 -48.5q0 -20 -6.5 -41.5t-19 -39t-32 -28.5t-45.5 -11q-29 0 -51.5 10t-40.5 21q-22 12 -64.5 33.5l-95 48.5l-111 56l-113.5 56l-101 49t-74 34z" />
    <glyph glyph-name="greater" unicode="&#x3e;" horiz-adv-x="1184" 
d="M229 186zM983.012 494q13.999 6 23.999 19.5q9.99902 13.5 15.999 30.5q5.99902 17 8.49902 35.5t2.5 34.5q0 26 -5.5 43.5q-5.49902 17.5 -16.499 29q-10.999 11.5 -27.998 19.5t-39.998 14q-125.992 52 -250.984 113t-263.983 122q-7 6 -18.499 13t-24.499 13
q-12.999 6 -26.998 10.5t-25.998 4.5q-18.999 0 -36.998 -11.5t-31.998 -29.5t-22.999 -40.5q-8.99902 -22.5 -8.99902 -43.5q0 -26 6.5 -42q6.49902 -16 17.499 -27q10.999 -11 25.998 -18.5t30.998 -14.5v1l387.977 -181l-369.978 -176q-10.999 -2 -28.498 -8
t-33.998 -18.5t-27.999 -32q-11.499 -19.5 -11.499 -48.5q0 -20 6.5 -41.5q6.49902 -21.5 18.999 -39q12.499 -17.5 31.998 -28.5q19.498 -11 45.4971 -11q28.998 0 51.4971 10q22.498 10 40.4971 21q21.999 12 64.4961 33.5l94.9941 48.5l110.993 56l113.493 56l100.994 49
t73.9951 34z" />
    <glyph glyph-name="hyphen" unicode="-" horiz-adv-x="1184" 
d="M204 616q-18 0 -35.5 5t-31.5 19t-23 38.5t-9 63.5q0 31 10 48.5t29 26.5t45 11.5t58 2.5l621 -1q14 5 31 8t40 3q19 0 37.5 -5t33.5 -18t24 -35t9 -56q0 -54 -26.5 -86t-71.5 -32q-25 0 -55 0.5t-70 0.5h-41t-51 0.5t-72.5 1t-104.5 1t-147 1.5t-200 2z" />
    <glyph glyph-name="plusminus" unicode="&#xb1;" horiz-adv-x="1184" 
d="M153 128q0 31 10.5 48.5t30 26.5t47 11.5t60.5 2.5h196q-36 27 -36 72v80.5t1 87.5q0 16 0.5 35.5t0.5 51.5l-259 3q-18 0 -35.5 5t-31.5 19t-23 38.5t-9 63.5q0 31 10 48.5t29 26.5t45 11.5t58 2.5l218 -1l3 269q0 18 3 35.5t15 31.5t35.5 23t64.5 9q30 0 49 -10.5
t30.5 -29.5t15.5 -45.5t4 -59.5v-72q-1 -42 -1 -79.5v-71.5h184l71 11q13 0 31 -5t34.5 -18t27.5 -35t11 -56q0 -54 -26.5 -86t-71.5 -32h-78t-86 1q-17 0 -39 0.5t-59 0.5q-1 -69 -0.5 -109t0.5 -66l13 -72q0 -17 -8.5 -40t-31.5 -40q45 -1 86.5 -0.5t78.5 0.5q7 0 14.5 2
l15.5 4q9 2 19 4t21 2q14 0 32 -5t34 -18t27 -35.5t11 -56.5q0 -54 -26.5 -83t-71.5 -29h-645q-18 0 -35.5 5t-31.5 19.5t-23 39.5t-9 64z" />
    <glyph glyph-name="equal" unicode="=" horiz-adv-x="1184" 
d="M204 830q-18 0 -35.5 5t-31.5 18.5t-23 38.5t-9 64q0 31 10 48.5t29 26.5t45 11t58 2l621 -1q7 0 15 2l16 4q9 2 19 4t21 2q13 0 31 -5t34.5 -18t27.5 -35.5t11 -56.5q0 -54 -26.5 -85.5t-71.5 -31.5q-25 0 -55 0.5t-70 0.5zM204 331q-18 0 -35.5 5t-31.5 18.5t-23 38.5
t-9 64q0 31 10 48.5t29 26.5t45 11t58 2l621 -1q7 0 15 2l16 4q9 2 19 4t21 2q13 0 31 -5t34.5 -18t27.5 -35t11 -56q0 -54 -26.5 -86t-71.5 -32q-25 0 -55 0.5t-70 0.5z" />
    <glyph glyph-name="thorn" unicode="&#xfe;" horiz-adv-x="1504" 
d="M202 -241v415.5t-0.5 409.5l-1 420.5t-1.5 449.5q-19 0 -38 -4t-39 -4q-18 0 -37.5 5.5t-36 18.5t-27.5 33.5t-11 50.5q0 54 24.5 81t63.5 27q18 0 35.5 -4t35.5 -4q37 0 73.5 3t78.5 5q44 0 69.5 -27.5t25.5 -77.5q0 -14 -2 -26t-7 -30q0 -109 -2 -219.5t-7 -228.5
q74 90 178 134.5t227 44.5q129 0 236 -43.5t184 -124.5t119.5 -196t42.5 -258q0 -135 -42.5 -252.5t-119 -203.5t-183 -135.5t-235.5 -49.5q-53 0 -109 11t-108 30t-97 45.5t-75 58.5v-33t0.5 -47.5t0.5 -81v-132.5q0 -42 -3.5 -73.5t-15.5 -52t-34.5 -31t-59.5 -10.5
q-43 0 -72.5 26.5t-29.5 79.5zM412 600q0 -101 33.5 -179t88.5 -131.5t124 -81.5t140 -28q83 0 147.5 32.5t108.5 89.5t66.5 136t22.5 172q0 79 -23.5 153t-68.5 130.5t-111.5 90.5t-152.5 34q-75 0 -143 -31t-119.5 -86.5t-82 -132.5t-30.5 -168z" />
    <glyph glyph-name="Eth" unicode="&#xd0;" horiz-adv-x="1626" 
d="M224 117q0 46 4 90t4 103v188.5t-1 190.5h-42q-18 0 -35.5 2.5t-31.5 13t-23 33t-9 63.5q0 31 10 49t28 27.5t44 12.5t58 3q-3 245 -9 490q-11 21 -19.5 46t-8.5 43q0 43 23.5 72.5t80.5 29.5q29 0 57 -7.5t60 -7.5q70 0 139 7.5t141 7.5q147 0 263.5 -28.5t204.5 -79
t150 -120t100.5 -152t56.5 -175t18 -187.5q0 -85 -17.5 -181.5t-57.5 -191t-104 -181t-158 -152.5t-219.5 -105.5t-287.5 -39.5q-38 0 -75.5 3.5t-75.5 8t-76.5 8t-78.5 3.5q-61 0 -87 28t-26 85zM447 220q21 -6 50.5 -9.5t59.5 -5.5t56.5 -2.5t41.5 -0.5q124 0 217 31
t159.5 81t110.5 113t69.5 127t35.5 123t10 101q0 166 -39.5 276.5t-116 176.5t-188 93t-256.5 27q-19 0 -46.5 -1l-57.5 -2t-59.5 -3t-52.5 -3l2 -449q74 0 120 -0.5t72.5 -0.5h37.5h16q17 0 34.5 5.5t36.5 5.5q14 0 32 -5.5t34.5 -18.5t27.5 -36t11 -57q0 -57 -26.5 -81
t-71.5 -24q-81 0 -161 1t-162 3z" />
    <glyph glyph-name="Thorn" unicode="&#xde;" horiz-adv-x="1488" 
d="M204 89q0 51 7.5 101.5t7.5 104.5q0 257 -4.5 517t-4.5 534q0 29 -6 58.5t-6 59.5q0 26 7 46t24.5 33.5t46.5 20.5t74 7q46 0 71.5 -29t25.5 -76q0 -27 -3.5 -55t-5.5 -57q0 -5 -0.5 -11t-0.5 -11h21q44 0 88 1.5t96 1.5q156 0 284 -29.5t219.5 -94t142 -165.5t50.5 -243
q0 -128 -34 -220.5t-92 -155.5t-136.5 -101t-167.5 -58t-184.5 -26.5t-187.5 -6.5h-87q2 -25 3 -44t3 -34q3 -14 3.5 -31t0.5 -37q0 -23 -5 -42t-18.5 -33t-36.5 -22t-58 -8q-39 0 -65.5 6.5t-42.5 19.5t-22.5 33t-6.5 46zM441 444q44 -2 83.5 -3t50.5 -1q167 0 271 22.5
t162.5 68.5t79 116t20.5 165q0 77 -23.5 131.5t-62 90t-87.5 56t-100.5 30.5t-101 12.5t-87.5 2.5q-51 0 -102.5 -1l-107.5 -2v-185q0 -170 1.5 -293t3.5 -210z" />
    <glyph glyph-name="yen" unicode="&#xa5;" horiz-adv-x="1525" 
d="M290 337q0 23 9 40t23.5 28.5t31 16.5t31.5 4q31 -2 103.5 -3t169.5 -1q0 36 -0.5 79t-0.5 96h-82.5h-76t-64.5 0.5t-48 0.5q-18 0 -35.5 4.5t-31.5 16t-23 31t-9 48.5q0 23 9 40t23 28t30.5 16.5t31.5 5.5q29 0 83.5 -0.5t123.5 0.5q-95 151 -167.5 251l-124.5 170
q-26 33 -45.5 61l-36.5 51q-20 28 -31 48t-11 43q0 54 34.5 82.5t89.5 28.5q16 0 33 -10t33.5 -25.5t31.5 -34.5t27 -38l139 -215.5l94.5 -146.5l59 -91.5l32 -50.5l14 -22.5l5.5 -8.5l355 548l24.5 39t23.5 30.5t26.5 19.5t32.5 7q20 0 42 -7t40.5 -20.5t30.5 -33.5t12 -47
q0 -30 -16 -53.5t-36 -47.5l-6 -5l-41.5 -57l-54 -76l-62.5 -89l-66.5 -97l-66 -101l-61.5 -99l122 3q18 0 35 6t37 6q13 0 31 -4t33.5 -15t26.5 -32.5t11 -55.5q0 -57 -26 -79.5t-71 -22.5h-268q-1 -43 -1.5 -86t-0.5 -87q50 2 99.5 3t97.5 4q17 0 33.5 6.5t36.5 6.5
q14 0 32 -4t34 -15t27 -32.5t11 -55.5q0 -57 -26 -79t-72 -22h-271q0 -18 0.5 -36t1.5 -36v1q3 -25 4.5 -40l2.5 -25t1 -17v-16q0 -19 -5 -39t-18.5 -36.5t-36 -27t-56.5 -10.5q-26 0 -47.5 10t-37 25.5t-24 35t-8.5 38.5q0 12 0.5 20.5t1 18t2 22t4.5 32.5v-1
q0 15 0.5 33.5t0.5 47.5h-82h-75t-64 0.5t-48 0.5q-18 0 -36 3.5t-32 14t-23 30.5t-9 52z" />
    <glyph glyph-name="slash" unicode="/" horiz-adv-x="1015" 
d="M113 15l41 118.5l57.5 164l79 222.5l105 293.5l134.5 377.5l169 474q4 11 11 23t18.5 21.5t27 16t35.5 6.5q55 0 86 -29t31 -70q0 -7 -1 -16.5t-3 -15.5q0 -1 -0.5 -2t-0.5 -2q-6 -21 -30.5 -91.5l-63.5 -182.5l-92 -261.5l-116 -326.5l-135 -378l-149 -416q-2 -8 -3 -15
t-2 -13q-1 -10 -5 -29t-15 -37.5t-31.5 -32.5t-54.5 -14q-30 0 -54.5 10.5t-41.5 27t-26 35.5t-9 37q0 2 1.5 13.5t6 27t12 33t19.5 32.5l-1 -1v0z" />
    <glyph glyph-name="backslash" unicode="\" horiz-adv-x="1015" 
d="M107 0zM902.007 15l-40.9971 118.5l-57.4971 164l-78.9951 222.5l-104.993 293.5l-134.492 377.5l-168.989 474q-4 11 -11 23q-6.99902 12 -18.498 21.5q-11.5 9.5 -26.999 16t-35.498 6.5q-54.9961 0 -85.9941 -29t-30.998 -70q0 -7 1 -16.5t2.99902 -15.5q0 -1 0.5 -2
t0.5 -2q6 -21 30.498 -91.5l63.4971 -182.5l91.9941 -261.5l115.993 -326.5l134.991 -378l148.991 -416q2 -8 3 -15t2 -13q0.999023 -10 4.99902 -29t14.999 -37.5q11 -18.5 31.498 -32.5q20.499 -14 54.4971 -14q29.998 0 54.4971 10.5q24.498 10.5 41.4971 27t25.998 35.5
q9 19 9 37q0 2 -1.5 13.5t-6 27t-11.999 33q-7.5 17.5 -19.499 32.5l1 -1v0z" />
    <glyph glyph-name="bar" unicode="|" horiz-adv-x="845" 
d="M296 -257v92t0.5 150.5t0.5 195t0.5 225.5l1 242.5l1 245.5l1 234.5t1 209.5t1 170.5t0.5 118.5q0 18 5 36t19 33t38.5 24t64.5 9q24 0 40 -10t26.5 -24.5t15.5 -32t6 -32.5q1 -35 1 -90v-145.5v-223v-322t-0.5 -443t-0.5 -585.5q0 -18 6.5 -35t6.5 -36q0 -14 -5 -32.5
t-18.5 -34.5t-36 -27t-56.5 -11q-54 0 -86.5 26.5t-32.5 71.5z" />
    <glyph glyph-name="brokenbar" unicode="&#xa6;" horiz-adv-x="850" 
d="M415 779q-54 0 -86.5 26.5t-32.5 71.5v90.5t0.5 104.5l1 109t1.5 103v287q0 34 5.5 62t19.5 47.5t39.5 30.5t64.5 11q30 0 49 -7t29.5 -22.5t14.5 -40t4 -59.5q0 -17 -0.5 -50l-1.5 -97.5t-3 -168t-6 -261.5q0 -25 3 -53.5t14 -79.5q0 -14 -5 -32t-18.5 -34t-36 -27
t-56.5 -11zM301 488q0 18 5 36.5t19.5 32.5t39.5 23t65 9q30 0 49 -10.5t29 -30t13.5 -48.5t3.5 -65q0 -64 -1 -143t-2.5 -163t-2.5 -168t-1 -159q0 -18 6.5 -35t6.5 -36q0 -14 -5 -32.5t-18.5 -34.5t-36 -27t-56.5 -11q-54 0 -86.5 26.5t-32.5 71.5v64v82.5t0.5 91.5
t0.5 92.5t0.5 85.5t1.5 69z" />
    <glyph glyph-name="paragraph" unicode="&#xb6;" horiz-adv-x="1599" 
d="M1171 70q-1 -3 0 32t2 98t3 149.5t3 185.5l2 206.5t0.5 213t-2 203.5t-5.5 179q-3 66 -3 143q0 33 9.5 54t25.5 32.5t36.5 16t41.5 4.5q20 0 40.5 -4.5t37 -16t26.5 -30.5t10 -47q0 -12 -0.5 -24t-0.5 -23l-6 -1152q1 -20 2.5 -37.5t3.5 -37.5q3 -29 5.5 -60.5t2.5 -75.5
q0 -26 -11.5 -46.5t-29.5 -34.5t-39.5 -21.5t-41.5 -7.5q-21 0 -41 7t-35.5 19.5t-25 31.5t-10.5 43zM807 95q0 18 0.5 34.5t2.5 28.5v4t0.5 13t1 30t1.5 55.5t2 89.5t3 132h-26q-70 0 -143.5 13.5t-142.5 41.5t-131 72t-108 106t-73 142t-27 180q0 129 42.5 229.5
t119.5 169.5t185 105t240 36q17 0 49 -0.5t67 -3.5q9 3 23.5 5t27.5 2q20 0 40.5 -4.5t37 -16t27 -30t10.5 -45.5t-1 -41.5t-3 -28.5q-1 -9 -2.5 -19.5t-2.5 -27t-1.5 -40.5t-0.5 -60q0 -269 5 -535.5t5 -541.5q2 -23 3 -49.5t1 -47.5q0 -60 -33 -92t-83 -32q-21 0 -42 10.5
t-37.5 28t-26.5 40.5t-10 47zM818 692v259v180t-0.5 116t-0.5 66.5t-0.5 33t-0.5 15.5q-23 2 -45.5 2.5t-40.5 0.5q-88 0 -150.5 -26.5t-102 -71t-58 -103t-18.5 -122.5q0 -91 35 -157t93.5 -108.5t133.5 -63t155 -21.5z" />
    <glyph glyph-name="at" unicode="@" horiz-adv-x="2200" 
d="M128 445q0 141 37.5 274t107 250.5t166.5 216t216 169t256.5 110t287.5 39.5q149 0 268.5 -34t212.5 -92t160.5 -135.5t111 -165t64.5 -180.5t21 -181q0 -76 -7.5 -159t-26.5 -163t-52 -153t-84 -128t-122.5 -87.5t-167.5 -32.5q-27 0 -64 12t-74 39t-68 69t-46 102
q-26 -43 -58.5 -80.5t-75.5 -65.5t-99.5 -44.5t-129.5 -16.5q-81 0 -146.5 28.5t-112 82t-72 131t-25.5 176.5q0 66 14 138.5t43.5 143.5t76.5 135.5t112.5 113.5t151 78t192.5 29q81 0 140 -13.5t99.5 -40t63.5 -66.5t32 -92q6 -36 7.5 -66.5t-0.5 -57.5t-5.5 -52.5
t-7.5 -51.5q-11 -69 -18 -132.5t-7 -117.5q0 -95 22 -137.5t74 -42.5q43 0 77.5 21t61.5 56t46 81t31.5 96.5t18.5 102.5t6 99q1 178 -49 303.5t-138 205t-206.5 116.5t-254.5 37t-251 -34.5t-208.5 -94.5t-165.5 -142t-120.5 -178t-73.5 -200.5t-25 -210.5
q0 -164 44 -292.5t127 -217t203 -135t272 -46.5q52 0 89 4.5t63.5 11.5t45 15.5t33.5 17.5q24 13 51.5 24t71.5 11q23 0 42 -10t32 -25.5t20 -33.5t7 -33q0 -5 -1 -12.5t-5 -15.5q-16 -33 -50 -56.5t-78.5 -39.5t-94.5 -26t-98 -15t-90.5 -6.5t-71.5 -1.5q-117 0 -223.5 29
t-199 83t-167.5 131.5t-128 175t-82 212.5t-29 244zM823 450q0 -60 10.5 -107.5t30.5 -81.5t50 -52t69 -18q33 0 72 19.5t78 54.5t75.5 84.5t64.5 110t45 130t17 145.5q0 45 -10.5 73.5t-32 44t-53.5 21.5t-74 6q-53 0 -99 -18.5t-84 -50.5t-67.5 -74.5t-50 -90.5t-31 -98.5
t-10.5 -97.5z" />
    <glyph glyph-name="copyright" unicode="&#xa9;" horiz-adv-x="2200" 
d="M166 584q0 135 26 260t77 234t127 198t176 153t223 99t269 35q166 0 300.5 -36t238.5 -101t179.5 -154.5t124.5 -197t72.5 -228.5t23.5 -249q0 -120 -20 -236t-64 -219.5t-114 -191t-170 -151t-232 -99t-300 -35.5q-143 0 -268 32t-229.5 91t-186 142.5t-138 185.5
t-86 220.5t-29.5 247.5zM382 581q0 -161 46 -294.5t139 -230t233.5 -150t329.5 -53.5q148 0 269 55t206.5 153t132.5 233t47 296q0 178 -47 324.5t-138 250.5t-224 161.5t-305 57.5q-183 0 -313.5 -62t-214 -170.5t-122.5 -255t-39 -315.5zM589 591q0 115 36.5 208.5
t102.5 159.5t158 101.5t203 35.5q72 0 140.5 -21t120.5 -59q11 6 25 11t37 5q53 0 80.5 -38.5t27.5 -130.5q0 -72 -31 -107t-85 -35q-27 0 -58.5 14t-51.5 51q-11 22 -33 41.5t-49.5 33.5t-60 22t-64.5 8q-70 0 -120.5 -25t-83 -65.5t-48 -93.5t-15.5 -108q0 -61 23 -109.5
t61 -82.5t87 -52t102 -18q66 0 117.5 23t96.5 71q20 21 47.5 31t51.5 10q22 0 41 -8t33 -23t22 -35t8 -44q0 -5 -2 -14t-5.5 -18.5t-8 -19t-9.5 -15.5q-41 -43 -83.5 -74t-89.5 -51.5t-99.5 -30t-112.5 -9.5q-107 0 -200.5 34.5t-162.5 95.5t-108.5 145.5t-39.5 185.5z" />
    <glyph glyph-name="registered" unicode="&#xae;" horiz-adv-x="2200" 
d="M166 584q0 135 26 260t77 234t127 198t176 153t223 99t269 35q166 0 300.5 -36t238.5 -101t179.5 -154.5t124.5 -197t72.5 -228.5t23.5 -249q0 -120 -20 -236t-64 -219.5t-114 -191t-170 -151t-232 -99t-300 -35.5q-143 0 -268 32t-229.5 91t-186 142.5t-138 185.5
t-86 220.5t-29.5 247.5zM382 581q0 -161 46 -294.5t139 -230t233.5 -150t329.5 -53.5q148 0 269 55t206.5 153t132.5 233t47 296q0 178 -47 324.5t-138 250.5t-224 161.5t-305 57.5q-183 0 -313.5 -62t-214 -170.5t-122.5 -255t-39 -315.5zM687 225q0 95 -0.5 191
t-1.5 195.5l-2 204.5t-1 218q6 53 33 74.5t75 27.5l83 3q106 6 167 6q91 0 176 -20.5t150 -65.5t104 -115t39 -169q0 -71 -28.5 -132t-74.5 -108t-105 -78t-119 -43q20 -23 36.5 -39t33.5 -26.5t36.5 -15.5t46.5 -5q29 0 46 6.5t31 14.5t27.5 14.5t34.5 6.5q47 0 80 -26
t33 -71q0 -39 -27.5 -68t-67 -47.5t-84 -28t-78.5 -9.5q-61 0 -113 19.5t-99 51.5q-28 20 -52 43.5l-48 47.5l-48 47.5t-52 43.5v-146q0 -25 -11.5 -42.5t-29 -29t-37.5 -16.5t-37 -5q-19 0 -38.5 6t-36 18t-28 29t-13.5 38zM917 614q32 0 64.5 -1.5t70.5 -1.5q41 0 81.5 10
t72.5 32t52 56t20 81q0 40 -15 68.5t-41 46.5t-60.5 26t-72.5 8h-10.5t-24 -0.5l-50.5 -1.5t-90 -2q1 -42 1.5 -81l1 -77.5t0.5 -78.5v-84z" />
    <glyph glyph-name="Euro" unicode="&#x20ac;" horiz-adv-x="1531" 
d="M78 480q-17 0 -35 2.5t-32 13.5t-23 33.5t-9 62.5q0 22 9.5 38.5t23.5 27.5t30.5 16.5t30.5 6.5l59 3q-1 14 -1.5 27t-0.5 27q0 31 1.5 60t3.5 58h-10q-18 0 -35.5 2t-32 12t-23 32t-8.5 63q0 24 9 41t22.5 27.5t30.5 15.5t32 6q9 1 23 1t32 1q42 130 117 223t172 151.5
t211 86t234 27.5q80 0 154 -20t131 -52.5t91.5 -73t34.5 -82.5q0 -28 -10 -49.5t-27 -36.5t-39 -22.5t-45 -7.5q-33 0 -53 12t-40 31l-32.5 27t-44.5 25.5t-65.5 19t-93.5 7.5q-60 0 -126 -13.5t-127.5 -44t-114.5 -81t-89 -124.5q63 0 129.5 0.5t128.5 0.5h116h93
q17 0 34 6t36 6q15 0 33 -5.5t33.5 -18.5t26.5 -36t11 -57q0 -55 -26 -78t-71 -23h-595q-2 -14 -2 -28v-28q0 -60 6 -112q56 0 116 0.5t120.5 0.5h119.5h113q17 0 33.5 5.5t36.5 5.5q14 0 32 -5.5t34 -18.5t27 -36t11 -57q0 -55 -26.5 -79t-71.5 -24h-485q37 -75 90.5 -128
t116 -86t131.5 -48.5t137 -15.5q65 0 112 11.5t85 24.5h-1l54.5 15t55.5 7q18 0 34.5 -7t29 -19t20.5 -28t8 -34q0 -40 -25 -69t-65 -49.5t-88.5 -33t-96.5 -19.5t-89 -9.5t-65 -2.5q-125 0 -235 36.5t-200 101.5t-157 155.5t-105 197.5q-26 0 -50.5 0.5t-44.5 0.5z" />
    <glyph glyph-name="asciicircum" unicode="^" horiz-adv-x="1545" 
d="M331 333q-21 0 -40.5 6.5t-34.5 19t-24 31.5t-9 44q0 7 1 17t6 21q42 84 83.5 183l89 220l105 267l132.5 323q23 42 53.5 61.5t60.5 19.5q31 0 61.5 -20t52.5 -60l61.5 -144.5l66 -159l67.5 -164.5l65.5 -161.5l59.5 -149l51 -127.5q12 -13 21 -32t15.5 -37.5t9.5 -35
t3 -25.5q0 -24 -8.5 -42t-23.5 -30t-34.5 -18.5t-40.5 -6.5q-33 0 -59 18t-45 45t-32.5 58.5t-22.5 59.5l-271 663q-39 -89 -79 -191l-80 -206.5l-80 -206.5t-79 -191q-20 -23 -42.5 -36t-59.5 -13z" />
    <glyph glyph-name="cent" unicode="&#xa2;" horiz-adv-x="1506" 
d="M546 20q-81 31 -148.5 83.5t-116 123.5t-75 159t-26.5 190q0 129 33.5 236.5t98 187.5t158.5 129.5t214 63.5q7 66 12 119t8 88q1 22 12 38t27 26.5t35.5 16t38.5 5.5q16 0 35 -7.5t35.5 -21t28 -31.5t11.5 -39l-21 -204q99 -23 184 -75q15 23 34.5 31.5t48.5 8.5
q19 0 40 -9t38.5 -25t29 -38t11.5 -48q0 -38 -3 -83.5t-15.5 -84.5t-39 -65t-72.5 -26q-12 0 -26 5t-28.5 13t-27.5 19.5t-22 25.5q-29 52 -75 86t-102 51l-33 -261l-32 -254.5t-30 -257.5q37 2 77 12t76.5 27t67.5 42t49 58q12 44 42 62t61 18q16 0 38 -8.5t41.5 -23
t33 -33.5t13.5 -41q-10 -60 -45 -107.5t-84 -84t-106.5 -62.5t-111.5 -42.5t-99 -24.5t-69 -8h-7q-5 -42 -8 -81.5l-6 -77.5q-2 -26 -13.5 -45t-28 -31t-35.5 -18t-36 -6q-19 0 -39.5 6.5t-37 20t-26 33t-7.5 46.5l8.5 89t11.5 104zM605 511l27 225l27 235
q-78 -18 -127.5 -57t-78 -91.5t-39 -114.5t-10.5 -125q0 -58 12.5 -108.5t35 -92.5t53.5 -75t68 -57z" />
    <glyph glyph-name="ordmasculine" unicode="&#xba;" horiz-adv-x="1231" 
d="M618 675q-101 0 -185 28t-145 81.5t-94.5 131t-33.5 176.5q0 79 31 156t86 137t131.5 97t166.5 37q17 0 31 -3t28 -11q8 4 20 6.5t30 -0.5q83 -12 146.5 -51t107 -95t66 -124.5t22.5 -140.5q0 -79 -24 -155t-74.5 -136t-127.5 -97t-182 -37zM605 874q42 0 79.5 15.5
t66 44.5t45 71t16.5 95q0 43 -13.5 82t-38.5 70t-61 51.5t-82 26.5q-12 -5 -26 -6.5t-26 -2.5q-45 -10 -80.5 -32.5t-60 -53.5t-37 -67.5t-12.5 -73.5q0 -107 62.5 -163.5t167.5 -56.5z" />
    <glyph glyph-name="ordfeminine" unicode="&#xaa;" horiz-adv-x="1356" 
d="M553 673q-84 0 -161.5 29t-137 84t-95 133t-35.5 176q0 104 35.5 183t95.5 132t138.5 80t164.5 27q164 0 263 -75q4 18 14.5 32.5t24.5 24t31 14.5t34 5q64 0 88 -30t24 -87l-3 -214q-3 -107 0 -225q1 -26 1.5 -46t0.5 -40q25 15 42.5 23t41.5 8q40 0 66.5 -27t26.5 -70
q0 -26 -7 -42t-21 -28t-34.5 -21t-48.5 -20q-19 -9 -41.5 -17.5t-44.5 -15t-41.5 -11t-32.5 -4.5q-24 0 -47.5 7.5t-42 21.5t-30.5 34.5t-13 46.5q-54 -42 -119.5 -65t-136.5 -23zM550 866q58 0 105.5 18.5t82 49t55 71t25.5 85.5q-6 45 -22.5 86.5t-47.5 74t-78 52
t-112 19.5q-49 0 -89.5 -15t-70 -44t-46 -71t-16.5 -97q0 -56 18.5 -98.5t49 -71.5t69 -44t77.5 -15z" />
    <glyph glyph-name="parenleft" unicode="(" horiz-adv-x="1014" 
d="M642 -278q-109 57 -191 134t-141.5 165.5t-98.5 184t-62.5 190.5t-33 185t-9.5 167q0 172 35.5 319t93 267t131.5 212.5t150.5 155.5t149 95.5t128.5 32.5q48 0 77 -23.5t29 -71.5q0 -37 -23 -61t-70 -41q-37 -14 -87.5 -42.5t-104 -75.5t-105.5 -115t-93 -162t-66 -216
t-25 -277q0 -142 20 -254.5t53 -200.5t75 -153t86.5 -111.5t87 -76.5t77.5 -47q49 -8 78.5 -20.5t44.5 -28t19.5 -33.5t4.5 -36q0 -54 -27.5 -77.5t-76.5 -23.5q-29 0 -61.5 11t-64.5 28z" />
    <glyph glyph-name="parenright" unicode=")" horiz-adv-x="1014" 
d="M124 0zM382.039 -278q108.993 57 190.988 134t141.491 165.5q59.4971 88.5 98.4941 184q38.998 95.5 62.4961 190.5q23.499 95 32.998 185q9.5 90 9.5 167q0 172 -35.498 319t-92.9941 267q-57.4971 120 -131.492 212.5t-150.491 155.5q-76.4951 63 -148.99 95.5
q-72.4961 32.5 -128.492 32.5q-47.9971 0 -76.9961 -23.5q-28.998 -23.5 -28.998 -71.5q0 -37 22.999 -61q22.998 -24 69.9951 -41q36.998 -14 87.4951 -42.5t103.993 -75.5q53.4971 -47 105.494 -115t92.9941 -162q40.998 -94 65.9961 -216t24.998 -277
q0 -142 -19.998 -254.5q-19.999 -112.5 -52.9971 -200.5t-74.9951 -153q-41.998 -65 -86.4951 -111.5t-86.9951 -76.5q-42.4971 -30 -77.4951 -47q-48.9971 -8 -78.4951 -20.5t-44.4971 -28t-19.499 -33.5t-4.5 -36q0 -54 27.499 -77.5q27.498 -23.5 76.4951 -23.5
q28.998 0 61.4961 11t64.4961 28z" />
    <glyph glyph-name="endash" unicode="&#x2013;" horiz-adv-x="1348" 
d="M206 614q-18 0 -36 5t-32 19t-23 39t-9 64q0 30 10 47.5t29 26.5t45 11.5t58 2.5h791q19 0 38 6t42 6q13 0 31 -5t34.5 -18t27.5 -35.5t11 -56.5q0 -27 -8.5 -49t-23.5 -37t-34.5 -23.5t-41.5 -8.5q-76 0 -305.5 1t-603.5 5z" />
    <glyph glyph-name="emdash" unicode="&#x2014;" horiz-adv-x="1862" 
d="M209 615q-18 0 -35.5 5t-31.5 19t-23 39t-9 64q0 30 10 47.5t29 26.5t45 11.5t58 2.5h1315q7 0 18 2l23 4q28 5 49 5q14 0 32 -5t34.5 -18t27.5 -35t11 -56q0 -27 -10.5 -49t-27 -37t-37.5 -23.5t-43 -8.5h-70.5h-126.5t-170.5 0.5t-202 0.5t-220 0.5t-226 1.5
t-219.5 1.5t-200 1.5z" />
    <glyph glyph-name="degree" unicode="&#xb0;" horiz-adv-x="853" 
d="M435 902q-73 0 -135.5 21.5t-108 63t-71 102t-25.5 138.5q0 66 23 125t64 103t99 69.5t128 25.5q13 0 22 -2.5t17 -7.5q11 6 27 5q63 -8 113 -39t85 -76.5t53.5 -100.5t18.5 -110q0 -64 -19 -121.5t-57 -101t-96.5 -69t-137.5 -25.5zM429 1088q30 0 52 12t36 31.5
t20.5 43t6.5 47.5q0 62 -34.5 97t-82.5 46l-16.5 -4t-13.5 -3q-23 -5 -41 -17t-31.5 -29.5t-20.5 -39t-7 -43.5q0 -67 32.5 -104t99.5 -37z" />
    <glyph glyph-name="bullet" unicode="&#x2022;" horiz-adv-x="844" 
d="M416 608q-38 0 -71.5 13.5t-58.5 38.5t-39.5 61t-14.5 80t14.5 79.5t39.5 60.5t58.5 38.5t71.5 13.5t71.5 -13.5t58.5 -38.5t39.5 -60.5t14.5 -79.5t-14.5 -80t-39.5 -61t-58.5 -38.5t-71.5 -13.5z" />
    <glyph glyph-name="circumflex" unicode="&#x2c6;" horiz-adv-x="1009" 
d="M196 1442q-47 0 -73 26t-26 68q0 21 4 36.5t13 29t23 26.5t35 29l64 49l51.5 39.5l44 35.5t41.5 38q33 32 63.5 42.5t65.5 10.5t63 -17t57 -44q15 -15 41 -37.5l54 -45l53 -41t38 -26.5q45 -27 69.5 -58.5t24.5 -71.5q0 -42 -32 -66.5t-78 -24.5q-10 0 -23 3t-26 7.5
t-25 11t-20 14.5q-20 19 -45.5 41l-52 44l-53 42t-49.5 35q-19 -12 -44.5 -30.5l-52.5 -39l-53.5 -42.5t-47.5 -42q-16 -16 -40 -29t-64 -13z" />
    <glyph glyph-name="edieresis" unicode="&#xeb;" horiz-adv-x="1402" 
d="M114 0zM357 451q19 -75 56.5 -125.5t84.5 -81.5t99.5 -44.5t102.5 -13.5q78 0 139 13.5t104.5 33t70.5 40.5t38 37q10 15 22.5 28.5t27 24t29 16.5t27.5 6q50 0 77.5 -29.5t27.5 -79.5q0 -19 -14 -48t-52 -64q-42 -39 -93.5 -74t-113.5 -61.5t-134.5 -42t-156.5 -15.5
q-99 0 -181 26.5t-147 72t-113 105.5t-80 128t-48 140t-16 140q0 148 48 267.5t132 204.5t199 131t249 46q96 0 180 -28.5t149.5 -80t110 -123t62.5 -157.5q20 -17 29.5 -44.5t9.5 -54.5q0 -45 -30.5 -73.5t-76.5 -39.5q-101 -26 -202 -48l-203 -43l-205.5 -43zM340 636
q170 40 344 75t354 78q-17 46 -46 87.5t-68 72.5t-86.5 49t-102.5 18q-85 0 -154.5 -27.5t-120.5 -77t-82 -120t-38 -155.5zM445 1395q-19 0 -38.5 7.5t-35.5 21t-26.5 33.5t-10.5 44q0 32 16.5 69.5t42 69.5t55.5 53.5t57 21.5q23 0 44 -10.5t37.5 -27t26.5 -37t10 -40.5
q0 -26 -18 -61.5t-45 -67.5t-58 -54t-57 -22zM868 1388q-18 0 -37.5 7.5t-35.5 21.5t-26 33.5t-10 43.5q0 31 19.5 68t48.5 68t61.5 52t59.5 21q23 0 42.5 -10t34 -27t23 -38.5t8.5 -45.5v-1q0 -26 -19.5 -59.5t-48 -63t-61 -50t-59.5 -20.5z" />
    <glyph glyph-name="ecircumflex" unicode="&#xea;" horiz-adv-x="1402" 
d="M114 0zM357 451q19 -75 56.5 -125.5t84.5 -81.5t99.5 -44.5t102.5 -13.5q78 0 139 13.5t104.5 33t70.5 40.5t38 37q10 15 22.5 28.5t27 24t29 16.5t27.5 6q50 0 77.5 -29.5t27.5 -79.5q0 -19 -14 -48t-52 -64q-42 -39 -93.5 -74t-113.5 -61.5t-134.5 -42t-156.5 -15.5
q-99 0 -181 26.5t-147 72t-113 105.5t-80 128t-48 140t-16 140q0 148 48 267.5t132 204.5t199 131t249 46q96 0 180 -28.5t149.5 -80t110 -123t62.5 -157.5q20 -17 29.5 -44.5t9.5 -54.5q0 -45 -30.5 -73.5t-76.5 -39.5q-101 -26 -202 -48l-203 -43l-205.5 -43zM340 636
q170 40 344 75t354 78q-17 46 -46 87.5t-68 72.5t-86.5 49t-102.5 18q-85 0 -154.5 -27.5t-120.5 -77t-82 -120t-38 -155.5zM400 1442q-47 0 -73 26t-26 68q0 21 4 36.5t13 29t23 26.5t35 29l64 49l51.5 39.5l44 35.5t41.5 38q33 32 63.5 42.5t65.5 10.5t63 -17t57 -44
q15 -15 41 -37.5l54 -45l53 -41t38 -26.5q45 -27 69.5 -58.5t24.5 -71.5q0 -42 -32 -66.5t-78 -24.5q-10 0 -23 3t-26 7.5t-25 11t-20 14.5q-20 19 -45.5 41l-52 44l-53 42t-49.5 35q-19 -12 -44.5 -30.5l-52.5 -39l-53.5 -42.5t-47.5 -42q-16 -16 -40 -29t-64 -13z" />
    <glyph glyph-name="eacute" unicode="&#xe9;" horiz-adv-x="1402" 
d="M114 0zM357 451q19 -75 56.5 -125.5t84.5 -81.5t99.5 -44.5t102.5 -13.5q78 0 139 13.5t104.5 33t70.5 40.5t38 37q10 15 22.5 28.5t27 24t29 16.5t27.5 6q50 0 77.5 -29.5t27.5 -79.5q0 -19 -14 -48t-52 -64q-42 -39 -93.5 -74t-113.5 -61.5t-134.5 -42t-156.5 -15.5
q-99 0 -181 26.5t-147 72t-113 105.5t-80 128t-48 140t-16 140q0 148 48 267.5t132 204.5t199 131t249 46q96 0 180 -28.5t149.5 -80t110 -123t62.5 -157.5q20 -17 29.5 -44.5t9.5 -54.5q0 -45 -30.5 -73.5t-76.5 -39.5q-101 -26 -202 -48l-203 -43l-205.5 -43zM340 636
q170 40 344 75t354 78q-17 46 -46 87.5t-68 72.5t-86.5 49t-102.5 18q-85 0 -154.5 -27.5t-120.5 -77t-82 -120t-38 -155.5zM662 1413q-20 0 -39 9t-33.5 23.5t-23 32t-8.5 35.5q0 24 14.5 49.5t36 49.5t46 46l44.5 39l108 106v-1q18 19 33.5 33.5t31 24.5t32 15.5t37.5 5.5
q25 0 47.5 -8t39 -23.5t26 -37.5t9.5 -50q0 -18 -9 -35t-21.5 -30.5t-25.5 -23t-21 -12.5l1 1l-50 -44l-55.5 -50.5l-56 -52.5l-51.5 -49q-37 -34 -63 -43.5t-49 -9.5z" />
    <glyph glyph-name="egrave" unicode="&#xe8;" horiz-adv-x="1402" 
d="M114 0zM357 451q19 -75 56.5 -125.5t84.5 -81.5t99.5 -44.5t102.5 -13.5q78 0 139 13.5t104.5 33t70.5 40.5t38 37q10 15 22.5 28.5t27 24t29 16.5t27.5 6q50 0 77.5 -29.5t27.5 -79.5q0 -19 -14 -48t-52 -64q-42 -39 -93.5 -74t-113.5 -61.5t-134.5 -42t-156.5 -15.5
q-99 0 -181 26.5t-147 72t-113 105.5t-80 128t-48 140t-16 140q0 148 48 267.5t132 204.5t199 131t249 46q96 0 180 -28.5t149.5 -80t110 -123t62.5 -157.5q20 -17 29.5 -44.5t9.5 -54.5q0 -45 -30.5 -73.5t-76.5 -39.5q-101 -26 -202 -48l-203 -43l-205.5 -43zM340 636
q170 40 344 75t354 78q-17 46 -46 87.5t-68 72.5t-86.5 49t-102.5 18q-85 0 -154.5 -27.5t-120.5 -77t-82 -120t-38 -155.5zM730 1404q-23 0 -39 4.5t-30 14t-28 23.5t-32 34v-1l-96 94.5t-103 93.5q-33 27 -43 50t-10 55q0 17 8.5 35.5t23 33.5t33 24.5t39.5 9.5t48 -12.5
t61 -43.5l87.5 -84l59 -55.5l37.5 -34t24 -20.5q8 -3 21 -13t25.5 -24t21.5 -30.5t9 -34.5q0 -57 -33.5 -88t-83.5 -31z" />
    <glyph glyph-name="divide" unicode="&#xf7;" horiz-adv-x="1186" 
d="M105 136zM436 259q0 26 4.5 65t18.5 75t40 62t69 26t66.5 -19t34.5 -44.5t13.5 -51.5t2.5 -41v-6q0 -45 -6 -80t-20.5 -59t-38.5 -37t-60 -13q-34 0 -57.5 10.5t-38.5 27.5t-21.5 39t-6.5 46zM436 1104q0 26 4.5 65t18.5 75t40 62t69 26t66.5 -19t34.5 -44.5t13.5 -51.5
t2.5 -41v-6q0 -45 -6 -80t-20.5 -59t-38.5 -37t-60 -13q-34 0 -57.5 10.5t-38.5 27.5t-21.5 39t-6.5 46zM204 616q-18 0 -35.5 5t-31.5 19t-23 38.5t-9 63.5q0 31 10 48.5t29 26.5t45 11.5t58 2.5l621 -1q14 5 31 8t40 3q19 0 37.5 -5t33.5 -18t24 -35t9 -56
q0 -54 -26.5 -86t-71.5 -32q-25 0 -55 0.5t-70 0.5h-41t-51 0.5t-72.5 1t-104.5 1t-147 1.5t-200 2z" />
    <glyph glyph-name="multiply" unicode="&#xd7;" horiz-adv-x="1186" 
d="M298 250q-21 0 -43.5 8t-41.5 24t-31 40t-10 55q1 15 8 32t18 30l47.5 48l56 57l61.5 62l64 64l-43 41l-80.5 80t-65 70.5t-43.5 58.5t-16 45q0 27 16 47t36 33t39.5 19t27.5 6q20 0 37 -8.5t29 -19.5l220 -217l216 214q13 13 29.5 20.5t38.5 7.5q7 0 26.5 -6.5t40 -20
t36.5 -33t16 -45.5q0 -21 -9.5 -39.5t-20.5 -30.5q-9 -11 -30.5 -33.5l-51 -52.5l-64 -65l-69.5 -71l56.5 -57l60.5 -62l57.5 -59.5l47.5 -48.5q14 -14 18.5 -29t7.5 -32q4 -24 -4.5 -48t-26 -43t-42 -29.5t-52.5 -8.5q-21 2 -34.5 7t-24 13t-18 18l-16.5 22q-9 13 -22 28
v-1l-167 170l-162 -164q-18 -15 -24 -29q-4 -8 -11 -19t-19 -22t-29 -18.5t-40 -7.5z" />
    <glyph glyph-name="numbersign" unicode="#" horiz-adv-x="1551" 
d="M258 57q0 23 7 41.5t15 36.5l23.5 91.5l22.5 86.5q-40 0 -75.5 0.5t-56.5 0.5q-18 0 -35.5 5t-31.5 19t-23 39t-9 65q0 24 9 40t22.5 26.5t30 16t31.5 7.5q15 1 67 2t127 2l37.5 151t31.5 133h-88t-65 1q-18 0 -35.5 5t-32 19.5t-23 39.5t-8.5 65q0 30 9 48t27 27.5
t44.5 12.5t61.5 3h160q31 141 43 207.5t13 69.5q4 26 12.5 55t22.5 53.5t34.5 40.5t48.5 16q20 0 40 -4t36.5 -14t27 -28.5t10.5 -46.5q0 -12 -5 -34.5t-11.5 -46t-13.5 -43t-10 -26.5l-24 -99t-23 -99h89t87 1h54t64 1q26 140 35 205.5t10 68.5q4 26 12.5 55t23 53.5
t34.5 40.5t48 16q19 0 39.5 -4t37 -14t27 -28.5t10.5 -46.5q0 -12 -5 -34.5t-11.5 -46t-13 -43t-9.5 -26.5v1l-23 -101.5l-21 -94.5h89q17 0 34 5.5t36 5.5q15 0 33 -5t33.5 -18.5t26.5 -36t11 -56.5q0 -56 -26 -88t-71 -32h-216l-32 -152.5l-27 -129.5h94q18 0 35 6t36 6
q14 0 32 -5.5t33.5 -19t26.5 -35.5t11 -56q0 -56 -26 -88.5t-71 -32.5h-216l-26.5 -139t-24.5 -113l-10.5 -36.5t-16 -32.5t-27.5 -23t-44 -9q-62 0 -92.5 27t-32.5 69v1q0 24 7 42t15 36l46 178h-292l-27.5 -121.5l-27.5 -121.5q-4 -18 -10 -37.5t-17 -35.5t-28.5 -26.5
t-43.5 -10.5q-63 0 -93.5 27t-32.5 69v1zM588 537q76 0 150.5 0.5t146.5 0.5q20 80 35.5 149.5l29.5 132.5h-299z" />
    <glyph glyph-name="logicalnot" unicode="&#xac;" horiz-adv-x="1546" 
d="M252 592q-45 0 -70.5 29.5t-25.5 83.5q0 34 11.5 55t27.5 32.5t34 15t32 3.5q7 0 16 -0.5t16 -1.5q3 0 9.5 -0.5t31.5 -0.5h76.5h143.5h231.5t341.5 1q16 2 41.5 3.5t49.5 1.5q42 0 73 -24.5t36 -72.5v-2q-4 -97 -5 -163.5t-1 -114.5q0 -35 1 -60.5t3 -46.5q0 -4 0.5 -8
t0.5 -8q2 -19 3 -42.5t1 -43.5q0 -48 -37 -73t-94 -25q-36 0 -59.5 11t-37 26.5t-18.5 33t-5 31.5q0 10 0.5 25.5t2 31.5t2.5 31.5t3 25.5v-1q1 16 1.5 34t0.5 45.5v68v101.5q-205 -1 -346 -1t-233.5 -0.5t-144 -0.5h-76.5h-30.5h-6.5z" />
    <glyph glyph-name="dotlessj" unicode="&#x237;" horiz-adv-x="762" 
d="M47 -304q20 6 89 31.5t196 90.5l-2 112t-1 123q0 132 -1 268t-3.5 262t-6 236t-7.5 191q-25 -2 -49 -3.5t-44.5 -2t-35 -1t-19.5 -0.5q-18 0 -37 5t-34.5 17.5t-25.5 33.5t-10 52q0 51 28.5 79t68.5 28q15 0 26 -1l22.5 -2t24.5 -2t32 0q43 0 87.5 2t99.5 2
q36 0 56.5 -11t31 -26.5t13.5 -33.5t3 -32q0 -37 -5 -73t-5 -78v-142.5t0.5 -139l1 -146t1.5 -163t2 -191.5t3 -230q0 -40 3.5 -80.5t6.5 -87.5q0 -38 -14 -70t-49 -48v1l-163 -81t-148 -66q-32 -23 -55.5 -31.5t-46.5 -8.5q-25 0 -46.5 6t-37.5 19.5t-25 36t-9 54.5
q0 41 23 64.5t61 36.5z" />
    <glyph glyph-name="mu" unicode="&#xb5;" horiz-adv-x="1523" 
d="M219 91v65.5t-1 65.5l-5 294q0 46 5 98.5t16 107.5t27.5 109.5t39.5 103.5q-11 -3 -21 -5t-18 -2q-38 0 -59 13t-30.5 31t-11 36.5t-1.5 29.5q0 30 10 48t28.5 30t44.5 19t59 14q34 9 65.5 18.5t73.5 24.5q8 3 24.5 6.5t37.5 3.5q32 0 53 -9t34 -24t18 -35t5 -43
q0 -28 -13.5 -58t-37.5 -56q-32 -35 -56 -89t-40.5 -117t-24.5 -129t-8 -126q0 -78 11.5 -140t43 -105t87.5 -66t145 -23q53 0 102 11t92 30.5t79.5 47t63.5 59.5q2 87 3.5 172t1.5 156v75.5t-1 68.5l-2 70.5t-3 80.5q-31 -9 -58.5 -13.5t-42.5 -4.5q-20 0 -39.5 8t-34.5 24
t-24 38t-9 51t9.5 47t27.5 28.5t44 17t59 12.5q32 5 62.5 13.5t63.5 15.5q28 7 41 9.5t21 2.5q36 0 55 -8.5t28 -25t10.5 -41t1.5 -57.5q0 -104 1 -209t2.5 -213.5t2.5 -221t1 -231.5q0 -12 0.5 -21t2.5 -18t3 -21t1 -32q0 -26 -3.5 -49.5t-16.5 -41.5t-40 -29.5t-73 -12.5
q-28 0 -48 10t-33 25.5t-20 35t-8 38.5q-32 -26 -74 -45t-86.5 -32t-88 -19.5t-79.5 -6.5q-49 0 -88.5 5t-73 14t-62.5 23t-57 32v-2v-6.5v-25v-64.5t-1 -123q0 -55 3.5 -83.5t7.5 -45.5q2 -8 3 -16t1 -19q0 -14 -5 -31.5t-18 -33.5t-35.5 -27t-56.5 -11q-55 0 -87 26
t-32 70q1 111 2 183t2 119t1 76v55z" />
    <glyph glyph-name="percent" unicode="%" horiz-adv-x="2526" 
d="M823 80q0 23 9.5 42.5t20.5 33.5l3.5 7t10 22.5l22 53.5l40 101l63.5 163.5l93 241.5l128.5 335.5l170.5 444.5v-1q8 31 18.5 62.5t26 56.5t38 41t55.5 16q20 0 40.5 -7t36.5 -21t26 -35t10 -48q0 -14 -3 -30.5t-7.5 -32.5t-9 -29.5t-8.5 -20.5l-549 -1415v1
q-5 -20 -11.5 -38.5t-17.5 -33.5t-29 -24t-46 -9q-35 0 -60 11t-41 28.5t-23 39.5t-7 44zM667 737q-56 0 -113.5 13.5t-111 39t-100.5 62.5t-82 85t-55 106.5t-20 126.5q0 85 31.5 170t88.5 152.5t136.5 110t176.5 42.5q38 0 78 -6t75 -35q5 1 10.5 1.5t9.5 0.5q16 0 29 -5
q65 -26 115.5 -68t85.5 -94.5t53 -112.5t18 -123q0 -89 -31 -173t-87.5 -149t-134.5 -104.5t-172 -39.5zM654 955q49 0 88 23.5t66 60.5t41 81t14 86q0 35 -12 69t-33 63.5t-49.5 51.5t-61.5 33q-4 -1 -15 -1q-14 0 -22.5 0.5t-15.5 1.5q-5 1 -8.5 1h-5.5q-50 0 -91.5 -20.5
t-71 -56.5t-46 -84.5t-16.5 -104.5q0 -47 20.5 -85t54 -64.5t76.5 -40.5t88 -14zM1377 417q0 56 14 113.5t41 110t65.5 98t86.5 79.5t105 53.5t122 19.5q19 0 39 -1t39.5 -5t38.5 -12.5t37 -23.5q10 2 19 2q16 0 29 -4q64 -26 115 -68t85.5 -94.5t53 -113t18.5 -123.5
q0 -89 -31 -172.5t-87 -149t-134 -105t-172 -39.5q-85 0 -171.5 28.5t-156 83.5t-113 136t-43.5 187zM1608 405q0 -47 20 -85t53.5 -64.5t76.5 -40.5t89 -14q49 0 88 23.5t66 60t41 81t14 85.5q0 35 -12 69.5t-33 64t-49.5 51.5t-60.5 33q-4 -2 -8 -2h-9q-13 0 -21 1l-16 2
q-5 1 -8.5 1h-7.5q-50 0 -91 -21t-70 -57t-45.5 -84.5t-16.5 -103.5z" />
    <glyph glyph-name="onesuperior" unicode="&#xb9;" horiz-adv-x="1021" 
d="M564 706q-68 0 -97 29t-29 83q0 166 3 332.5t5 345.5q-28 -14 -47 -25l-40 -24q-24 -14 -44.5 -23.5t-43.5 -9.5q-28 0 -48.5 10.5t-34 27t-20.5 37t-7 40.5q0 31 12 51.5t30.5 34.5t40 22.5t41.5 15.5q10 2 49 18.5l119 48.5q16 10 44.5 25t71.5 15q20 0 39 -3.5t34 -13
t24.5 -27t10.5 -44.5q-2 -60 -3 -137t-1 -167v-121.5t1 -127.5q1 -68 1.5 -136.5t0.5 -136.5q0 -34 -5 -60t-17.5 -44t-34 -27t-55.5 -9z" />
    <glyph glyph-name="ring" unicode="&#x2da;" horiz-adv-x="1078" 
d="M518 1336q-71 0 -131 19t-104 58t-68.5 97t-24.5 136q0 92 31 153.5t81 98.5t113 52.5t127 15.5q70 0 127 -27t97 -72.5t62 -104.5t22 -123q0 -75 -28 -131.5t-74.5 -94.5t-106 -57.5t-123.5 -19.5zM523 1511q21 0 45.5 8t45 23.5t34.5 38t14 52.5q0 39 -10.5 68
t-28.5 48.5t-42 29.5t-50 10q-20 0 -46 -6t-50 -22.5t-40.5 -45.5t-16.5 -76q0 -33 13.5 -57t34.5 -40t46.5 -23.5t50.5 -7.5z" />
    <glyph glyph-name="hbar" unicode="&#x127;" horiz-adv-x="1555" 
d="M205 72q0 18 1.5 37t3.5 38q3 26 6 58t3 71q0 46 -0.5 112t-1 146.5t-1 171.5t-1.5 187l-2 192.5l-2 188.5q-47 1 -73.5 1.5t-40 0.5t-18 -0.5t-8.5 -0.5q-45 -2 -63 17.5t-18 72.5q0 20 4.5 33.5t20 21.5t45.5 11.5t81 3.5h68q-1 36 -1.5 70t-0.5 65q-15 2 -32 -1.5
t-40 -3.5q-18 0 -36.5 6t-34 18.5t-25 33.5t-9.5 51q0 53 28 80.5t67 27.5q16 0 31 -4t32 -4q20 0 41 1t41 3q22 2 43.5 3t37.5 1q42 0 68.5 -27.5t26.5 -75.5q0 -61 -0.5 -122t-1.5 -124h94q17 0 33.5 5.5t36.5 5.5q13 0 32.5 -0.5t37.5 -8t30.5 -25.5t12.5 -53
q0 -27 -8.5 -44.5t-22.5 -27t-33.5 -13t-41.5 -3.5q-44 0 -86.5 0.5t-87.5 1.5q-1 -35 -1.5 -70t-0.5 -72l-2 -51q35 31 77 59t89.5 49t98.5 33.5t104 12.5q126 0 224.5 -37t166.5 -113t103.5 -191t35.5 -272q0 -46 -6.5 -96t-18.5 -100t-29 -98.5t-38 -90.5q22 8 44 14.5
t48 6.5q33 0 54 -12.5t32.5 -29.5t15.5 -35t4 -28q0 -38 -22.5 -65t-57.5 -39q-29 -11 -73 -24t-88.5 -24t-83.5 -19t-59 -8q-65 0 -92.5 31.5t-27.5 81.5q0 27 15 59t36 59q26 37 48 85.5t38.5 103t26 113t9.5 115.5q0 94 -17.5 168t-55.5 125t-98.5 77.5t-146.5 26.5
q-50 0 -100 -18t-97 -47.5t-88.5 -68t-73.5 -78.5q-2 -149 -2.5 -296.5t1.5 -301.5q2 0 5.5 1t16.5 6q9 4 19.5 7t23.5 4q54 2 82.5 -25.5t28.5 -78.5q0 -18 -6.5 -35.5t-17.5 -31.5t-26 -24t-33 -14q-20 -4 -39.5 -8.5t-39.5 -8.5l-38.5 -9t-40 -9t-35.5 -6.5t-26 -2.5
q-59 0 -80.5 26t-21.5 75z" />
    <glyph glyph-name="currency" unicode="&#xa4;" horiz-adv-x="1434" 
d="M195 81q-11 0 -30 5t-38 18.5t-32.5 36.5t-13.5 59q0 20 6 34.5t16 26t23.5 21l28.5 20.5q16 10 32 21.5t33 26.5l82 72q-35 55 -54 122t-19 145q0 63 14.5 121t42.5 110l-4 4q-29 32 -60 61t-68 56l-32.5 25t-27 25.5t-18 30t-6.5 37.5q0 36 13.5 58t32 33t37.5 14.5
t30 3.5q25 0 49 -12.5t46 -32t42.5 -44t38.5 -48.5q12 -17 25 -33.5t27 -31.5q59 45 132 70.5t158 25.5q88 0 159.5 -23t128.5 -64l40 47q21 26 43.5 51t45.5 45t47 32.5t49 12.5q10 0 29.5 -3.5t38.5 -15.5t33.5 -34t14.5 -58q0 -18 -17 -42t-43.5 -50.5t-58.5 -53
l-61 -49.5l-35 -28q56 -107 56 -240q0 -71 -16 -132.5t-45 -114.5l75 -64l71.5 -62t47.5 -46.5t26.5 -37.5t8.5 -34q0 -38 -14 -60.5t-33 -34.5t-38 -16t-28 -4q-31 0 -56 15t-50 41q-26 26 -46 49.5l-34 40.5v-2l-4 6q-14 14 -27 29.5t-33 33.5q-57 -39 -127 -59.5
t-148 -20.5q-74 0 -140 18t-122 52q-12 -12 -24 -26.5l-25 -29.5q-20 -26 -42.5 -52.5t-47.5 -48t-51 -35t-54 -13.5zM455 689q0 -120 64 -187.5t185 -67.5q52 0 97 16t78 47.5t52 79.5t19 112q0 53 -15.5 99.5t-46.5 81.5t-77 55t-107 20q-62 0 -108.5 -20t-78 -55
t-47 -81.5t-15.5 -99.5z" />
    <glyph glyph-name="quoteright" unicode="&#x2019;" horiz-adv-x="675" 
d="M211 1117zM370.019 1688.07q36.998 0 66.9961 -13.999t50.9971 -38.998q20.998 -24.998 31.998 -59.4961q10.999 -34.498 10.999 -74.4951q0 -26.999 -7.99902 -65.9961q-8 -38.998 -22.499 -81.9951t-34.998 -84.9951q-20.499 -41.9971 -44.9971 -75.4951
q-24.499 -33.498 -52.4971 -54.4961q-27.998 -20.999 -58.9961 -20.999q-50.9971 0 -74.4951 22.998q-23.499 22.999 -23.499 55.9971q0 31.998 12.999 58.9961t27.498 53.9971q14.5 26.998 25.999 55.4961q11.499 28.499 8.49902 61.4971q-21.998 13.998 -33.498 32.4971
q-11.499 18.499 -16.499 36.498q-4.99902 17.999 -5.99902 32.998t-1 20.999q0 30.998 11.999 56.4961q11.999 25.499 31.498 43.998q19.499 18.498 44.9971 28.498q25.499 9.99902 52.4971 9.99902z" />
    <glyph glyph-name="quoteleft" unicode="&#x2018;" horiz-adv-x="675" 
d="M305 1105q-37 0 -67 14t-51 39t-32 59.5t-11 74.5q0 27 8 66t22.5 82t35 85t45 75.5t52.5 54.5t59 21q51 0 74.5 -23t23.5 -56q0 -32 -13 -59t-27.5 -54t-26 -55.5t-8.5 -61.5q22 -14 33.5 -32.5t16.5 -36.5t6 -33t1 -21q0 -31 -12 -56.5t-31.5 -44t-45 -28.5t-52.5 -10z
" />
    <glyph glyph-name="quotedblright" unicode="&#x201d;" horiz-adv-x="1128" 
d="M211 1117zM823.019 1688.07q36.998 0 66.9961 -13.999t50.9971 -38.998q20.998 -24.998 31.998 -59.4961q10.999 -34.498 10.999 -74.4951q0 -26.999 -7.99902 -65.9961q-8 -38.998 -22.499 -81.9951t-34.998 -84.9951q-20.499 -41.9971 -44.9971 -75.4951
q-24.499 -33.498 -52.4971 -54.4961q-27.998 -20.999 -58.9961 -20.999q-50.9971 0 -74.4951 22.998q-23.499 22.999 -23.499 55.9971q0 31.998 12.999 58.9961t27.498 53.9971q14.5 26.998 25.999 55.4961q11.499 28.499 8.49902 61.4971q-21.998 13.998 -33.498 32.4971
q-11.499 18.499 -16.499 36.498q-4.99902 17.999 -5.99902 32.998t-1 20.999q0 30.998 11.999 56.4961q11.999 25.499 31.498 43.998q19.499 18.498 44.9971 28.498q25.499 9.99902 52.4971 9.99902zM370.019 1688.07q36.998 0 66.9961 -13.999t50.9971 -38.998
q20.998 -24.998 31.998 -59.4961q10.999 -34.498 10.999 -74.4951q0 -26.999 -7.99902 -65.9961q-8 -38.998 -22.499 -81.9951t-34.998 -84.9951q-20.499 -41.9971 -44.9971 -75.4951q-24.499 -33.498 -52.4971 -54.4961q-27.998 -20.999 -58.9961 -20.999
q-50.9971 0 -74.4951 22.998q-23.499 22.999 -23.499 55.9971q0 31.998 12.999 58.9961t27.498 53.9971q14.5 26.998 25.999 55.4961q11.499 28.499 8.49902 61.4971q-21.998 13.998 -33.498 32.4971q-11.499 18.499 -16.499 36.498q-4.99902 17.999 -5.99902 32.998
t-1 20.999q0 30.998 11.999 56.4961q11.999 25.499 31.498 43.998q19.499 18.498 44.9971 28.498q25.499 9.99902 52.4971 9.99902z" />
    <glyph glyph-name="quotedblleft" unicode="&#x201c;" horiz-adv-x="1128" 
d="M144 1115zM305 1115q-37 0 -67 14t-51 39t-32 59.5t-11 74.5q0 27 8 66t22.5 82t35 85t45 75.5t52.5 54.5t59 21q51 0 74.5 -23t23.5 -56q0 -32 -13 -59t-27.5 -54t-26 -55.5t-8.5 -61.5q22 -14 33.5 -32.5t16.5 -36.5t6 -33t1 -21q0 -31 -12 -56.5t-31.5 -44t-45 -28.5
t-52.5 -10zM757 1115q-37 0 -67 14t-51 39t-32 59.5t-11 74.5q0 27 8 66t22.5 82t35 85t45 75.5t52.5 54.5t59 21q51 0 74.5 -23t23.5 -56q0 -32 -13 -59t-27.5 -54t-26 -55.5t-8.5 -61.5q22 -14 33.5 -32.5t16.5 -36.5t6 -33t1 -21q0 -31 -12 -56.5t-31.5 -44t-45 -28.5
t-52.5 -10z" />
    <glyph glyph-name="quotesinglbase" unicode="&#x201a;" horiz-adv-x="675" 
d="M211 0zM370.019 220.067q36.998 0 66.9961 -13.999t50.9971 -38.998q20.998 -24.998 31.998 -59.4961q10.999 -34.498 10.999 -74.4951q0 -26.999 -7.99902 -65.9961q-8 -38.998 -22.499 -81.9951t-34.998 -84.9951q-20.499 -41.9971 -44.9971 -75.4951
q-24.499 -33.498 -52.4971 -54.4961q-27.998 -20.999 -58.9961 -20.999q-50.9971 0 -74.4951 22.998q-23.499 22.999 -23.499 55.9971q0 31.998 12.999 58.9961t27.498 53.9971q14.5 26.998 25.999 55.4961q11.499 28.499 8.49902 61.4971q-21.998 13.998 -33.498 32.4971
q-11.499 18.499 -16.499 36.498q-4.99902 17.999 -5.99902 32.998t-1 20.999q0 30.998 11.999 56.4961q11.999 25.499 31.498 43.998q19.499 18.498 44.9971 28.498q25.499 9.99902 52.4971 9.99902z" />
    <glyph glyph-name="quotedblbase" unicode="&#x201e;" horiz-adv-x="1128" 
d="M211 0zM370.019 166.067q36.998 0 66.9961 -13.999t50.9971 -38.998q20.998 -24.998 31.998 -59.4961q10.999 -34.498 10.999 -74.4951q0 -26.999 -7.99902 -65.9961q-8 -38.998 -22.499 -81.9951t-34.998 -84.9951q-20.499 -41.9971 -44.9971 -75.4951
q-24.499 -33.498 -52.4971 -54.4961q-27.998 -20.999 -58.9961 -20.999q-50.9971 0 -74.4951 22.998q-23.499 22.999 -23.499 55.9971q0 31.998 12.999 58.9961t27.498 53.9971q14.5 26.998 25.999 55.4961q11.499 28.499 8.49902 61.4971q-21.998 13.998 -33.498 32.4971
q-11.499 18.499 -16.499 36.498q-4.99902 17.999 -5.99902 32.998t-1 20.999q0 30.998 11.999 56.4961q11.999 25.499 31.498 43.998q19.499 18.498 44.9971 28.498q25.499 9.99902 52.4971 9.99902zM823.019 166.067q36.998 0 66.9961 -13.999t50.9971 -38.998
q20.998 -24.998 31.998 -59.4961q10.999 -34.498 10.999 -74.4951q0 -26.999 -7.99902 -65.9961q-8 -38.998 -22.499 -81.9951t-34.998 -84.9951q-20.499 -41.9971 -44.9971 -75.4951q-24.499 -33.498 -52.4971 -54.4961q-27.998 -20.999 -58.9961 -20.999
q-50.9971 0 -74.4951 22.998q-23.499 22.999 -23.499 55.9971q0 31.998 12.999 58.9961t27.498 53.9971q14.5 26.998 25.999 55.4961q11.499 28.499 8.49902 61.4971q-21.998 13.998 -33.498 32.4971q-11.499 18.499 -16.499 36.498q-4.99902 17.999 -5.99902 32.998
t-1 20.999q0 30.998 11.999 56.4961q11.999 25.499 31.498 43.998q19.499 18.498 44.9971 28.498q25.499 9.99902 52.4971 9.99902z" />
    <glyph glyph-name="nacute" unicode="&#x144;" horiz-adv-x="1622" 
d="M108 0zM283 74q0 18 1.5 37t3.5 37q3 27 6 59t3 72q0 78 -0.5 147.5t-2.5 143.5v6.5t-0.5 18.5t-1 41t-1.5 76l-2.5 122.5l-3.5 179.5q-13 -2 -30.5 -3.5t-41.5 -1.5q-18 0 -36.5 6t-34 18.5t-25 33t-9.5 50.5q0 54 27.5 81.5t67.5 27.5q16 0 31 -4t32 -4q20 0 41 1t41 3
q22 2 43.5 3t38.5 1q41 0 68 -27t27 -76q0 -12 -0.5 -28t-2.5 -31q34 33 77 63t93.5 53.5t108.5 37.5t123 14q127 0 222.5 -41.5t160 -120t97 -192.5t32.5 -259q0 -44 -6 -92t-16.5 -96t-25 -95.5t-32.5 -89.5q23 7 44 12t35 7q112 11 112 -102q0 -14 -3 -30.5t-12 -32
t-25 -29t-41 -22.5l-108 -25q-50 -15 -80.5 -25.5l-51 -17t-34.5 -9t-31 -1.5q-24 0 -42 11.5t-30 29t-18 38.5t-6 41q0 32 9 65t32 60q28 36 47.5 81t31.5 97t17.5 109t5.5 116q0 68 -14.5 138.5t-49 128t-91 94t-141.5 36.5q-59 0 -115.5 -18.5t-108 -49t-96.5 -69.5
t-79 -80q-1 -45 -1.5 -90.5t-0.5 -91.5q-2 -78 -3 -155t-1 -156v-46.5t2 -49.5l27 8q11 3 21.5 5.5t18.5 2.5q54 0 82 -26.5t28 -77.5q0 -38 -15 -60.5t-38 -35t-50.5 -17.5t-53.5 -8q-14 -2 -27 -3.5t-22 -4.5l-55 -15.5t-40 -6.5q-59 0 -80.5 27t-21.5 76zM900 1413
q-20 0 -39 9t-33.5 23.5t-23 32t-8.5 35.5q0 24 14.5 49.5t36 49.5t46 46l44.5 39l108 106v-1q18 19 33.5 33.5t31 24.5t32 15.5t37.5 5.5q25 0 47.5 -8t39 -23.5t26 -37.5t9.5 -50q0 -18 -9 -35t-21.5 -30.5t-25.5 -23t-21 -12.5l1 1l-50 -44l-55.5 -50.5l-56 -52.5
l-51.5 -49q-37 -34 -63 -43.5t-49 -9.5z" />
    <glyph glyph-name="oe" unicode="&#x153;" horiz-adv-x="2377" 
d="M119 600q0 130 47 244.5t129 200t193.5 135t240.5 49.5q172 0 298.5 -73t202.5 -201q81 131 203.5 202t286.5 71q100 0 185 -32t150 -87.5t108 -131t60 -162.5q14 -17 24.5 -38.5t10.5 -45.5q0 -42 -24.5 -69.5t-83.5 -41.5q-97 -21 -195 -38l-197.5 -33.5l-199.5 -33.5
t-202 -39q17 -82 51 -137t77.5 -88.5t93.5 -47.5t99 -14q77 0 133.5 13.5t98 36.5t69.5 53t49 62q19 29 47 45.5t54 16.5q24 0 43 -11t32.5 -27t20.5 -34t7 -33q0 -8 -0.5 -12.5t-2.5 -9.5q-22 -62 -62 -110t-89.5 -83.5t-106 -59.5t-111.5 -38.5t-106 -21t-89 -6.5
q-80 0 -148 20t-124 54.5t-99 81.5t-74 100q-41 -52 -96.5 -98t-119.5 -80.5t-134 -54.5t-140 -20q-126 0 -237.5 44.5t-194 126.5t-130.5 197.5t-48 258.5zM344 600q0 -95 27 -171t77.5 -129t122.5 -81t162 -28q78 0 147 25.5t121 76.5t82 128t30 179q0 84 -25.5 159.5
t-74 132.5t-119 90.5t-161.5 33.5q-93 0 -165.5 -33.5t-122 -90.5t-75.5 -132.5t-26 -159.5zM1348 669q163 37 326.5 68t331.5 69q-17 46 -44 84.5t-63 66t-82.5 42.5t-102.5 15q-163 0 -256 -87t-110 -258z" />
    <glyph glyph-name="macron" unicode="&#xaf;" horiz-adv-x="1014" 
d="M221 1465q-26 0 -50 4t-43 15.5t-30 32.5t-11 54q0 45 38 67.5t102 22.5q65 0 131 -4t138 -4q66 0 132 9t136 9q24 0 46.5 -2t39.5 -12t27 -30.5t10 -57.5q0 -33 -14 -53.5t-33.5 -31.5t-39.5 -15t-33 -4q-81 0 -164 4.5t-176 4.5q-51 0 -101 -4.5t-105 -4.5z" />
    <glyph glyph-name="ograve" unicode="&#xf2;" horiz-adv-x="1460" 
d="M109 0zM109 603q0 130 48.5 244.5t133 200t197.5 135t242 49.5q141 0 255.5 -49.5t196 -135t125.5 -200t44 -244.5q0 -95 -22.5 -179t-63.5 -154t-98.5 -125.5t-126.5 -94t-147.5 -59t-162.5 -20.5q-126 0 -239 45.5t-198 128t-134.5 199t-49.5 259.5zM340 603
q0 -95 27 -172t77.5 -131.5t122.5 -84t162 -29.5q80 0 151 27t124.5 79.5t85 130.5t31.5 180q0 84 -26.5 159.5t-76.5 131.5t-123 89t-166 33t-165 -33t-122 -89t-76 -131.5t-26 -159.5zM758 1404q-23 0 -39 4.5t-30 14t-28 23.5t-32 34v-1l-96 94.5t-103 93.5
q-33 27 -43 50t-10 55q0 17 8.5 35.5t23 33.5t33 24.5t39.5 9.5t48 -12.5t61 -43.5l87.5 -84l59 -55.5l37.5 -34t24 -20.5q8 -3 21 -13t25.5 -24t21.5 -30.5t9 -34.5q0 -57 -33.5 -88t-83.5 -31z" />
    <glyph glyph-name="oacute" unicode="&#xf3;" horiz-adv-x="1460" 
d="M109 0zM109 603q0 130 48.5 244.5t133 200t197.5 135t242 49.5q141 0 255.5 -49.5t196 -135t125.5 -200t44 -244.5q0 -95 -22.5 -179t-63.5 -154t-98.5 -125.5t-126.5 -94t-147.5 -59t-162.5 -20.5q-126 0 -239 45.5t-198 128t-134.5 199t-49.5 259.5zM340 603
q0 -95 27 -172t77.5 -131.5t122.5 -84t162 -29.5q80 0 151 27t124.5 79.5t85 130.5t31.5 180q0 84 -26.5 159.5t-76.5 131.5t-123 89t-166 33t-165 -33t-122 -89t-76 -131.5t-26 -159.5zM689 1413q-20 0 -39 9t-33.5 23.5t-23 32t-8.5 35.5q0 24 14.5 49.5t36 49.5t46 46
l44.5 39l108 106v-1q18 19 33.5 33.5t31 24.5t32 15.5t37.5 5.5q25 0 47.5 -8t39 -23.5t26 -37.5t9.5 -50q0 -18 -9 -35t-21.5 -30.5t-25.5 -23t-21 -12.5l1 1l-50 -44l-55.5 -50.5l-56 -52.5l-51.5 -49q-37 -34 -63 -43.5t-49 -9.5z" />
    <glyph glyph-name="ocircumflex" unicode="&#xf4;" horiz-adv-x="1460" 
d="M109 0zM109 603q0 130 48.5 244.5t133 200t197.5 135t242 49.5q141 0 255.5 -49.5t196 -135t125.5 -200t44 -244.5q0 -95 -22.5 -179t-63.5 -154t-98.5 -125.5t-126.5 -94t-147.5 -59t-162.5 -20.5q-126 0 -239 45.5t-198 128t-134.5 199t-49.5 259.5zM340 603
q0 -95 27 -172t77.5 -131.5t122.5 -84t162 -29.5q80 0 151 27t124.5 79.5t85 130.5t31.5 180q0 84 -26.5 159.5t-76.5 131.5t-123 89t-166 33t-165 -33t-122 -89t-76 -131.5t-26 -159.5zM428 1442q-47 0 -73 26t-26 68q0 21 4 36.5t13 29t23 26.5t35 29l64 49l51.5 39.5
l44 35.5t41.5 38q33 32 63.5 42.5t65.5 10.5t63 -17t57 -44q15 -15 41 -37.5l54 -45l53 -41t38 -26.5q45 -27 69.5 -58.5t24.5 -71.5q0 -42 -32 -66.5t-78 -24.5q-10 0 -23 3t-26 7.5t-25 11t-20 14.5q-20 19 -45.5 41l-52 44l-53 42t-49.5 35q-19 -12 -44.5 -30.5
l-52.5 -39l-53.5 -42.5t-47.5 -42q-16 -16 -40 -29t-64 -13z" />
    <glyph glyph-name="OE" unicode="&#x152;" horiz-adv-x="2438" 
d="M144 773q0 178 50.5 325t143 253t223 164.5t289.5 58.5q147 0 263.5 -45t202.5 -128v11q0 49 11.5 76t29.5 40t41.5 15t47.5 2h527q18 2 40.5 5.5t31.5 3.5q38 0 61.5 -7t37 -20.5t18 -33.5t4.5 -47q0 -38 -9.5 -61t-26 -35.5t-38.5 -16.5t-47 -4q-11 0 -29 0.5t-38 2.5
h-156.5t-95 -0.5t-54 -0.5h-32.5h-93v-317q6 0 14.5 -0.5t26.5 -0.5h49.5h84.5h131h189q11 0 25 1t28 3q18 2 42 4t52 2q27 0 48 -11t35.5 -27.5t22 -35.5t7.5 -36q0 -54 -35.5 -79t-91.5 -25l-628 -1v-599q99 0 199 -3t209 -3q30 0 55 3t48 7q21 3 42.5 5.5t47.5 2.5
q30 0 55.5 -4.5t44.5 -16t30 -31t11 -49.5q0 -44 -15 -68t-40.5 -35.5t-58 -14t-67.5 -2.5h-673q-26 0 -47.5 6t-37.5 19.5t-25 35t-9 52.5q0 15 3.5 32t8.5 32q-91 -97 -213 -151.5t-273 -54.5q-106 0 -199 28t-170.5 80t-138.5 124.5t-103.5 161.5t-64.5 192t-22 216z
M372 773q0 -75 14 -148.5t41.5 -140t68 -123t93 -98t117 -65t139.5 -23.5q79 0 144 23.5t117 65t90.5 98t64 123t38 140t12.5 148.5q0 120 -28 227.5t-85.5 189.5t-145 130t-207.5 48q-113 0 -201 -43t-148.5 -121t-92 -187.5t-31.5 -243.5z" />
    <glyph glyph-name="braceleft" unicode="{" horiz-adv-x="1014" 
d="M372 -68q0 13 2 45l5 78l6.5 107.5t6 122t4.5 124.5t2 116q0 22 -4 44t-14.5 39t-29.5 27.5t-49 10.5q-15 0 -30.5 -1.5t-33.5 -1.5q-50 0 -84.5 29.5t-34.5 88.5q0 56 30.5 83.5t78.5 27.5q15 0 30.5 -3t32.5 -3q48 0 77.5 32t29.5 104q0 32 -5 88t-11 115
q-6 57 -11 110t-5 86q0 130 15.5 216.5t48 139t83.5 74.5t123 22q34 0 76 -5.5t79.5 -20t63 -41t25.5 -68.5q0 -20 -4.5 -38t-16 -32t-30.5 -22.5t-47 -8.5q-29 0 -46.5 5t-31.5 10q-13 5 -29 10t-37 5q-17 0 -28 -11.5t-17 -31t-8 -44t-2 -49.5q0 -62 1.5 -111t3.5 -89
t4.5 -72l4.5 -60q4 -40 6.5 -83t2.5 -93q0 -39 -5.5 -76t-16 -70t-26 -59.5t-36.5 -42.5q21 -12 39.5 -33.5t32 -49t21.5 -58.5t8 -62q0 -69 -4 -139t-9 -140.5t-9 -143.5t-4 -148v-27.5t1.5 -28.5t5 -22t9.5 -9q17 0 34.5 4t35 8.5t35.5 8.5t38 3q25 -1 43.5 -12.5t30 -29
t17 -36.5t5.5 -35q0 -41 -22.5 -66t-55 -39t-68.5 -19t-62 -5q-59 0 -108.5 8t-85.5 35t-56.5 77.5t-20.5 135.5z" />
    <glyph glyph-name="braceright" unicode="}" horiz-adv-x="1014" 
d="M122 0zM629.022 -82q0 13 -2 45l-4.99902 78l-6.5 107.5t-6 122q-2.49902 62.5 -4.49902 124.5t-2 116q0 22 4 44q3.99902 22 14.499 39q10.499 17 29.498 27.5t48.9971 10.5q14.999 0 30.498 -1.5t33.498 -1.5q49.9971 0 84.4951 29.5q34.4971 29.5 34.4971 88.5
q0 56 -30.498 83.5t-78.4951 27.5q-14.999 0 -30.498 -3t-32.498 -3q-47.9971 0 -77.4951 32t-29.498 104q0 32 4.99902 88q5 56 11 115q5.99902 57 10.999 110t5 86q0 130 -15.499 216.5t-47.9971 139t-83.4951 74.5t-122.992 22q-33.998 0 -75.9961 -5.5
q-41.9971 -5.5 -79.4951 -20q-37.4971 -14.5 -62.9961 -41q-25.498 -26.5 -25.498 -68.5q0 -20 4.5 -38q4.49902 -18 15.999 -32q11.499 -14 30.498 -22.5t46.9971 -8.5q28.998 0 46.4971 5t31.498 10q12.999 5 28.998 10t36.998 5q16.999 0 27.998 -11.5t16.999 -31
t7.99902 -44q2 -24.5 2 -49.5q0 -62 -1.5 -111q-1.49902 -49 -3.49902 -89t-4.5 -72l-4.5 -60q-3.99902 -40 -6.49902 -83t-2.5 -93q0 -39 5.5 -76q5.49902 -37 15.998 -70q10.5 -33 25.999 -59.5t36.498 -42.5q-20.999 -12 -39.498 -33.5t-31.998 -49t-21.499 -58.5
q-7.99902 -31 -7.99902 -62q0 -69 4 -139q3.99902 -70 8.99902 -140.5t9 -143.5q3.99902 -73 3.99902 -148v-27.5t-1.5 -28.5t-4.99902 -22q-3.5 -9 -9.5 -9q-16.999 0 -34.498 4q-17.498 4 -34.9971 8.5t-35.498 8.5t-37.998 3q-24.998 -1 -43.4971 -12.5t-29.998 -29
q-11.5 -17.5 -16.999 -36.5q-5.5 -19 -5.5 -35q0 -41 22.499 -66q22.498 -25 54.9961 -39t68.4961 -19t61.9961 -5q58.9961 0 108.493 8t85.4951 35t56.4961 77.5q20.499 50.5 20.499 135.5z" />
    <glyph glyph-name="two" unicode="2" horiz-adv-x="1524" 
d="M125 96q0 25 10 43.5t26.5 33.5t37.5 27.5l44 25.5h-1l148 97.5t174 122.5t177 144.5t155.5 164t110.5 181.5t42 197q0 69 -28.5 124t-75 93.5t-106 59t-120.5 20.5q-72 0 -135.5 -21t-111.5 -60.5t-77.5 -98t-33.5 -133.5l8 -14.5t12 -18.5q14 -22 22 -41t8 -56
q0 -22 -10.5 -40t-27 -31t-36 -20t-38.5 -7q-47 0 -78.5 26.5t-50.5 64t-27 78t-8 69.5q0 84 24 154.5t65.5 126.5t97.5 98.5t121 70.5t136 42t141 14q116 0 218.5 -34.5t178.5 -99t120 -158.5t44 -212q0 -98 -33 -193.5t-88 -184.5t-127 -171t-149 -153.5t-154.5 -131
t-144.5 -103.5q27 0 66 0.5l79.5 1t76 0.5h56.5q75 0 151 2t164 2q32 0 62 7t65 7q20 0 37.5 -8.5t31 -24.5t21 -37.5t7.5 -46.5q0 -32 -10 -52.5t-25.5 -32.5t-34 -17t-36.5 -5q-45 0 -91 5.5t-97 6.5h-864q-25 0 -46.5 7.5t-37.5 20.5t-25.5 30.5t-9.5 37.5z" />
    <glyph glyph-name="ae" unicode="&#xe6;" horiz-adv-x="2313" 
d="M139 325q0 205 134.5 299t402.5 94h57h95.5t105 -0.5t87.5 -0.5v44q0 54 -22 99.5t-64 78t-102.5 51t-138.5 18.5q-60 0 -108 -7t-88.5 -19.5t-76.5 -29.5t-73 -38q-17 -11 -38 -11t-40 11t-33 28t-22 37.5t-8 38.5q0 10 3.5 24.5t10.5 29t18 28t25 21.5
q92 47 198.5 75.5t236.5 28.5q82 0 156.5 -14t135.5 -42.5t106 -71t67 -99.5q43 53 94 95.5t111.5 72t131.5 45t155 15.5q105 0 191.5 -38.5t151 -100.5t105 -141.5t52.5 -160.5q14 -18 26 -47t12 -62q0 -42 -25.5 -72.5t-88.5 -38.5q-68 -7 -168 -13.5t-214.5 -12.5
t-234 -11t-227.5 -9q11 -60 37 -107.5t60.5 -83t74.5 -60t79 -40t74.5 -22.5t61.5 -7q73 0 122 9.5t83 26t56.5 40t43.5 50.5q21 28 48 44.5t53 16.5q24 0 42.5 -9t31 -23.5t19.5 -32t7 -35.5q0 -22 -6 -35q-38 -83 -102 -135.5t-137.5 -82.5t-146.5 -41t-128 -11
q-74 0 -140 17t-123.5 47.5t-106 72t-86.5 91.5q-45 -53 -106 -95t-136 -71.5t-162.5 -45.5t-184.5 -16q-85 0 -162 25t-135.5 70.5t-93 109t-34.5 139.5zM1247 721l414.5 18.5t279.5 18.5q-8 48 -31 93.5t-60.5 81t-88 57t-111.5 21.5q-83 0 -149.5 -22.5t-117 -61.5
t-84.5 -92t-52 -114zM366 330q0 -36 22.5 -61.5t57 -42t75 -24.5t77.5 -8q73 0 136.5 14.5t114 38t88 54t59.5 62.5v-1q19 36 49 55q-15 49 -21 100h-56.5t-66.5 1q-20 0 -57 0.5t-81 0.5q-104 0 -178.5 -8t-123.5 -29.5t-72 -58t-23 -93.5z" />
    <glyph glyph-name="kgreenlandic" unicode="&#x138;" horiz-adv-x="1475" 
d="M214 70q0 51 7 100t7 104q0 59 -0.5 108t-1.5 96l-2 96t-2.5 107t-3 129t-2.5 163q-28 -5 -72 -5q-18 0 -36.5 6t-34 18.5t-25 33.5t-9.5 51q0 53 28 80.5t67 27.5q15 0 30.5 -4t32.5 -4q39 0 79 4t84 4q42 0 68.5 -27.5t26.5 -75.5q-2 -20 -3.5 -37.5t-3.5 -36.5
q39 46 87.5 86.5t103 71t114.5 48.5t121 18q102 0 178.5 -27t127.5 -74.5t76.5 -113t25.5 -143.5q0 -67 -18.5 -123t-49.5 -101t-70 -79t-81 -56q43 -36 66.5 -82.5t37.5 -99.5l13 -45t17 -44.5t22.5 -34t27.5 -13.5q27 0 53 9.5t55 9.5q44 0 73.5 -29.5t29.5 -83.5
q0 -43 -22.5 -69t-57 -40.5t-75.5 -19t-79 -4.5q-70 0 -115 25t-74.5 65t-46.5 89t-31 97l-19.5 64.5t-23 53.5t-31.5 36.5t-45 13.5q-75 0 -113 23t-38 83q0 53 34.5 81t91.5 28q14 0 24 -1.5t22 -3.5q24 10 56.5 27.5t62.5 45.5t50.5 67t20.5 93q0 85 -55.5 122.5
t-153.5 37.5q-66 0 -129 -34t-117 -90.5t-95.5 -130.5t-63.5 -154l3 -131v-20.5t0.5 -38.5t1.5 -76.5t2 -133.5q15 4 31.5 9.5t33.5 5.5q55 0 83 -26.5t28 -77.5q0 -38 -15 -60.5t-38.5 -35t-51.5 -17.5t-54 -8q-35 -4 -70.5 -15t-72.5 -11q-59 0 -80.5 25t-21.5 74z" />
    <glyph glyph-name="ampersand" unicode="&#x26;" horiz-adv-x="1912" 
d="M264 401q0 75 24.5 130.5t65.5 100t95 82.5l113 77q-33 43 -62.5 87t-51 90.5t-34 96.5t-12.5 106q0 93 37 166t96 123.5t134 77.5t150 27q70 0 139 -22t123.5 -68t88 -116.5t33.5 -167.5q0 -82 -29.5 -147t-78 -118.5t-112 -98.5t-131.5 -86l82 -102.5t88.5 -100.5
l92 -94.5t93.5 -84.5q51 35 88 80t61.5 96t36.5 106.5t13 111.5q-3 4 -7.5 9t-9.5 9q-8 7 -16 15.5t-14.5 20t-10.5 27t-4 37.5q0 16 6 35.5t20 36.5t36.5 28.5t54.5 11.5q47 0 77 -20.5t47 -52.5t23.5 -70.5t6.5 -73.5q0 -77 -15 -151.5t-44.5 -143.5t-74 -130.5
t-103.5 -110.5l36 -27.5t35 -23t38 -20.5t46 -19q42 -2 68 -29t26 -62q0 -17 -6.5 -36.5t-20 -36t-35 -27t-51.5 -10.5q-33 0 -63 10.5t-58.5 27t-55 36.5l-50.5 39l-34.5 27.5l-36.5 27.5q-51 -38 -108 -64t-115.5 -42t-115 -23.5t-105.5 -7.5q-118 0 -212 31.5t-160 88
t-101.5 136t-35.5 175.5zM735 903q51 30 97 61.5t81 66t55.5 72.5t20.5 81q0 48 -14 83t-38 57.5t-55.5 33t-67.5 10.5t-70 -12t-61 -37.5t-43.5 -64.5t-16.5 -92q0 -35 9.5 -69t25.5 -66.5t36 -64t41 -59.5zM488 396q0 -63 29 -106t73 -69.5t97 -37.5t100 -11q26 0 57.5 4
t64.5 13t67 23t65 35l-94.5 91l-95 97.5l-88.5 98t-76 93.5l-82.5 -56t-62.5 -52t-40 -56t-14 -67z" />
    <glyph glyph-name="ring.cap" horiz-adv-x="695" 
d="M330 1399q-71 0 -131 17.5t-103.5 54.5t-68.5 93.5t-25 134.5q0 92 31 152.5t81.5 96t113 50t125.5 14.5q71 0 128 -26t97 -70t61.5 -102t21.5 -122q0 -75 -27.5 -130t-73.5 -91t-106 -54t-124 -18zM337 1576q21 0 44.5 6t43.5 19.5t33.5 34t13.5 50.5q0 39 -10.5 67
t-28 46t-41 26.5t-48.5 8.5q-20 0 -46 -5t-50 -20t-40.5 -43t-16.5 -74q0 -33 13 -55.5t34 -36t47 -19t52 -5.5z" />
    <glyph glyph-name="dieresis.cap" horiz-adv-x="1008" 
d="M247 1649q-18 0 -37.5 7.5t-35.5 21.5t-26.5 33t-10.5 43q0 32 16.5 69.5t42 69.5t55.5 53.5t56 21.5q23 0 44.5 -10t38 -26.5t26.5 -37t10 -41.5q0 -26 -18 -61.5t-45 -67t-58.5 -53.5t-57.5 -22zM684 1642q-18 0 -37.5 7.5t-35.5 21.5t-26.5 33.5t-10.5 42.5
q0 32 19.5 68.5t48.5 68t61.5 52t59.5 20.5q23 0 43 -10t34.5 -26.5t22.5 -38t8 -45.5v-1q0 -26 -19.5 -59.5t-48 -63t-61 -50t-58.5 -20.5z" />
    <glyph glyph-name="four" unicode="4" horiz-adv-x="1552" 
d="M145 308q-21 0 -43.5 5.5t-41 18.5t-30.5 35t-12 54q0 37 14 60.5t36 37t48.5 19t51.5 6.5q64 69 121 153.5t101 180t72 198.5t36 208q1 19 2 44t1.5 58t0.5 75.5v97.5q0 28 11 49t27.5 35t37 21t40.5 7q36 0 58.5 -11.5t35 -35.5t17.5 -60.5t5 -86.5q0 -85 -13.5 -177
t-36.5 -184t-53 -180t-63.5 -164.5t-68.5 -137.5t-67 -98q125 0 254 1.5t260 3.5q-1 118 -1 243v246q0 27 10 48t26.5 35t36 21t39.5 7q19 0 39.5 -7t36.5 -21t26.5 -35t10.5 -48v-77.5t0.5 -84t0.5 -83.5v-75v-166h67.5t67.5 1q27 0 48 -10t35.5 -25.5t22.5 -34.5t8 -36
q0 -16 -5.5 -35t-17.5 -35t-31 -27t-46 -11q-33 0 -70.5 0.5t-78.5 0.5q1 -100 1 -204v-195q0 -27 -11 -46t-27.5 -32t-36 -19t-37.5 -6q-17 0 -37 6t-36.5 19t-27.5 32t-11 46v109v99t-0.5 95t-0.5 98h-257h-122.5t-119.5 -0.5t-105.5 -1t-82.5 -1.5h2q-17 -8 -35.5 -12.5
t-35 -7t-29.5 -3t-17 -0.5z" />
    <glyph glyph-name="five" unicode="5" horiz-adv-x="1695" 
d="M224 437q0 48 24 77t78 34q33 -1 61.5 -23t40.5 -60q14 -46 41 -98t74.5 -96.5t119.5 -73.5t176 -29q69 0 134 23t115.5 69t81 115.5t30.5 162.5q0 70 -22.5 137.5t-68.5 121t-117.5 86t-168.5 32.5q-93 0 -173 -18.5t-149 -59.5q-8 -56 -42.5 -91.5t-95.5 -35.5
q-24 0 -44 9.5t-34 25t-21.5 36t-7.5 42.5q0 42 13 73.5t30 60.5q3 13 5.5 45l7 87t12.5 136.5t22 194.5v-1q3 40 8 78t18 68t36.5 48.5t63.5 19.5h755q29 0 50 -9t35 -23.5t20.5 -32.5t6.5 -36q0 -21 -8 -40.5t-23.5 -34.5t-38 -23.5t-52.5 -7.5q-46 2 -120.5 3t-162.5 1.5
t-181.5 0.5h-175.5l-59 -392q34 20 75 35t83.5 24.5t84 14.5t76.5 5q142 0 252.5 -43t187 -119t116.5 -179.5t40 -224.5q0 -99 -25 -180.5t-68.5 -146t-103 -113t-128.5 -80t-145 -47.5t-152 -16q-68 0 -138 15.5t-135 44t-122.5 70t-100 93.5t-67 113.5t-24.5 131.5z" />
    <glyph glyph-name="grave.cap" horiz-adv-x="681" 
d="M345 1605q-23 0 -41.5 6.5t-34 17.5t-29 24.5t-25.5 27.5q-8 8 -17.5 18.5t-17.5 17.5q-21 19 -33 31l-21 21t-17.5 16.5l-21.5 18.5q-33 27 -42 51.5t-10 54.5q0 17 9 34.5t23.5 32t34 24t40.5 9.5q20 0 46.5 -9.5t58.5 -45.5l28 -28.5l34 -34l37 -34.5l36 -32
q8 -3 21 -13t25.5 -24t21.5 -30.5t9 -34.5q0 -57 -32 -88t-82 -31z" />
    <glyph glyph-name="acute.cap" horiz-adv-x="681" 
d="M336 1605q-51 0 -83 31t-32 88q0 18 9 34.5t21.5 30.5t25.5 24t21 13l36.5 32l36.5 34.5l34 34l28 28.5q32 36 59 45.5t47 9.5q21 0 40 -9.5t33.5 -24t23.5 -32t9 -34.5q-1 -30 -9.5 -54.5t-42.5 -51.5q-14 -11 -22 -18.5l-17 -16.5l-21 -21t-33 -31q-8 -7 -17.5 -17.5
t-17.5 -18.5q-24 -28 -54.5 -52t-74.5 -24z" />
    <glyph glyph-name="ldot" unicode="&#x140;" horiz-adv-x="790" 
d="M0 0zM254 103q0 62 3 131q2 36 3 81.5t1 90.5q0 30 -0.5 95.5t-1 155.5t-2 200l-3 229.5l-3 243.5t-3.5 243q-39 -1 -79 -4.5t-82 -3.5q-18 0 -36.5 6t-33.5 18.5t-25 33.5t-10 51q0 53 28.5 80.5t66.5 27.5q35 0 69 -4t72 -4q28 0 49 1t40.5 2.5t41.5 3t53 1.5
q42 0 68.5 -26.5t26.5 -81.5q0 -20 -3.5 -39t-8 -38t-8 -38.5t-4.5 -39.5v-1311q41 12 65.5 18t42.5 6q105 0 105 -110q0 -45 -30.5 -69.5t-87.5 -38.5l-100 -26q-34 -11 -53 -14t-41 -3q-32 0 -54.5 12t-37 31.5t-21.5 42.5t-7 46zM783 729q-34 0 -60 16.5t-44 40.5
t-27.5 51t-9.5 49q0 38 9 70t27 55t46 36t66 13q22 0 46 -10t43.5 -29t32 -47.5t12.5 -65.5q0 -21 -6.5 -51.5t-22 -59t-43 -48.5t-69.5 -20z" />
    <glyph glyph-name="lslash" unicode="&#x142;" horiz-adv-x="791" 
d="M255 138q0 62 3 131q2 36 3 81.5t1 90.5v81.5t-1 129.5l-42 -36q-14 -14 -22.5 -29t-19 -27.5t-27 -21t-45.5 -8.5q-30 0 -51.5 11.5t-36 29.5t-21 40.5t-6.5 44.5q0 37 26 63q58 59 118.5 114.5l123.5 110.5l-2 159.5l-2 167.5t-2.5 170t-2.5 167q-39 -1 -79 -4.5
t-82 -3.5q-18 0 -36.5 6t-33.5 18.5t-25 33.5t-10 51q0 53 28.5 80.5t66.5 27.5q35 0 69 -4t72 -4q28 0 49 1t40.5 2.5t41.5 3t53 1.5q42 0 68.5 -26.5t26.5 -81.5q0 -20 -3.5 -39t-8 -38t-8 -38.5t-4.5 -39.5v-420l59.5 54.5l59.5 56.5q11 11 28.5 20t37.5 9q7 0 24.5 -5
t35.5 -17.5t32 -34.5t14 -55q0 -16 -11 -35.5t-31 -43t-47.5 -51l-60.5 -59.5l-27.5 -26.5l-30 -29l-37 -34l-46.5 -42.5v-598q41 12 65.5 18t42.5 6q105 0 105 -110q0 -45 -30.5 -69.5t-87.5 -38.5l-100 -26q-34 -11 -53 -14t-41 -3q-32 0 -54.5 12t-37 31.5t-21.5 42.5
t-7 46z" />
    <glyph glyph-name="asciitilde" unicode="~" horiz-adv-x="1521" 
d="M269 368q-21 0 -42 7t-38.5 21t-28.5 35t-11 49q0 72 26 133.5t70 106.5t103.5 70.5t126.5 25.5q59 0 104.5 -13.5t82.5 -35.5t67 -49t57 -55q22 -23 45 -44t48 -37.5t53.5 -26.5t61.5 -10q36 0 62.5 33t30.5 85q5 54 35 88.5t84 34.5q57 0 89 -33.5t30 -90.5
q-2 -72 -27 -132t-67 -103.5t-98 -67.5t-118 -24q-75 0 -131 15.5t-98.5 40t-75.5 55l-62 59.5l-38.5 38.5t-39 32.5t-44 22.5t-51.5 8.5q-24 0 -41 -13t-28.5 -35t-18.5 -49.5t-11 -55.5q-6 -42 -36 -64t-71 -22z" />
    <glyph glyph-name="tilde" unicode="&#x2dc;" horiz-adv-x="1010" 
d="M167 1426q-48 0 -74.5 32.5t-26.5 92.5q0 48 18.5 92.5t51.5 78t79.5 53.5t102.5 20q40 0 73 -10t61.5 -26t52.5 -36l45 -39q30 -28 57 -47t54 -19q28 0 39 19.5t16 41.5q4 16 9.5 33t16.5 30.5t29.5 22t48.5 8.5q21 0 40.5 -6t34.5 -19.5t24 -35.5t9 -55
q0 -43 -14.5 -87t-45.5 -80t-80 -58.5t-118 -22.5q-19 0 -39.5 3t-41 8t-38.5 11.5t-31 14.5q-19 12 -44.5 35l-52 46.5t-51.5 41t-44 17.5q-15 0 -25 -6t-17 -16t-12 -22t-9 -25l-12.5 -32.5t-17 -29.5t-27 -21t-41.5 -8z" />
    <glyph glyph-name="tilde.cap" horiz-adv-x="1011" 
d="M174 1650q-48 0 -74.5 33t-26.5 93q0 48 20 90.5t55 74.5t83 50.5t104 18.5q40 0 73 -10t61.5 -26t52.5 -36l45 -39l52 -47.5t49 -19.5q23 0 42 17t24 40q3 17 9 35.5t18 33.5t32 25t52 10q22 0 41.5 -6.5t34.5 -21t24 -37.5t9 -56q0 -43 -16 -86t-48.5 -77t-83 -55
t-119.5 -21q-19 0 -40 3t-41.5 8t-38 11.5t-30.5 14.5q-21 12 -46 36.5l-50.5 50t-50 44.5t-45.5 19q-12 0 -23 -7t-20 -18t-15 -24.5t-8 -25.5q-3 -18 -9.5 -35t-19 -30.5t-31 -21.5t-45.5 -8z" />
    <glyph glyph-name="ntilde" unicode="&#xf1;" horiz-adv-x="1622" 
d="M108 0zM283 74q0 18 1.5 37t3.5 37q3 27 6 59t3 72q0 78 -0.5 147.5t-2.5 143.5v6.5t-0.5 18.5t-1 41t-1.5 76l-2.5 122.5l-3.5 179.5q-13 -2 -30.5 -3.5t-41.5 -1.5q-18 0 -36.5 6t-34 18.5t-25 33t-9.5 50.5q0 54 27.5 81.5t67.5 27.5q16 0 31 -4t32 -4q20 0 41 1t41 3
q22 2 43.5 3t38.5 1q41 0 68 -27t27 -76q0 -12 -0.5 -28t-2.5 -31q34 33 77 63t93.5 53.5t108.5 37.5t123 14q127 0 222.5 -41.5t160 -120t97 -192.5t32.5 -259q0 -44 -6 -92t-16.5 -96t-25 -95.5t-32.5 -89.5q23 7 44 12t35 7q112 11 112 -102q0 -14 -3 -30.5t-12 -32
t-25 -29t-41 -22.5l-108 -25q-50 -15 -80.5 -25.5l-51 -17t-34.5 -9t-31 -1.5q-24 0 -42 11.5t-30 29t-18 38.5t-6 41q0 32 9 65t32 60q28 36 47.5 81t31.5 97t17.5 109t5.5 116q0 68 -14.5 138.5t-49 128t-91 94t-141.5 36.5q-59 0 -115.5 -18.5t-108 -49t-96.5 -69.5
t-79 -80q-1 -45 -1.5 -90.5t-0.5 -91.5q-2 -78 -3 -155t-1 -156v-46.5t2 -49.5l27 8q11 3 21.5 5.5t18.5 2.5q54 0 82 -26.5t28 -77.5q0 -38 -15 -60.5t-38 -35t-50.5 -17.5t-53.5 -8q-14 -2 -27 -3.5t-22 -4.5l-55 -15.5t-40 -6.5q-59 0 -80.5 27t-21.5 76zM611 1426
q-48 0 -74.5 32.5t-26.5 92.5q0 48 18.5 92.5t51.5 78t79.5 53.5t102.5 20q40 0 73 -10t61.5 -26t52.5 -36l45 -39q30 -28 57 -47t54 -19q28 0 39 19.5t16 41.5q4 16 9.5 33t16.5 30.5t29.5 22t48.5 8.5q21 0 40.5 -6t34.5 -19.5t24 -35.5t9 -55q0 -43 -14.5 -87t-45.5 -80
t-80 -58.5t-118 -22.5q-19 0 -39.5 3t-41 8t-38.5 11.5t-31 14.5q-19 12 -44.5 35l-52 46.5t-51.5 41t-44 17.5q-15 0 -25 -6t-17 -16t-12 -22t-9 -25l-12.5 -32.5t-17 -29.5t-27 -21t-41.5 -8z" />
    <glyph glyph-name="sterling" unicode="&#xa3;" horiz-adv-x="1426" 
d="M71 113q0 43 25 73.5t61 51.5t75.5 32.5t68.5 16.5q31 39 50.5 89t19.5 100q0 36 -8 73.5t-18 73.5q-42 -1 -78.5 -1h-77.5q-30 0 -53 9t-38.5 24t-23.5 34t-8 40q0 17 7 36.5t21 35.5t35 26.5t50 10.5h87q-18 60 -31 129t-13 135q0 116 40 203.5t109.5 146.5t163.5 89
t202 30q77 0 154 -17.5t138.5 -57.5t99.5 -104.5t38 -157.5q0 -42 -14.5 -90t-41.5 -88.5t-66.5 -67.5t-90.5 -27q-54 0 -85.5 31t-31.5 83q0 48 25.5 82.5t73.5 36.5q4 14 5.5 26.5t1.5 17.5q0 30 -17 52.5t-46 37t-66.5 21.5t-77.5 7q-57 0 -110 -14.5t-93 -45.5t-64 -79
t-24 -115q0 -68 18.5 -135t40.5 -127q70 1 140 1h133q28 0 49 -10.5t35 -26t21 -35t7 -37.5q0 -19 -8 -38t-24 -34t-38.5 -24.5t-52.5 -9.5h-53.5h-42t-42.5 -0.5t-53 -0.5q10 -37 15 -74.5t5 -79.5q0 -47 -5.5 -89.5t-22.5 -84.5q38 -6 72 -17.5t68 -24.5
q51 -18 105.5 -34.5t111.5 -16.5q38 0 71.5 13t50.5 48q18 36 48 55.5t59 19.5q21 0 40.5 -7.5t34.5 -21t24 -34t9 -45.5q0 -60 -33 -105.5t-83 -76t-111 -46.5t-116 -16q-75 0 -134.5 17t-113.5 37l-100 32.5t-105 15.5q-11 0 -26 -1t-29 -3q-45 -37 -96 -66t-107 -29
q-21 0 -44.5 6.5t-44 21t-34 37.5t-13.5 57z" />
    <glyph glyph-name="circumflex.cap" horiz-adv-x="1009" 
d="M266 1622q-46 0 -72 25t-26 58q0 41 18 73.5t60 59.5q18 12 38 27l39.5 30.5t37 31l31.5 28.5q33 32 63.5 43.5t63.5 11.5q35 0 63.5 -16.5t57.5 -45.5q15 -15 35 -32l40.5 -33l39.5 -29.5t31 -19.5q53 -29 73.5 -59t20.5 -71q0 -42 -31 -65.5t-78 -23.5q-10 0 -23 3
t-26 7.5t-25 11t-20 12.5l-43.5 37l-38.5 32.5t-38 29.5l-41 29q-20 -12 -37 -23.5t-33.5 -25l-34.5 -29.5l-40 -37q-17 -16 -40.5 -28t-64.5 -12z" />
    <glyph glyph-name="cedilla" unicode="&#xb8;" horiz-adv-x="1217" 
d="M352 -311q17 0 32 -6t29.5 -13t29.5 -13t32 -6q40 0 62 14.5t22 47.5q0 24 -5.5 38.5t-14 24.5t-18 18t-18 18.5t-14 25.5t-4.5 40q0 8 6 20t17 23t26.5 19t34.5 8q34 0 70.5 -22t66.5 -55.5t49 -73.5t19 -76q0 -61 -23.5 -110t-65.5 -84t-100.5 -54t-128.5 -19
q-44 0 -82.5 10.5t-68 28.5t-46.5 43t-17 54t10.5 48t27 30.5t35.5 16t37 4.5z" />
    <glyph glyph-name="ccedilla" unicode="&#xe7;" horiz-adv-x="1385" 
d="M114 0zM114 604q0 81 16.5 159t51 148t87 128.5t125 101.5t165 67t207.5 24q72 0 134 -16t104 -43q5 30 17.5 49t29 29.5t35.5 14.5t37 4q48 0 75 -26t27 -68q0 -22 -3 -44.5t-3 -48.5q0 -46 10 -90t10 -89q0 -48 -25 -81.5t-77 -33.5q-27 0 -44.5 6.5t-30 18t-21.5 27
t-18 33.5q-12 24 -28.5 49.5t-47.5 46t-82 33.5t-132 13q-95 0 -166.5 -35.5t-119 -94.5t-71.5 -136t-24 -160q0 -64 22 -135t69.5 -131t121 -99t175.5 -39q38 0 80 9t83 27t78 44.5t64 61.5q17 21 45.5 39t58.5 16t50 -12.5t32 -26t16 -34t3 -35.5q-3 -43 -24 -78.5
t-46 -63.5q-46 -46 -101 -77t-114 -50t-119 -27t-116 -8q-135 0 -248.5 50.5t-195 136.5t-127 201.5t-45.5 244.5zM519 -311q17 0 32 -6t29.5 -13t29.5 -13t32 -6q40 0 62 14.5t22 47.5q0 24 -5.5 38.5t-14 24.5t-18 18t-18 18.5t-14 25.5t-4.5 40q0 8 6 20t17 23t26.5 19
t34.5 8q34 0 70.5 -22t66.5 -55.5t49 -73.5t19 -76q0 -61 -23.5 -110t-65.5 -84t-100.5 -54t-128.5 -19q-44 0 -82.5 10.5t-68 28.5t-46.5 43t-17 54t10.5 48t27 30.5t35.5 16t37 4.5z" />
    <glyph glyph-name="caron.cap" horiz-adv-x="1009" 
d="M506 1595q-34 0 -66 11.5t-64 42.5l-196 161l-29 24.5t-19.5 22t-11 24.5t-3.5 33q0 42 25.5 69t73.5 27q41 0 64 -13.5t40 -30.5l185 -137q46 31 94.5 69t88.5 76q10 13 22.5 20.5t25 11t24.5 4t22 0.5q23 0 43 -8t35 -21.5t23.5 -31.5t8.5 -38q0 -41 -26 -65.5
t-69 -49.5q-26 -14 -54 -37.5l-59 -49.5l-47 -41.5t-45.5 -36.5t-44 -26t-41.5 -10z" />
    <glyph glyph-name="caron" unicode="&#x2c7;" horiz-adv-x="1009" 
d="M502 1431q-34 0 -64.5 11.5t-62.5 43.5q-45 43 -97 79t-106 80q-20 17 -34.5 32t-23.5 30t-13 32t-4 38q0 42 26 67.5t73 25.5q41 0 64 -13t40 -28q46 -43 98 -78t101 -77l49.5 36l53 42l51.5 43.5t45 40.5q7 8 19 15t25.5 11.5t26.5 7t23 2.5q23 0 43 -7.5t35 -21
t23.5 -31.5t8.5 -39q0 -42 -23 -73t-72 -59q-12 -6 -37.5 -26.5l-55 -45.5l-58 -50.5l-46.5 -41.5q-23 -19 -46 -32.5t-62 -13.5z" />
    <glyph glyph-name="otilde" unicode="&#xf5;" horiz-adv-x="1460" 
d="M109 0zM109 603q0 130 48.5 244.5t133 200t197.5 135t242 49.5q141 0 255.5 -49.5t196 -135t125.5 -200t44 -244.5q0 -95 -22.5 -179t-63.5 -154t-98.5 -125.5t-126.5 -94t-147.5 -59t-162.5 -20.5q-126 0 -239 45.5t-198 128t-134.5 199t-49.5 259.5zM340 603
q0 -95 27 -172t77.5 -131.5t122.5 -84t162 -29.5q80 0 151 27t124.5 79.5t85 130.5t31.5 180q0 84 -26.5 159.5t-76.5 131.5t-123 89t-166 33t-165 -33t-122 -89t-76 -131.5t-26 -159.5zM400 1426q-48 0 -74.5 32.5t-26.5 92.5q0 48 18.5 92.5t51.5 78t79.5 53.5t102.5 20
q40 0 73 -10t61.5 -26t52.5 -36l45 -39q30 -28 57 -47t54 -19q28 0 39 19.5t16 41.5q4 16 9.5 33t16.5 30.5t29.5 22t48.5 8.5q21 0 40.5 -6t34.5 -19.5t24 -35.5t9 -55q0 -43 -14.5 -87t-45.5 -80t-80 -58.5t-118 -22.5q-19 0 -39.5 3t-41 8t-38.5 11.5t-31 14.5
q-19 12 -44.5 35l-52 46.5t-51.5 41t-44 17.5q-15 0 -25 -6t-17 -16t-12 -22t-9 -25l-12.5 -32.5t-17 -29.5t-27 -21t-41.5 -8z" />
    <glyph glyph-name="eth" unicode="&#xf0;" horiz-adv-x="1355" 
d="M85 598q0 121 37.5 233t110.5 198t180.5 137.5t247.5 51.5q32 0 68.5 -4t74 -11.5t72.5 -18t64 -24.5q-46 99 -117.5 190t-162.5 164l-55 -64l-63 -76q-14 -10 -35 -20t-44 -10q-15 0 -33 5t-34 17t-26.5 31.5t-10.5 47.5q0 18 9 41t28 43l47 48.5l45 47.5q-45 21 -90 37
t-93 26q-48 16 -70 45.5t-22 62.5q0 27 13 47.5t33.5 34t45.5 19t49 2.5q60 -11 130 -40.5t145 -72.5l99 113q14 15 34 26.5t40 11.5q23 0 44 -6t37.5 -18.5t26 -31.5t9.5 -44q0 -11 -4 -25t-11 -28t-15.5 -26.5t-17.5 -21.5l-68 -66q86 -66 157.5 -139t116.5 -147
q97 -174 145 -357.5t48 -389.5q0 -146 -40.5 -268.5t-117 -211t-186.5 -137.5t-249 -49q-117 0 -224 46t-189 129t-130.5 198t-48.5 254zM314 590q0 -92 31.5 -166.5t83 -127.5t117 -82t134.5 -29q78 0 143.5 25.5t112.5 84t73.5 154t26.5 235.5q0 20 -1 50.5t-5 61.5
t-12.5 59t-23.5 44q-33 34 -74 55.5t-85 34t-88 17t-84 4.5q-79 0 -143.5 -30t-110 -85t-70.5 -132.5t-25 -172.5z" />
    <glyph glyph-name="commaaccent" unicode="&#xf6c3;" horiz-adv-x="506" 
d="M218 -216q0 48 28.5 79.5t89.5 31.5q41 0 64 -16t34.5 -42t14 -58.5t2.5 -66.5q0 -45 -18 -91.5t-48 -84.5t-68.5 -62t-78.5 -24q-89 0 -89 89q0 30 11.5 48.5t25.5 34.5t25.5 34t11.5 47q0 19 -2.5 38.5t-2.5 42.5z" />
    <glyph glyph-name="kcommaaccent" unicode="&#x137;" horiz-adv-x="1488" 
d="M33 0zM208 70q0 51 7 100t7 104q0 59 -0.5 152.5t-1.5 206.5t-2 239.5t-2.5 250.5l-3 239.5t-2.5 207.5q-28 -5 -72 -5q-18 0 -36.5 6t-34 18.5t-25 33.5t-9.5 51q0 53 28 80.5t67 27.5q15 0 30.5 -4t32.5 -4q40 0 79.5 4t83.5 4q42 0 68.5 -27.5t26.5 -75.5
q-2 -27 -4 -50t-4 -50t-4 -61t-2 -83q-2 -136 -3.5 -254.5t-2.5 -215.5q37 51 86.5 99.5t110 85.5t131.5 59.5t151 22.5q96 0 169 -25.5t121.5 -72t73 -113t24.5 -147.5q0 -67 -20.5 -123t-54 -101t-76.5 -79t-88 -56q43 -36 66.5 -82.5t37.5 -99.5l13 -45t17 -44.5
t22.5 -34t27.5 -13.5q27 0 53 9.5t55 9.5q44 0 73.5 -29.5t29.5 -83.5q0 -43 -22.5 -69t-57 -40.5t-75.5 -19t-79 -4.5q-70 0 -115 25t-74.5 65t-46.5 89t-31 97l-19.5 64.5t-23 53.5t-31.5 36.5t-45 13.5q-75 0 -113 23t-38 83q0 53 34.5 81t91.5 28q14 0 24.5 -1.5
t21.5 -3.5q26 10 62 27.5t69 45.5t56 67t23 93q0 93 -55.5 130t-154.5 37q-68 0 -134 -35t-122.5 -93t-100 -133.5t-67.5 -156.5l3 -129v-20.5t0.5 -38.5t1.5 -76.5t2 -133.5q15 4 31.5 9.5t33.5 5.5q55 0 83 -26.5t28 -77.5q0 -38 -15 -60.5t-38.5 -35t-51.5 -17.5t-54 -8
q-35 -4 -70.5 -15t-72.5 -11q-59 0 -80.5 25t-21.5 74zM708 -216q0 48 28.5 79.5t89.5 31.5q41 0 64 -16t34.5 -42t14 -58.5t2.5 -66.5q0 -45 -18 -91.5t-48 -84.5t-68.5 -62t-78.5 -24q-89 0 -89 89q0 30 11.5 48.5t25.5 34.5t25.5 34t11.5 47q0 19 -2.5 38.5t-2.5 42.5z
" />
    <glyph glyph-name="bracketleft" unicode="[" horiz-adv-x="848" 
d="M149 -146q0 207 5.5 415.5t7.5 423.5v102q0 208 -6 421t-6 446q0 156 118 156h224q23 0 47 2.5t51 3.5q29 0 47.5 -9.5t29.5 -24t15.5 -33t4.5 -36.5q0 -40 -16 -62t-38 -32.5t-45 -13t-37 -2.5t-30.5 1t-43.5 1h-100l-3 -1705h41.5t27.5 0.5t18 1t13 0.5l61 2
q28 0 49 -11t34.5 -27.5t20.5 -36.5t7 -38q0 -15 -4.5 -32.5t-14.5 -33.5t-26.5 -28.5t-39.5 -17.5q-24 -6 -53 -6q-6 0 -16.5 0.5t-34 1t-65.5 2t-111 4.5q-41 0 -67 15t-40.5 38.5t-19.5 53t-5 58.5z" />
    <glyph glyph-name="bracketright" unicode="]" horiz-adv-x="848" 
d="M160 0zM698.009 -146q0 207 -5.49902 415.5q-5.5 208.5 -7.5 423.5v102q0 208 6 421q5.99902 213 5.99902 446q0 156 -117.992 156h-223.986q-22.999 0 -46.9971 2.5q-23.999 2.5 -50.9971 3.5q-28.998 0 -47.4971 -9.5t-29.498 -24q-11 -14.5 -15.499 -33
q-4.5 -18.5 -4.5 -36.5q0 -40 15.999 -62t37.998 -32.5q21.998 -10.5 44.9971 -13q22.998 -2.5 36.9971 -2.5q14 0 30.498 1q16.5 1 43.498 1h99.9941l2.99902 -1705h-41.4971t-27.498 0.5q-11 0.5 -17.999 1q-7 0.5 -12.999 0.5l-60.9971 2q-27.998 0 -48.9971 -11
q-20.998 -11 -34.4971 -27.5t-20.499 -36.5t-7 -38q0 -15 4.5 -32.5t14.499 -33.5q10 -16 26.499 -28.5q16.498 -12.5 39.4971 -17.5q23.999 -6 52.9971 -6q5.99902 0 16.499 0.5q10.499 0.5 33.998 1q23.498 0.5 65.4951 2q41.998 1.5 110.994 4.5q40.9971 0 66.9951 15
q25.999 15 40.498 38.5t19.499 53q4.99902 29.5 4.99902 58.5z" />
    <glyph glyph-name="AE" unicode="&#xc6;" horiz-adv-x="1995" 
d="M70 -28q-26 0 -49.5 8t-41.5 23t-28.5 37t-10.5 50q0 38 13 63.5t40 57.5q21 26 59 80.5l88 128.5l109 163l121.5 184l125 192l119.5 187l105.5 169l83.5 137q25 50 66.5 76t103.5 26q6 0 16.5 -1l21.5 -2t22 -3t18 -3h467q61 0 97.5 -5.5t55.5 -17t24.5 -30t5.5 -44.5
q0 -42 -11 -64.5t-29 -33t-40 -13t-44 -2.5l-483 -1l6 -319q24 0 63.5 -0.5t85 -0.5h93.5h88.5h69.5h37q35 0 71.5 4.5t78.5 4.5q27 0 48 -11t35 -27.5t21.5 -35.5t7.5 -36q0 -54 -35 -79t-91 -25l-573 -1v-242t0.5 -165.5t1 -105t1 -59.5t1 -30t1.5 -16h449q23 0 45.5 4.5
t45 10t45.5 10t47 4.5q26 0 48 -5t37.5 -17t24.5 -33t9 -53q0 -20 -2.5 -39.5t-19.5 -35t-55 -25.5t-108 -11h-691q-51 -1 -84.5 26.5t-33.5 84.5q0 20 4 43t18 36l-7 308q-31 2 -60 2.5t-61 0.5q-26 0 -54 -0.5t-65 -1.5t-85.5 -3t-115.5 -4l-72.5 -113.5l-63.5 -103.5
l-51.5 -90t-36.5 -71q-12 -34 -22.5 -60.5t-25.5 -45t-37.5 -27.5t-57.5 -9zM875 713l-9 429l-142 -214l-148 -219z" />
    <glyph glyph-name="nonbreakingspace" unicode="&#xa0;" horiz-adv-x="769" 
 />
    <glyph glyph-name="D" unicode="D" horiz-adv-x="1631" 
d="M229 117q0 46 4 90t4 103q0 266 -1.5 533t-9.5 540q-11 21 -19.5 46t-8.5 43q0 43 23.5 72.5t80.5 29.5q29 0 57 -7.5t60 -7.5q70 0 139 7.5t141 7.5q147 0 263.5 -28.5t204.5 -79t150 -120t100.5 -152t56.5 -175t18 -187.5q0 -85 -17.5 -181.5t-57.5 -191t-104 -181
t-158 -152.5t-219.5 -105.5t-287.5 -39.5q-38 0 -75.5 3.5t-75.5 8t-76.5 8t-78.5 3.5q-61 0 -87 28t-26 85zM452 220q21 -6 50.5 -9.5t59.5 -5.5t56.5 -2.5t41.5 -0.5q124 0 217 31t159.5 81t110.5 113t69.5 127t35.5 123t10 101q0 166 -39.5 276.5t-116 176.5t-188 93
t-256.5 27q-19 0 -46.5 -1l-57.5 -2t-59.5 -3t-52.5 -3z" />
    <glyph glyph-name="R" unicode="R" horiz-adv-x="1572" 
d="M205 111q0 22 2 43t4 39v256v218.5v190.5v172.5t0.5 164t0.5 164.5q-5 14 -9.5 39t-4.5 47q0 21 6.5 42t20 37.5t33.5 26.5t46 10q42 0 85 -5t97 -5q45 0 90 4.5t96 5.5q151 0 273.5 -30t209 -93t133.5 -160.5t47 -232.5q0 -128 -35.5 -227.5t-91 -173.5t-124 -123.5
t-133.5 -75.5q9 -54 28.5 -101.5t50 -83.5t71.5 -57t92 -21q38 0 69.5 12t54.5 47q14 20 34 35.5t51 15.5q54 0 84 -30t30 -76q0 -43 -24.5 -82t-69 -68.5t-107.5 -47t-140 -17.5q-71 0 -128.5 20.5t-103 55t-80.5 79t-60 93t-41 96.5t-25 90h-32h-41t-41.5 0.5t-33.5 0.5
q-29 1 -71.5 1.5t-77.5 0.5v-146q2 -47 12 -91.5t10 -91.5q0 -29 -11.5 -49t-29.5 -33.5t-39 -19.5t-40 -6q-30 0 -55 10.5t-43 29t-28.5 44t-10.5 56.5zM439 623q26 -1 61 -2l67 -2t57 -1.5t32 -0.5q135 0 221.5 37t135.5 98t67.5 140t18.5 162q0 73 -23 123.5t-61 83.5
t-86 52t-97.5 28t-97 11t-83.5 2q-51 0 -103.5 -1.5t-113.5 -2.5q-2 -38 -2.5 -69l-1 -60.5t-0.5 -60v-68.5q0 -68 0.5 -126.5t1.5 -114t2.5 -111.5t4.5 -117zM908 431q-1 0 -1 -1zM906 430h1h-1z" />
    <glyph glyph-name="A" unicode="A" horiz-adv-x="1568" 
d="M35 77q0 32 9 64.5t33 65.5q17 29 46.5 88l66.5 139l79.5 174.5l86.5 193l87.5 197l82.5 185l71 156.5t54 113q3 22 12 43.5t24 39t36 28t49 10.5q36 0 58.5 -10t37 -27.5t23.5 -40.5t18 -49l15 -43.5t13 -31.5l130.5 -270l126 -276.5l126.5 -284.5l133 -293l19 -28
l19 -26.5t20.5 -33.5t16 -38t6.5 -40q0 -60 -34 -85.5t-83 -25.5q-27 0 -49.5 8.5t-39.5 23t-27 34t-13 41.5l-52 114.5l-46.5 103.5l-43.5 97.5l-42 95.5q-16 0 -45 0.5t-65 2.5q-57 0 -115.5 1t-119.5 1.5t-126 0t-136 -3.5q-11 -1 -21 -1.5t-21 -0.5l-53 -129.5
l-45 -113.5l-35.5 -92.5t-23.5 -65.5v1q-6 -22 -13.5 -43t-21.5 -37.5t-38.5 -27t-64.5 -10.5q-54 0 -89.5 27t-35.5 79zM546 707h54.5t87 -0.5t131.5 -1t189 -1.5l-104 225.5l-137 292.5l-49 -112l-54.5 -127l-58 -136z" />
    <glyph glyph-name="uni0015" 
 />
    <glyph glyph-name="uni0016" 
 />
    <glyph glyph-name="uni0017" 
 />
    <glyph glyph-name="uni0018" 
 />
    <glyph glyph-name="uni0019" 
 />
    <glyph glyph-name="uni00AD" unicode="&#xad;" horiz-adv-x="1217" 
 />
    <glyph glyph-name="Lslash" unicode="&#x141;" horiz-adv-x="1119" 
d="M218 111q0 29 8.5 57.5t8.5 60.5l-4 333h-1q-6 -8 -14.5 -17t-20 -17t-27 -13.5t-35.5 -5.5q-21 0 -41 10.5t-36 27.5t-25.5 40t-9.5 48q0 19 11 37.5t28 32.5l167 114l-7 604q1 76 26.5 112.5t87.5 36.5q34 0 57 -6t37 -21t19.5 -39t5.5 -60v-150q-1 -62 -1 -145.5
v-179.5l221 151q11 8 28 15t33 7q48 0 74.5 -25t26.5 -85q0 -26 -15 -44t-30 -31l-53.5 -39l-79.5 -57l-98 -68.5l-107 -73.5v-140.5v-134t0.5 -121.5t0.5 -102q117 0 197.5 0.5t132.5 2.5q28 2 56 6.5t60 4.5q66 0 100.5 -30t34.5 -88q0 -39 -15 -62.5t-39.5 -36t-55 -16.5
t-61.5 -4h-531q-25 0 -46 4.5t-36 16.5t-23.5 33.5t-8.5 56.5z" />
    <glyph glyph-name="germandbls" unicode="&#xdf;" horiz-adv-x="1491" 
d="M237 71v239t-0.5 191.5t-0.5 164.5v158h-51q-36 0 -61 10.5t-40.5 27t-22 36t-6.5 38.5q0 22 7 41.5t22.5 34.5t40.5 24t62 9h49v20t0.5 23t0.5 38.5v66.5q0 139 40.5 237.5t109.5 161t160 91.5t192 29q92 0 171 -22.5t136.5 -66.5t90.5 -109t33 -151q0 -54 -13.5 -102.5
t-35.5 -90.5t-49.5 -75.5t-54.5 -57.5q-33 -26 -43.5 -40t-10.5 -26q0 -5 7.5 -11.5t19 -13l26 -14t29.5 -14.5q204 -104 300 -227t96 -284q0 -78 -27 -156t-79.5 -140.5t-130 -102t-178.5 -39.5q-105 0 -186 24t-137 66t-85 97.5t-29 118.5q0 54 32 87.5t86 33.5
q30 0 50.5 -10.5t34 -27t21.5 -36t13 -37.5q5 -20 12 -31q3 -9 17 -21.5t37.5 -24t55.5 -19.5t71 -8q44 0 78.5 20.5t58 52.5t36 72t12.5 78q0 60 -14.5 106t-45 85t-78.5 73.5t-114 71.5l-71.5 39t-71.5 47t-55.5 58.5t-22.5 71.5q0 57 22.5 94t54.5 68q25 22 49 47
t42.5 54t29.5 63t11 75q0 33 -15 61t-41.5 48.5t-63.5 32t-81 11.5q-47 0 -95 -14t-86.5 -49t-62.5 -94t-24 -148v-231v-197t0.5 -176.5t0.5 -168.5v-172v-189q0 -26 -11.5 -45t-29 -32t-38 -19t-37.5 -6t-37.5 6t-38.5 19t-30.5 32t-12.5 45z" />
    <glyph glyph-name="threesuperior" unicode="&#xb3;" horiz-adv-x="1186" 
d="M567 725q-75 0 -153.5 25.5t-142 73.5t-104 117.5t-40.5 157.5q0 31 6.5 66.5t22 65.5t40.5 50t62 20q14 0 33.5 -4.5t37 -16.5t30 -32.5t12.5 -52.5q0 -13 -3.5 -25.5t-8 -24.5t-8 -24.5t-3.5 -25.5q0 -40 20.5 -71.5t52 -53t70.5 -33t75 -11.5q35 0 73.5 8t70.5 26
t52.5 47t20.5 70q0 43 -13.5 73.5t-35.5 50t-49 28.5t-55 9q-23 0 -44.5 -4.5t-46.5 -4.5q-51 0 -76.5 28.5t-25.5 73.5q0 24 20 55t48.5 64t60.5 66t55 61l-320 -3q-54 0 -82 28t-28 70q0 17 6 34t18.5 30.5t32 21.5t47.5 8h545q48 0 76.5 -29t28.5 -75q0 -21 -16 -48.5
t-43 -61t-63.5 -71.5l-78.5 -79q56 -18 105.5 -42.5t86.5 -61t58.5 -89t21.5 -125.5q0 -61 -18.5 -112t-51 -90.5t-76.5 -69t-94 -49t-103.5 -29t-105.5 -9.5z" />
    <glyph glyph-name="twosuperior" unicode="&#xb2;" horiz-adv-x="1186" 
d="M274 733q-51 0 -81 27.5t-30 70.5q0 16 8.5 36t30.5 40q45 42 100 83l111 83l108.5 84.5t93.5 87.5t66 93t25 100q0 34 -13 59.5t-35 43t-49.5 26.5t-56.5 9q-32 0 -62 -8.5t-53 -24.5t-37.5 -39t-14.5 -53q0 -13 4.5 -24.5t10 -23.5t10 -24t4.5 -26q0 -23 -10.5 -41
t-26 -30.5t-34.5 -19t-37 -6.5q-45 0 -74 22.5t-45.5 53.5t-22.5 64.5t-6 54.5q0 26 7.5 52.5t20.5 52.5t29 50t33 45q27 32 65.5 56t80.5 39.5t84 23.5t77 8q78 0 147 -23t120.5 -66.5t81.5 -107t30 -144.5q0 -74 -29.5 -144.5t-76.5 -134t-107 -120t-120 -103.5h270
q7 1 16.5 2.5t19.5 1.5q41 0 69.5 -26.5t28.5 -77.5q0 -32 -10.5 -52.5t-26.5 -32t-35 -15.5t-35 -4l-624 2v0z" />
    <glyph glyph-name="onehalf" unicode="&#xbd;" horiz-adv-x="2390" 
d="M157 0zM1480 3q-51 0 -81 27.5t-30 70.5q0 16 8.5 36t30.5 40q45 42 100 83l111 83l108.5 84.5t93.5 87.5t66 93t25 100q0 34 -13 59.5t-35 43t-49.5 26.5t-56.5 9q-32 0 -62 -8.5t-53 -24.5t-37.5 -39t-14.5 -53q0 -13 4.5 -24.5t10 -23.5t10 -24t4.5 -26
q0 -23 -10.5 -41t-26 -30.5t-34.5 -19t-37 -6.5q-45 0 -74 22.5t-45.5 53.5t-22.5 64.5t-6 54.5q0 26 7.5 52.5t20.5 52.5t29 50t33 45q27 32 65.5 56t80.5 39.5t84 23.5t77 8q78 0 147 -23t120.5 -66.5t81.5 -107t30 -144.5q0 -74 -29.5 -144.5t-76.5 -134t-107 -120
t-120 -103.5h270q7 1 16.5 2.5t19.5 1.5q41 0 69.5 -26.5t28.5 -77.5q0 -32 -10.5 -52.5t-26.5 -32t-35 -15.5t-35 -4l-624 2v0zM560 706q-68 0 -97 29t-29 83q0 166 3 332.5t5 345.5q-28 -14 -47 -25l-40 -24q-24 -14 -44.5 -23.5t-43.5 -9.5q-28 0 -48.5 10.5t-34 27
t-20.5 37t-7 40.5q0 31 12 51.5t30.5 34.5t40 22.5t41.5 15.5q10 2 49 18.5l119 48.5q16 10 44.5 25t71.5 15q20 0 39 -3.5t34 -13t24.5 -27t10.5 -44.5q-2 -60 -3 -137t-1 -167v-121.5t1 -127.5q1 -68 1.5 -136.5t0.5 -136.5q0 -34 -5 -60t-17.5 -44t-34 -27t-55.5 -9z
M635 73q0 24 9 48.5t22 43.5l-1 -1l200 468l145 341l98.5 233l61 144.5l31.5 75.5l11 27q7 20 15 39t19.5 34t28 24t42.5 9q19 0 39.5 -6.5t37.5 -19t28 -32t11 -44.5q0 -16 -5.5 -39t-13.5 -40l-553 -1312v1q-5 -18 -10.5 -35t-16 -30.5t-27 -22t-43.5 -8.5q-32 0 -56 8.5
t-40 23t-24.5 32.5t-8.5 38z" />
    <glyph glyph-name="threequarters" unicode="&#xbe;" horiz-adv-x="2557" 
d="M1362 93q0 34 8 56t21.5 35t31 19t35.5 8q49 49 84 112t57.5 136t33.5 154t11 166q0 36 14 58t35 33.5t44 15.5t41 4q64 0 89 -42.5t25 -130.5q0 -72 -15 -139.5t-40.5 -132.5t-59.5 -128t-72 -124q30 0 66.5 0.5t76 1.5l80.5 2l79 2v309q0 27 10 47.5t26 35t36 21.5
t40 7q19 0 39 -7t36 -21.5t26.5 -35t10.5 -47.5v-162v-67.5t1 -69.5l96 3q26 -1 47 -11t36 -26t23 -34.5t8 -35.5q0 -16 -6 -35t-18.5 -35t-33 -26.5t-48.5 -10.5h-103v-267q0 -27 -11 -47t-27.5 -33t-36 -19t-36.5 -6q-19 0 -39 6t-36.5 19t-27 33t-10.5 47v128
q0 33 -0.5 67.5t-0.5 71.5l-444 -3h2q-21 -8 -37.5 -11t-43.5 -3q-20 0 -42 5.5t-40 19t-29.5 34.5t-11.5 53zM562 725q-75 0 -153.5 25.5t-142 73.5t-104 117.5t-40.5 157.5q0 31 6.5 66.5t22 65.5t40.5 50t62 20q14 0 33.5 -4.5t37 -16.5t30 -32.5t12.5 -52.5
q0 -13 -3.5 -25.5t-8 -24.5t-8 -24.5t-3.5 -25.5q0 -40 20.5 -71.5t52 -53t70.5 -33t75 -11.5q35 0 73.5 8t70.5 26t52.5 47t20.5 70q0 43 -13.5 73.5t-35.5 50t-49 28.5t-55 9q-23 0 -44.5 -4.5t-46.5 -4.5q-51 0 -76.5 28.5t-25.5 73.5q0 24 20 55t48.5 64t60.5 66t55 61
l-320 -3q-54 0 -82 28t-28 70q0 17 6 34t18.5 30.5t32 21.5t47.5 8h545q48 0 76.5 -29t28.5 -75q0 -21 -16 -48.5t-43 -61t-63.5 -71.5l-78.5 -79q56 -18 105.5 -42.5t86.5 -61t58.5 -89t21.5 -125.5q0 -61 -18.5 -112t-51 -90.5t-76.5 -69t-94 -49t-103.5 -29t-105.5 -9.5z
M823 73q0 24 9 48.5t22 43.5l-1 -1l200 468l145 341l98.5 233l61 144.5l31.5 75.5l11 27q7 20 15 39t19.5 34t28 24t42.5 9q19 0 39.5 -6.5t37.5 -19t28 -32t11 -44.5q0 -16 -5.5 -39t-13.5 -40l-553 -1312v1q-5 -18 -10.5 -35t-16 -30.5t-27 -22t-43.5 -8.5q-32 0 -56 8.5
t-40 23t-24.5 32.5t-8.5 38z" />
    <glyph glyph-name="onequarter" unicode="&#xbc;" horiz-adv-x="2390" 
d="M1184 93q0 34 8 56t21.5 35t31 19t35.5 8q49 49 84 112t57.5 136t33.5 154t11 166q0 36 14 58t34.5 33.5t44 15.5t41.5 4q64 0 89 -42.5t25 -130.5q0 -72 -15 -139.5t-40.5 -132.5t-59.5 -128t-72 -124q30 0 66.5 0.5t76 1.5l80.5 2l79 2v309q0 27 10 47.5t25.5 35
t35.5 21.5t40 7q19 0 39.5 -7t36.5 -21.5t26.5 -35t10.5 -47.5v-162v-67.5t1 -69.5l96 3q26 -1 47 -11t36 -26t23 -34.5t8 -35.5q0 -16 -6 -35t-19 -35t-33 -26.5t-48 -10.5h-103v-267q0 -27 -11 -47t-27.5 -33t-36 -19t-37.5 -6t-38 6t-36.5 19t-27 33t-10.5 47v128
q0 33 -0.5 67.5t-0.5 71.5l-444 -3h2q-21 -8 -38 -11t-43 -3q-21 0 -42.5 5.5t-39.5 19t-29.5 34.5t-11.5 53zM559 706q-68 0 -97 29t-29 83q0 166 3 332.5t5 345.5q-28 -14 -47 -25l-40 -24q-24 -14 -44.5 -23.5t-43.5 -9.5q-28 0 -48.5 10.5t-34 27t-20.5 37t-7 40.5
q0 31 12 51.5t30.5 34.5t40 22.5t41.5 15.5q10 2 49 18.5l119 48.5q16 10 44.5 25t71.5 15q20 0 39 -3.5t34 -13t24.5 -27t10.5 -44.5q-2 -60 -3 -137t-1 -167v-121.5t1 -127.5q1 -68 1.5 -136.5t0.5 -136.5q0 -34 -5 -60t-17.5 -44t-34 -27t-55.5 -9zM635 73q0 24 9 48.5
t22 43.5l-1 -1l200 468l145 341l98.5 233l61 144.5l31.5 75.5l11 27q7 20 15 39t19.5 34t28 24t42.5 9q19 0 39.5 -6.5t37.5 -19t28 -32t11 -44.5q0 -16 -5.5 -39t-13.5 -40l-553 -1312v1q-5 -18 -10.5 -35t-16 -30.5t-27 -22t-43.5 -8.5q-32 0 -56 8.5t-40 23t-24.5 32.5
t-8.5 38z" />
    <glyph glyph-name="oslash" unicode="&#xf8;" horiz-adv-x="1460" 
d="M389 -94l22 70l22 66q-72 38 -131.5 94t-102.5 127t-66.5 156.5t-23.5 183.5q0 130 48.5 244.5t133 200t197.5 135t242 49.5q33 0 65 -3l41 154q5 25 28 45.5t65 20.5q48 0 77.5 -24t29.5 -70q0 -11 -1 -20.5t-4 -16.5l-44 -137q85 -36 152.5 -94.5t114.5 -133.5t72 -164
t25 -186q0 -95 -22.5 -179t-63.5 -154t-98.5 -125.5t-126.5 -94t-147.5 -59t-162.5 -20.5q-25 0 -49.5 2t-48.5 5l-17 -68q-5 -17 -4.5 -36t-6.5 -36q-4 -11 -12 -23t-20.5 -22.5t-29 -17.5t-38.5 -7q-30 0 -52.5 10t-37.5 26t-22.5 34.5t-7.5 35.5q0 15 5 32zM501 250
l68 212.5l60.5 192l55 181l52.5 180.5h-8q-93 0 -165 -33t-122 -89t-76 -131.5t-26 -159.5q0 -120 41.5 -210t119.5 -143zM687 187q11 -1 21 -1h21q80 0 151 27t124.5 79.5t85 130.5t31.5 180q0 59 -13.5 114t-39 102.5t-63 86t-85.5 64.5l-63.5 -204l-59 -193.5l-56 -191z
" />
    <glyph glyph-name="hungarumlaut" unicode="&#x2dd;" horiz-adv-x="1348" 
d="M916 1397q-12 0 -27 2.5t-28.5 12t-22.5 27.5t-9 48t25 61t66 69l144 132q41 46 72.5 71.5t61.5 25.5q47 0 73.5 -23t26.5 -66q0 -19 -6.5 -35.5t-16 -30t-21.5 -24.5l-22 -20l-82.5 -80.5t-89.5 -81t-82.5 -63t-61.5 -25.5zM455 1394q-12 0 -27.5 2.5t-29 11.5
t-22.5 26.5t-9 47.5t26.5 61t63.5 66l143 132q38 47 69.5 74t61.5 27q48 0 75 -21t27 -64q0 -37 -18.5 -62.5t-37.5 -42.5l-108 -105.5t-89.5 -81.5t-71.5 -52.5t-53 -18.5z" />
    <glyph glyph-name="hungarumlaut.cap" horiz-adv-x="847" 
d="M479 1595q-12 0 -26 2.5t-26 12t-20 27.5t-8 48q0 29 28 62t66 68l107 98q41 46 72 71.5t61 25.5q47 0 73.5 -21.5t26.5 -71.5q0 -38 -20 -60.5t-52 -48.5q-22 -17 -44 -37l-48 -44l-48.5 -45.5t-50.5 -43t-48.5 -31.5t-42.5 -12zM40 1587q-11 0 -25.5 2t-27 10.5
t-21.5 26t-10 47.5q0 16 5.5 29.5t16 27.5t25 28.5l31.5 31.5l115 112q38 45 69.5 74t60.5 30q48 1 75.5 -19.5t28.5 -70.5q1 -18 -3.5 -32t-12 -25.5t-16.5 -21l-18 -18.5q-25 -25 -53.5 -49t-61.5 -57l-44.5 -43.5t-47 -40.5t-45.5 -30t-41 -12z" />
    <glyph glyph-name="dotaccent.cap" horiz-adv-x="337" 
d="M164 1648q-21 0 -42.5 7.5t-36.5 27.5q-12 15 -16.5 33.5t-5 39.5t0.5 43.5t1 45.5q0 25 7 47.5t21.5 39t35.5 26.5t48 10q59 0 84 -33t25 -81q0 -9 -0.5 -20t-2.5 -21q0 -30 -4.5 -60t-17.5 -53t-36.5 -37.5t-60.5 -14.5z" />
    <glyph glyph-name="dotaccent" unicode="&#x2d9;" horiz-adv-x="344" 
d="M164 1363q-23 0 -46 7.5t-38 27.5q-15 19 -17.5 38t-1.5 41q-1 38 -1 56.5v26.5q0 32 8 56t31 42q17 13 37 19t40 6q60 0 87.5 -31.5t27.5 -82.5q0 -19 -2.5 -37t-4.5 -40q-2 -23 -4 -38.5t-6 -27t-11 -20.5t-19 -19q-13 -11 -34.5 -17.5t-45.5 -6.5z" />
    <glyph glyph-name="Ldot" unicode="&#x13f;" horiz-adv-x="1117" 
d="M198 0zM198 111q0 29 8.5 57.5t8.5 60.5l-15 1194q1 76 26.5 112.5t87.5 36.5q34 0 57 -6t37 -21t19.5 -39t5.5 -60v-150q0 -62 -0.5 -147.5t-0.5 -182.5v-200.5v-202v-186.5t1 -154q117 0 197.5 0.5t132.5 2.5q28 2 56 6.5t60 4.5q66 0 100.5 -30t34.5 -88
q0 -39 -15 -62.5t-39.5 -36t-55 -16.5t-61.5 -4h-531q-25 0 -46 4.5t-36 16.5t-23.5 33.5t-8.5 56.5zM964 953q-34 0 -60 16.5t-44 40.5t-27.5 51t-9.5 49q0 38 9 70t27 55t46 36t66 13q22 0 46 -10t43.5 -29t32 -47.5t12.5 -65.5q0 -21 -6.5 -51.5t-22 -59t-43 -48.5
t-69.5 -20z" />
    <glyph glyph-name="macron.cap" horiz-adv-x="1011" 
d="M221 1634q-26 -1 -50 3t-43 15.5t-30 32.5t-11 55q0 44 38 66.5t102 22.5h83t96.5 0.5l102 1t99 2t88 3t68.5 3.5q24 2 46.5 0t39.5 -12t27 -31.5t10 -58.5q0 -33 -10.5 -53t-27 -31.5t-38.5 -15t-44 -3.5q-48 0 -109.5 1t-132 1.5t-147.5 0t-157 -2.5z" />
    <glyph glyph-name="breve" unicode="&#x2d8;" horiz-adv-x="1060" 
d="M521 1409q-60 0 -122 21t-112 60.5t-81.5 96t-31.5 128.5q0 22 8.5 38t22 26t30 15t32.5 5q36 0 59 -22t30 -60q10 -61 55 -99t114 -38q62 0 104.5 39t56.5 98q9 35 34 58.5t57 23.5q17 0 34 -5t30 -16.5t21 -28.5t8 -41q0 -70 -32.5 -125.5t-83 -94t-112.5 -59
t-121 -20.5z" />
    <glyph glyph-name="breve.cap" horiz-adv-x="1060" 
d="M529 1622q-61 0 -123 19.5t-111.5 57t-80.5 93t-31 126.5q0 22 8.5 38t22 26.5t30 15.5t32.5 5q35 0 58 -22t29 -60q11 -61 56 -93.5t113 -32.5q65 0 108.5 32.5t53.5 93.5q6 39 29 60.5t57 21.5q18 0 35 -5t30.5 -16.5t21.5 -28.5t8 -41q0 -70 -32 -124t-82 -91
t-111.5 -56t-120.5 -19z" />
    <glyph glyph-name="ogonek" unicode="&#x2db;" horiz-adv-x="1185" 
d="M316 -212q0 49 26 102.5t71.5 104t108.5 93t137 69.5l145 -108q-29 -11 -73 -34t-85.5 -54.5t-71 -70.5t-29.5 -82q0 -23 6 -39.5t15.5 -27.5t21.5 -16.5t23 -5.5q38 0 74.5 11.5t71.5 46.5q15 14 36 20.5t39 6.5q20 0 38.5 -9t32.5 -23.5t22 -33t8 -37.5
q0 -42 -29.5 -76t-75.5 -58t-101 -37.5t-106 -13.5q-54 0 -108 11t-98 41t-71.5 83t-27.5 137z" />
    <glyph glyph-name="eogonek" unicode="&#x119;" horiz-adv-x="1402" 
d="M357 451q19 -75 56.5 -125.5t84.5 -81.5t99.5 -44.5t102.5 -13.5q78 0 139 13.5t104.5 33t70.5 40.5t38 37q10 15 22.5 28.5t27 24t29 16.5t27.5 6q50 0 77.5 -29.5t27.5 -79.5q0 -19 -14 -48t-52 -64q-47 -43 -105 -81.5t-130 -65.5q-22 -18 -43 -40t-37 -47
t-25.5 -54.5t-9.5 -62.5q0 -27 7.5 -45t18.5 -29t23.5 -15.5t22.5 -4.5q17 0 29 2.5t22 7.5t19.5 12.5t21.5 18.5q17 14 36.5 20.5t36.5 6.5q20 0 38.5 -9t32.5 -23.5t22.5 -33t8.5 -37.5q0 -42 -23 -73.5t-61.5 -52.5t-87.5 -31.5t-101 -10.5q-51 0 -100 19t-88 53.5
t-62.5 83.5t-23.5 110q0 44 18 92t53 97h-11q-99 0 -181 26.5t-147 72t-113 105.5t-80 128t-48 140t-16 140q0 148 48 267.5t132 204.5t199 131t249 46q96 0 180 -28.5t149.5 -80t110 -123t62.5 -157.5q20 -17 29.5 -44.5t9.5 -54.5q0 -45 -30.5 -73.5t-76.5 -39.5
q-101 -26 -202 -48l-203 -43l-205.5 -43zM340 636q170 40 344 75t354 78q-17 46 -46 87.5t-68 72.5t-86.5 49t-102.5 18q-85 0 -154.5 -27.5t-120.5 -77t-82 -120t-38 -155.5z" />
    <glyph glyph-name="aogonek" unicode="&#x105;" horiz-adv-x="1596" 
d="M117 617q0 136 46 253t126.5 203t189 135t234.5 49q64 0 122.5 -15t109 -39.5t91 -55.5t69.5 -64q-1 14 -1 30v28q0 25 7 46.5t22 37.5t38 25.5t56 9.5q28 0 50.5 -10.5t38.5 -26t25 -33t9 -31.5q0 -34 -3.5 -68.5t-5.5 -69.5q0 -110 -1.5 -194.5t-3.5 -155.5
q-2 -48 -3 -99.5t-1 -94.5v-154t5 -83q9 2 26.5 9t32.5 15l28 10t35 5q24 0 42 -10.5t30.5 -27t18.5 -37t6 -39.5q0 -27 -13 -54.5t-48 -39.5q-48 -17 -95.5 -36t-98.5 -28q-30 -17 -60.5 -38.5t-55 -47t-40 -54t-15.5 -59.5q0 -23 6 -39.5t15.5 -27.5t21 -16.5t22.5 -5.5
q38 0 74.5 11.5t71.5 46.5q15 14 36 20.5t39 6.5q20 0 38.5 -9t32.5 -23.5t22 -33t8 -37.5q0 -42 -29.5 -76t-75.5 -58t-101 -37.5t-106 -13.5q-54 0 -108 11t-98 41t-71.5 83t-27.5 137q0 39 16 80.5t45.5 82.5t71 79t92.5 70q-5 19 -7.5 38.5t-3.5 38.5q-31 -39 -75 -73
t-97 -60t-113.5 -41t-124.5 -15q-130 0 -238 47.5t-185.5 132t-120.5 199.5t-43 250zM347 617q0 -81 24.5 -156t71 -132.5t114.5 -91.5t154 -34q85 0 154 33t120.5 86t84.5 118.5t45 131.5v88q-11 61 -41.5 129t-80 125.5t-118.5 95t-156 37.5q-82 0 -150 -33.5t-117.5 -92
t-77 -136.5t-27.5 -168z" />
    <glyph glyph-name="Aogonek" unicode="&#x104;" horiz-adv-x="1584" 
d="M35 77q0 32 9 64.5t33 65.5q17 29 46.5 88l66.5 139l79.5 174.5l86.5 193l87.5 197l82.5 185l71 156.5t54 113q3 22 12 43.5t24 39t36 28t49 10.5q36 0 58.5 -10t37 -27.5t23.5 -40.5t18 -49l15 -43.5t13 -31.5l130.5 -270l126 -276.5l126.5 -284.5l133 -293l19 -28
l19 -26.5t20.5 -33.5t16 -38t6.5 -40q0 -60 -34 -85.5t-83 -25.5q-25 0 -45.5 7t-36.5 18q-32 -17 -64.5 -39t-58.5 -48t-43 -56t-17 -62q0 -23 6 -39.5t15.5 -27.5t21.5 -16.5t23 -5.5q38 0 70.5 11.5t67.5 46.5q15 14 36 20.5t38 6.5q21 0 39 -9t32 -23.5t22 -33t8 -37.5
q0 -42 -28 -76t-72.5 -58t-98 -37.5t-104.5 -13.5q-54 0 -108 11t-98 41t-71.5 83t-27.5 137q0 48 25.5 101.5t70.5 103.5t106.5 92.5t134.5 69.5l-82 183.5l-74 167.5q-16 0 -45 0.5t-65 2.5q-57 0 -115.5 1t-119.5 1.5t-126 0t-136 -3.5q-11 -1 -21 -1.5t-21 -0.5
l-53 -129.5l-45 -113.5l-35.5 -92.5t-23.5 -65.5v1q-6 -22 -13.5 -43t-21.5 -37.5t-38.5 -27t-64.5 -10.5q-54 0 -89.5 27t-35.5 79zM546 707h54.5t87 -0.5t131.5 -1t189 -1.5l-104 225.5l-137 292.5l-49 -112l-54.5 -127l-58 -136z" />
    <glyph glyph-name="Eogonek" unicode="&#x118;" horiz-adv-x="1321" 
d="M198 113q0 17 4.5 36t9.5 35l9 32l-23 1196q0 49 11.5 76t29.5 40t41.5 15t47.5 2h527q18 2 40.5 5.5t31.5 3.5q38 0 61.5 -7t37 -20.5t18 -33.5t4.5 -47q0 -38 -9.5 -61t-26 -35.5t-38.5 -16.5t-47 -4q-11 0 -29 0.5t-38 2.5h-156.5t-95 -0.5t-54 -0.5h-32.5h-93v-317
q6 0 14.5 -0.5t26.5 -0.5h49.5h84.5h131h189q11 0 25 1t28 3q18 2 42 4t52 2q27 0 48 -11t35.5 -27.5t22 -35.5t7.5 -36q0 -54 -35.5 -79t-91.5 -25l-628 -1v-599q99 0 199 -3t209 -3q30 0 55 3t48 7q21 3 42.5 5.5t47.5 2.5q30 0 55.5 -4.5t44.5 -16t30 -31t11 -49.5
q0 -39 -12 -62.5t-33 -36t-48.5 -16.5t-57.5 -5q-35 0 -68.5 -11t-60 -34.5t-43 -59.5t-16.5 -86q0 -23 11 -39.5t26 -27t31.5 -16t28.5 -5.5q34 0 53 11.5t34 25t32 25t49 11.5q20 0 38.5 -9t32.5 -24t22.5 -33.5t8.5 -37.5q0 -42 -21 -74.5t-56.5 -54.5t-83 -33.5
t-100.5 -11.5q-54 0 -113 10.5t-109 40.5t-82.5 83t-32.5 138q0 61 23.5 115t71.5 97h-379q-26 0 -47.5 6t-37.5 19.5t-25 35t-9 52.5z" />
    <glyph glyph-name="iogonek" unicode="&#x12f;" horiz-adv-x="833" 
d="M474 1372q-26 -7 -51 -2.5t-44.5 18.5t-32 36t-12.5 50q0 20 6 39t14.5 38.5l17 38.5t13.5 39q10 43 38.5 69.5t76.5 26.5q35 0 64.5 -15t38.5 -51q3 -11 4.5 -26t1.5 -26q0 -40 -30 -87q-11 -17 -16.5 -35.5t-10.5 -33.5l-11 -27.5t-13.5 -22t-21 -17t-32.5 -12.5z
M130 -209q0 36 12 73.5t35 73.5t56.5 69.5t77.5 61.5v6q0 25 2.5 42t5 37.5t5 48.5t2.5 76q0 179 -1 355.5t-5 373.5q-15 -1 -34 -2t-39.5 -1.5l-39.5 -1t-34 -0.5q-18 0 -36.5 5.5t-33.5 18.5t-25 33.5t-10 50.5q0 53 28.5 80.5t67.5 27.5q38 0 75.5 -3.5t73.5 -3.5
q37 0 74 3.5t70 3.5q51 0 73 -27t22 -75q0 -41 -7 -80.5t-7 -84.5q0 -90 -1 -181t-1.5 -185l-1 -192t1.5 -202q16 1 30 5t28 8.5t29 8t32 3.5q26 0 42.5 -6t26 -16.5t15 -26t8.5 -33.5q7 -47 -22.5 -75t-81.5 -44q-24 -7 -44.5 -12l-46.5 -11q-59 -16 -98.5 -40.5t-63 -51.5
t-33.5 -54.5t-10 -50.5q0 -24 10 -39.5t24 -23.5t30 -11t27 -3q28 0 48 10.5t38 23.5t36.5 23.5t43.5 10.5q19 0 37.5 -8t32 -22.5t22 -33t8.5 -39.5q0 -43 -23 -74.5t-61 -52.5t-86.5 -31t-100.5 -10q-54 0 -108.5 16.5t-97.5 50.5t-70 85.5t-27 122.5z" />
    <glyph glyph-name="Iogonek" unicode="&#x12e;" horiz-adv-x="795" 
d="M27 -190q0 88 63 171.5t185 147.5q3 38 8 76.5t5 80.5q0 255 -4.5 513t-4.5 530q0 28 -6 56.5t-6 61.5q0 26 7 49t24 40.5t47 27.5t75 10t71 -34t26 -91q0 -17 -3 -33.5l-6 -34.5q-2 -86 -3 -185t-1 -227q0 -114 1 -233t3 -229t5.5 -205.5t8.5 -164.5v1q2 -15 3.5 -28.5
t1.5 -27.5q0 -24 -5.5 -44.5t-18.5 -35.5t-36 -23t-57 -8h-9t-9 1q-34 -12 -61 -31t-45.5 -40.5t-28.5 -44t-10 -41.5q0 -25 6.5 -43.5t17 -30.5t23 -17.5t23.5 -5.5q28 0 47 10.5t36 23.5t36.5 23.5t47.5 10.5q47 0 74 -31t27 -73q0 -43 -23 -75t-61.5 -53t-87.5 -31
t-101 -10q-56 0 -107 19.5t-91 57.5t-63.5 93.5t-23.5 126.5z" />
    <glyph glyph-name="uogonek" unicode="&#x173;" horiz-adv-x="1436" 
d="M158 516q0 46 5.5 103t16 116.5t27 117t38.5 105.5q-10 -1 -19.5 -1h-16.5q-39 0 -60 12.5t-31 30t-11.5 36t-1.5 29.5q0 34 17.5 57t52.5 40t87 31.5t120 31.5q8 3 21 6.5t36 3.5q32 0 54.5 -9t37 -24t21 -35.5t6.5 -43.5q0 -29 -14.5 -60t-36.5 -57q-30 -36 -54 -95
t-41 -127.5t-26 -139t-9 -128.5q0 -78 14 -140t49 -105t94 -66t149 -23q57 0 111.5 14t102.5 38.5t87.5 56.5t68.5 68q0 162 -0.5 271.5t-1.5 180.5t-2 110t-3 59q-22 -6 -45 -9t-37 -3q-22 0 -39.5 13.5t-30 33t-19 42.5t-6.5 43q0 23 14 48t41 33q15 4 44.5 11t64.5 13.5
t71 11t63 4.5q33 0 54 -5.5t33 -17.5t17 -31t5 -46t-3 -64q-8 -92 -6.5 -201.5t1.5 -220.5v-136.5t0.5 -140.5t2 -137t5.5 -127q2 -22 3.5 -42.5t1.5 -35.5q0 -42 -20 -65.5t-70 -33.5q-27 -11 -56 -25t-53 -31.5t-39.5 -39t-15.5 -46.5q0 -26 11.5 -42.5t26.5 -16.5
q23 0 43 9t40 20.5t40.5 20.5t44.5 9q21 0 39 -8t31.5 -21.5t21 -32t7.5 -39.5q0 -46 -27.5 -76.5t-68 -48.5t-86.5 -25.5t-83 -7.5q-50 0 -96.5 14.5t-82 43t-56.5 71t-21 98.5q0 47 18.5 89t51 80t77 71.5t95.5 64.5v63q-44 -32 -93 -57t-98 -42.5t-96.5 -26.5t-87.5 -9
q-267 0 -393.5 132.5t-126.5 407.5z" />
    <glyph glyph-name="Uogonek" unicode="&#x172;" horiz-adv-x="1516" 
d="M622 -243q0 57 18 116t65 116q-68 4 -132.5 22t-122 54t-106.5 93.5t-84 140.5t-55.5 195t-20.5 258q-1 159 0.5 319.5t1.5 336.5q0 42 4.5 76t16.5 58t32.5 36.5t52.5 12.5q73 0 103 -42.5t30 -115.5q0 -21 -1 -45t-2 -57l-2.5 -80t-2.5 -113t-2 -156t-1 -210
q0 -72 4.5 -142.5t18 -134t38.5 -117.5t64.5 -93.5t97 -61.5t136.5 -22q91 0 154 37t102.5 108t57 175.5t17.5 239.5q0 243 -4 411t-6 243q-1 15 -1 31v19q0 71 31.5 98.5t84.5 27.5q34 0 57.5 -10t37.5 -26t20 -36t6 -39q0 -33 -2.5 -67.5t-2.5 -71.5q0 -80 1 -148t3 -130
q0 -72 2 -145.5t2 -158.5q0 -284 -84.5 -471.5t-257.5 -259.5q-52 -32 -82.5 -62t-46 -58.5t-19.5 -54t-4 -47.5q0 -17 5.5 -32.5t16.5 -28t28 -20t40 -7.5q18 0 30.5 2.5t23 8t20 13l21.5 17.5q15 14 34 20.5t38 6.5q18 0 37.5 -9.5t36 -25.5t27 -35.5t10.5 -39.5
q0 -31 -17.5 -60.5t-52.5 -52t-88 -36.5t-125 -14q-75 0 -131.5 20t-94.5 53.5t-57 78t-19 92.5z" />
    <glyph glyph-name="eng" unicode="&#x14b;" horiz-adv-x="1630" 
d="M283 64q0 18 1.5 37t3.5 38q3 26 6 58t3 71v137.5v163.5t-1.5 199.5t-4.5 245.5q-28 -5 -78 -5q-18 0 -36.5 6t-34 18.5t-25 33t-9.5 50.5q0 54 28 81.5t67 27.5q16 0 31.5 -4t32.5 -4q39 0 78.5 4t84.5 4q41 0 68 -27t27 -76q1 -11 0 -21.5l-2 -21.5q38 31 84.5 59.5
t100 50.5t113 35t122.5 13q127 0 218.5 -44.5t151 -126t88 -195.5t28.5 -253l2 -828q-4 -65 -33.5 -120.5t-76 -96t-105.5 -63t-123 -22.5q-44 0 -89.5 9.5t-83.5 29t-62 49t-24 69.5q0 18 6.5 40t20 41t35 31.5t51.5 12.5q17 0 34.5 -8.5t31.5 -18.5q17 -12 39 -23.5
t51 -11.5q22 0 42.5 6.5t36.5 19t25 31t9 41.5l-5 811q0 80 -10.5 154t-40 131t-82.5 91t-138 34q-68 0 -132.5 -19t-120.5 -48.5t-101 -66.5t-73 -73q-2 -68 -3 -134.5t-1.5 -139.5t0 -157t0.5 -189q32 9 46 12t22 3q54 0 82 -26.5t28 -77.5q0 -38 -15 -60.5t-38 -35
t-51 -17.5t-54 -8l-28.5 -4t-32.5 -7q-23 -7 -44.5 -11.5t-38.5 -4.5q-59 0 -80.5 25.5t-21.5 74.5z" />
    <glyph glyph-name="Eng" unicode="&#x14a;" horiz-adv-x="1856" 
d="M262 72q0 32 3 57t4 40q8 110 9.5 221.5t1.5 229.5v172.5t-1.5 189t-4.5 188t-8 170.5q-4 23 -6 42t-2 39q0 49 21 77.5t68 38.5q20 17 45 24t48 7q24 0 43.5 -14t34 -33t24.5 -39.5t14 -33.5l123 -161.5l136.5 -173l144 -179.5l144 -180.5l136.5 -176l123 -166.5
l-22 1033q0 40 8.5 65.5t24 39.5t38.5 19t53 5q39 0 61 -16t33.5 -40.5t14 -55t2.5 -59.5v-122q0 -341 1.5 -679t1.5 -681q1 -13 1.5 -29.5t0.5 -33.5q0 -75 -23.5 -143t-68 -119.5t-108.5 -81.5t-144 -30q-28 0 -72.5 9.5t-87 29.5t-73 49.5t-30.5 70.5q0 18 6.5 40
t20.5 41t35.5 31.5t52.5 12.5q20 0 37 -9.5t33 -21.5t32.5 -21.5t35.5 -9.5q24 0 47.5 3t43 18.5t31.5 49t12 94.5v163q-3 3 -11 12t-25.5 30.5l-46.5 58l-74.5 95l-109 142l-150 198.5l-198.5 264.5l-253 339.5q-1 -257 -0.5 -439t2 -304t3.5 -190.5t4 -98.5q1 -7 1 -16.5
v-14.5q0 -26 -4.5 -50t-17.5 -42t-36.5 -28.5t-61.5 -10.5q-25 0 -47 6.5t-38.5 18.5t-26 29.5t-9.5 38.5z" />
    <glyph glyph-name="Delta" unicode="&#x2206;" horiz-adv-x="1595" 
d="M84 0zM157 120q-32 8 -52.5 33.5t-20.5 73.5q0 24 7 50t16 48.5t18 40l14 26.5l485 1151q6 17 19 31t29 23.5t33.5 15t33.5 5.5q15 0 32.5 -5.5t34 -15t29.5 -24t19 -32.5l105.5 -247.5l117 -269l117.5 -265l107 -236.5l84.5 -182.5t50.5 -103.5q12 -26 24 -59t11 -59
q0 -29 -12 -51.5t-32.5 -38.5t-47.5 -24t-56 -8q-6 0 -13.5 0.5t-12.5 1.5l-876 1q-20 -3 -33 -4.5t-25 -2.5t-26 -1h-36q-30 0 -56.5 5.5t-46 19t-30.5 36.5t-11 57v10zM1192 221l-134.5 312.5l-103 233l-76.5 171l-56.5 125.5l-43.5 96.5t-36 84.5l-97 -247.5l-81.5 -202
l-69.5 -167.5l-61 -144l-56.5 -132l-55.5 -131z" />
    <glyph glyph-name="Omega" unicode="&#x2126;" horiz-adv-x="1646" 
d="M70 0zM136 28q-32 23 -49 59.5t-17 98.5q0 15 1.5 41t12 51.5t33 44.5t65.5 19q29 0 49.5 -12.5t34.5 -33t22.5 -46t12.5 -51.5h198q-17 53 -53.5 102t-82.5 98l-81.5 95.5t-75.5 114t-55.5 144.5t-21.5 187q0 161 52.5 283.5t145.5 205.5t222 125t282 42t278.5 -42
t215 -125t138.5 -205.5t49 -283.5q0 -105 -23 -187.5t-58.5 -148.5t-79 -118t-85.5 -97l-41.5 -47t-38.5 -48t-32.5 -48t-21.5 -47h206q4 26 12 51.5t22 46t35 33t50 12.5q43 0 65.5 -19t33 -44.5t12 -51.5t1.5 -41v-6q0 -57 -17.5 -98t-47.5 -64q-17 -13 -46.5 -15
t-57.5 -3h-372q-54 0 -83 35t-29 94q0 50 9.5 94t28 84t45 78.5t59.5 78.5l80 97.5t72 109t52.5 128.5t20.5 156q0 104 -31 186t-89.5 139t-142.5 87t-191 30t-194.5 -30t-149 -87t-95 -139t-33.5 -186q0 -87 20 -157.5t51.5 -130t71.5 -110l81 -97.5q34 -41 63.5 -82
t50 -85.5t31.5 -92.5t8 -102q-2 -44 -29.5 -71t-80.5 -27h-399q-23 0 -39 4q-15 4 -28 10t-22 14z" />
    <glyph glyph-name="summation" unicode="&#x2211;" horiz-adv-x="1185" 
d="M610 677l-137 205l-162 230l-80 111.5l-64.5 94.5t-43.5 72.5t-16 44.5q0 52 23 83t66 31q10 0 30.5 -1t34.5 -4l528 1q56 0 98 -2.5t70 -12.5t42 -30.5t14 -55.5q0 -36 -11.5 -58t-29.5 -33.5t-39.5 -15.5t-41.5 -4l-470 5l197.5 -286l198.5 -285q20 -20 32.5 -43.5
t12.5 -45.5q0 -24 -9.5 -47.5t-26.5 -46.5q-54 -69 -100 -136.5l-85 -128l-71.5 -112.5t-59.5 -91l-58.5 -84.5t-44.5 -60.5l529 17q30 0 55 -3.5t44 -14.5t29.5 -32.5t10.5 -56.5q0 -39 -17 -60.5t-43.5 -32t-58 -12.5t-60.5 -3l-672 -7q-23 0 -44 10t-37 26t-25.5 34.5
t-9.5 35.5q0 29 5 52t24 49z" />
    <glyph glyph-name="radical" unicode="&#x221a;" horiz-adv-x="1661" 
d="M633 378l-48 124l-47.5 121.5l-46 111l-41.5 93.5q-35 0 -72 1t-78 -1q-31 0 -54.5 9t-40 23.5t-25 33t-8.5 36.5q0 17 6.5 35.5t20 33.5t33.5 25t47 10h290q37 -6 58.5 -20.5t40.5 -49.5l33.5 -97.5l51.5 -152l61 -187.5l63 -204l479 1510q44 173 144 173q25 0 49 -5.5
t43 -18t30 -32.5t11 -50q0 -22 -5.5 -46t-14 -48t-19.5 -46.5t-23 -41.5l-143 -416l-142 -415.5l-143.5 -420.5l-148.5 -430q-16 -42 -44 -55t-65 -13q-29 0 -58.5 15t-52.5 47q-30 66 -66.5 157z" />
    <glyph glyph-name="partialdiff" unicode="&#x2202;" horiz-adv-x="1481" 
d="M228 398q0 79 18.5 158t52 151t81.5 134t108 107t129.5 71t147.5 26q24 0 51.5 -4.5t55 -13.5t53 -22t46.5 -29q-1 80 -16.5 163t-47 150.5t-79.5 110.5t-115 43q-73 0 -127 -40.5t-74 -118.5q-14 -46 -48 -68t-70 -22q-22 0 -42 7t-35.5 21.5t-25 35t-9.5 47.5
q0 36 16 76t45 78.5t69 73.5t87.5 62t101.5 42.5t110 15.5q88 0 174 -37t153 -112q46 -53 76.5 -116.5t49 -134t26.5 -144t8 -145.5q0 -94 -12.5 -204.5t-41 -221t-74.5 -213t-113.5 -182t-157.5 -127t-207 -47.5q-92 0 -160.5 35t-113.5 94.5t-67.5 137t-22.5 162.5z
M458 394q0 -41 7.5 -80.5t22.5 -71.5t39 -51.5t57 -19.5q71 0 124.5 34.5t93.5 90.5t68.5 126t48.5 141q3 12 6 31.5t5 41.5t3.5 43t1.5 37q-20 54 -63 87.5t-108 33.5q-46 0 -86.5 -20t-74.5 -53.5t-61 -77.5t-45.5 -93.5t-28.5 -100.5t-10 -98z" />
    <glyph glyph-name="product" unicode="&#x220f;" horiz-adv-x="1697" 
d="M307 -34q0 14 0.5 27.5t1.5 27.5q2 34 3 72.5t1 96.5v182t-0.5 153l-1 147.5t-1.5 166t-2.5 208l-3.5 273.5h-95q-47 0 -74.5 29.5t-27.5 88.5q0 34 11.5 56.5t30 36t41 19t43.5 5.5q47 0 101 -5t110 -5h141h174h180h159q53 0 95 3t78.5 6.5t69.5 6t68 1.5q55 -2 85 -26
t33 -88q1 -36 -9.5 -60t-26.5 -38.5t-34.5 -20.5t-32.5 -6q-20 0 -34 3.5t-38 1.5q-4 -231 -5 -405.5t-0.5 -304t3.5 -219.5t6 -153q3 -59 6 -98.5t6 -69.5t4.5 -54.5t1.5 -53.5q0 -21 -5 -47t-18 -48t-36 -37t-58 -15q-41 0 -65.5 13t-38.5 33.5t-18.5 46t-4.5 50.5l6 224
q0 266 -3.5 555t-8.5 579h-603q-1 -50 -1.5 -110.5l-1 -126t-0.5 -133.5v-132q0 -189 1.5 -319.5t4.5 -217t5.5 -137.5t5.5 -82.5t4.5 -51t1.5 -43.5q0 -22 -3 -47.5t-13.5 -48t-32 -37.5t-58.5 -15q-39 0 -63.5 13t-39 33t-19.5 45.5t-5 51.5z" />
    <glyph glyph-name="pi" unicode="&#x3c0;" horiz-adv-x="1790" 
d="M387 69l10.5 16.5t19.5 38.5t22 61.5t18 84.5l106 740q-23 0 -48 -7t-50 -18.5t-49 -25.5t-44 -28t-39.5 -19.5t-41.5 -5.5q-23 0 -42 9t-32.5 24t-20.5 35t-7 41q0 40 35.5 76.5t102 64.5t162 44.5t214.5 16.5h673q20 0 37 4l35 8.5t37.5 8.5t44.5 4q58 0 81 -29t23 -71
q0 -45 -30.5 -71.5t-76 -39.5t-97.5 -17t-94 -4q-23 -197 -48.5 -395t-39.5 -407q3 -25 25 -34.5t48 -16.5q17 -4 35 -10.5t33 -17.5t25 -28t10 -42q0 -20 -8.5 -39t-25 -33.5t-41 -23.5t-55.5 -9q-58 4 -108.5 17.5t-87.5 41.5t-58 73t-21 112q0 24 5 89.5t16 168.5
t28.5 242.5t42.5 311.5h-320q-14 -105 -26 -215l-25 -222.5t-28 -226.5t-36 -229q-15 -78 -53.5 -118t-98.5 -40q-31 0 -56 9.5t-43 24.5t-28 35t-10 41z" />
    <glyph glyph-name="integral" unicode="&#x222b;" horiz-adv-x="1495" 
d="M195 73q0 77 31.5 115.5t88.5 38.5q42 0 70 -27.5t28 -81.5q0 -38 4 -72.5t14.5 -60.5t29.5 -41t49 -15q40 0 62.5 13t33.5 37.5t15 60.5t6 82q2 43 3.5 104.5t3 135t3 155t3.5 163.5q2 122 6.5 278l10.5 348q3 105 18.5 195t53 156t103 104t168.5 38q91 0 151.5 -30.5
t96.5 -81t50.5 -117t14.5 -138.5q0 -36 -12 -60.5t-30 -40t-39 -22t-38 -6.5q-60 0 -86 37t-26 91q0 71 -23 111.5t-65 40.5q-61 0 -86.5 -63.5t-29.5 -175.5l-8.5 -303.5l-9 -328t-9.5 -324t-10 -291.5q-3 -88 -29.5 -158t-71.5 -119.5t-105.5 -76t-131.5 -26.5
q-77 0 -134.5 28t-96 76t-58 113t-19.5 139z" />
    <glyph glyph-name="approxequal" unicode="&#x2248;" horiz-adv-x="1521" 
d="M149 87zM269 717q-21 0 -42 7t-38.5 21t-28.5 35t-11 49q0 72 26 133.5t70 106.5t103.5 70.5t126.5 25.5q59 0 104.5 -13.5t82.5 -35.5t67 -49t57 -55q22 -23 45 -44t48 -37.5t53.5 -26.5t61.5 -10q36 0 62.5 33t30.5 85q5 54 35 88.5t84 34.5q57 0 89 -33.5t30 -90.5
q-2 -72 -27 -132t-67 -103.5t-98 -67.5t-118 -24q-75 0 -131 15.5t-98.5 40t-75.5 55l-62 59.5l-38.5 38.5t-39 32.5t-44 22.5t-51.5 8.5q-24 0 -41 -13t-28.5 -35t-18.5 -49.5t-11 -55.5q-6 -42 -36 -64t-71 -22zM269 120q-21 0 -42 7t-38.5 21t-28.5 35t-11 49
q0 72 26 133.5t70 106.5t103.5 70.5t126.5 25.5q59 0 104.5 -13.5t82.5 -35.5t67 -49t57 -55q22 -23 45 -44t48 -37.5t53.5 -26.5t61.5 -10q36 0 62.5 33t30.5 85q5 54 35 88.5t84 34.5q57 0 89 -33.5t30 -90.5q-2 -72 -27 -132t-67 -103.5t-98 -67.5t-118 -24
q-75 0 -131 15.5t-98.5 40t-75.5 55l-62 59.5l-38.5 38.5t-39 32.5t-44 22.5t-51.5 8.5q-24 0 -41 -13t-28.5 -35t-18.5 -49.5t-11 -55.5q-6 -42 -36 -64t-71 -22z" />
    <glyph glyph-name="trademark" unicode="&#x2122;" horiz-adv-x="2739" 
d="M1237 1447q0 54 32.5 79t78.5 25q33 0 53.5 -5t36.5 -16.5t31 -31.5l36 -50l338 -480l140.5 232.5l149.5 247.5q35 57 82.5 80.5t111.5 23.5q56 0 83 -29.5t27 -86.5v-729q-14 -45 -46.5 -67.5t-67.5 -22.5q-38 0 -63 22t-39 67l-13 472l-90.5 -151.5l-104.5 -184.5
l-41 -70t-39 -55t-42.5 -36t-49.5 -13q-22 0 -40 7.5t-32.5 19.5t-26.5 26t-21 28l-65 93.5l-61 88.5l-65.5 96.5l-78.5 118.5v-442q-14 -44 -38 -65.5t-62 -21.5q-35 0 -67.5 22.5t-46.5 69.5v738zM470 708v209.5v152t-0.5 106.5t-0.5 73v52v43h-176q-31 0 -54.5 8.5
t-39.5 22.5t-24.5 32.5t-8.5 38.5q0 35 25.5 64.5t82.5 37.5l670 1q28 -4 48.5 -14t34 -24t19.5 -30.5t6 -33.5q0 -36 -15.5 -56.5t-42 -31t-61.5 -13t-75 -2.5h-151q-1 -164 -1 -322v-314q-14 -46 -47 -68.5t-71 -22.5q-36 0 -69 22.5t-49 68.5z" />
    <glyph glyph-name="florin" unicode="&#x192;" horiz-adv-x="1024" 
d="M143 -233l33 258.5l35 267.5l35.5 269.5l34.5 264.5h-100q-18 0 -35.5 3t-31.5 15t-23 35.5t-9 64.5q0 25 9 41.5t23 27t30.5 15.5t31.5 6l132 1l16 129.5l11 91.5q11 81 41 140.5t75.5 99t106 58.5t132.5 19q51 0 102.5 -12t93 -40t67.5 -74t26 -114q0 -27 -10.5 -48
t-28 -35.5t-39.5 -21.5t-45 -7q-42 0 -68 24t-41 73q-4 20 -24 31t-40 11q-32 0 -56 -14.5t-39.5 -37.5t-23.5 -50.5t-8 -54.5l-12 -84t-11 -81l107 2q17 0 33.5 5.5t36.5 5.5q14 0 32 -5t34 -18t27 -35.5t11 -56.5q0 -58 -26 -84.5t-71 -26.5h-214l-35 -264l-31.5 -246.5
l-30 -239.5l-30.5 -243q-2 -23 -5.5 -46t-5.5 -44q-13 -49 -43 -72.5t-68 -23.5q-21 0 -41.5 7t-36 21t-25 34.5t-9.5 47.5v4.5t1 5.5z" />
    <glyph glyph-name="dagger" unicode="&#x2020;" horiz-adv-x="1186" 
d="M467 98q0 5 0.5 14t1 37.5t1 84t1 152.5t1 244t0.5 358q-38 -1 -78 -1h-85q-18 0 -36 5t-32 19t-23 39t-9 65q0 30 10.5 48t30 27.5t47 12.5t60.5 3h115v122q0 29 -5.5 58t-5.5 59q0 26 4.5 47.5t19.5 36.5t42.5 23.5t73.5 8.5q22 0 40 -12.5t31 -30.5t19.5 -37.5
t6.5 -33.5q0 -11 -3 -26t-7 -26l-3 -189h78q19 0 42 6t43 6q19 0 37.5 -4t33.5 -15t24 -32.5t9 -55.5q0 -27 -8.5 -49.5t-23 -38t-34 -24t-41.5 -8.5h-78.5t-81.5 -1v-27q0 -114 1 -228.5t3 -220.5t5 -199t8 -162l1 -3l4 -25t2 -27q0 -22 -5 -42.5t-18.5 -36.5t-36.5 -25.5
t-58 -9.5q-40 0 -64.5 8t-37.5 23t-17.5 36t-4.5 47z" />
    <glyph glyph-name="lozenge" unicode="&#x25ca;" horiz-adv-x="1694" 
d="M222 612q-17 20 -24 38t-7 35q0 24 16 58l527 644v-1l1 5q25 21 49 30.5t48 9.5q37 0 71 -18.5t44 -49.5l-1 1l149.5 -190l104.5 -133l71 -92l49 -65l38.5 -53.5l39.5 -57.5q19 -26 30.5 -54.5t11.5 -48.5q0 -19 -7 -34t-20 -32l-67 -94l-92.5 -124.5l-135.5 -177.5
l-196 -253q-40 -27 -81 -27q-40 0 -83 28l-264.5 324.5zM838 204l349 476l-349 480l-382 -476z" />
    <glyph glyph-name="fraction" unicode="&#x2044;" horiz-adv-x="1011" 
d="M144 73q0 24 9 48.5t22 43.5l-1 -1l200 468l145 341l98.5 233l61 144.5l31.5 75.5l11 27q7 20 15 39t19.5 34t28 24t42.5 9q19 0 39.5 -6.5t37.5 -19t28 -32t11 -44.5q0 -16 -5.5 -39t-13.5 -40l-553 -1312v1q-5 -18 -10.5 -35t-16 -30.5t-27 -22t-43.5 -8.5
q-32 0 -56 8.5t-40 23t-24.5 32.5t-8.5 38z" />
    <glyph glyph-name="tbar" unicode="&#x167;" horiz-adv-x="1000" 
d="M285 290l-3 325q-17 -2 -35 -2h-36q-26 0 -50 5.5t-43 19t-30 36t-11 55.5q0 45 38 72.5t102 27.5q16 0 31.5 -0.5t31.5 -0.5l-1 167l-121 -1q-23 0 -40 9.5t-28.5 26t-17.5 37.5t-6 44q0 39 9.5 59.5t27.5 30t44 11t60 1.5h71v37q0 37 -0.5 60t-0.5 31q0 29 -5.5 58
t-5.5 59q0 25 6 44t20.5 32.5t38.5 20.5t59 7q24 0 45.5 -4t38 -15.5t26.5 -31.5t10 -52q0 -43 -7.5 -85t-6.5 -87v-73q78 2 121.5 3t70.5 2q4 0 7.5 0.5t6.5 0.5q12 1 27 1h24q19 0 37 -6t31.5 -20t21.5 -36t8 -53q0 -24 -4 -45t-15 -37t-32 -25.5t-54 -9.5
q-31 0 -62.5 3.5t-64.5 4.5l-121 -1l1 -175q63 1 126 9.5t129 8.5q24 0 46.5 -3.5t39.5 -15.5t27 -34t10 -59q0 -33 -14 -55t-33.5 -35t-39.5 -18.5t-33 -5.5q-63 0 -125.5 3t-130.5 5l4 -414q41 7 72 13t58 12t53 14t57 20q17 9 40 18.5t48 9.5q49 0 77 -33.5t28 -87.5
q0 -14 -6.5 -31t-19.5 -33.5t-33.5 -30t-48.5 -19.5q-30 -6 -69 -15l-82 -19l-86 -20t-81 -17.5t-67 -12.5t-44 -4q-18 0 -39.5 4.5t-39.5 16t-29.5 32t-11.5 52.5z" />
    <glyph glyph-name="Tbar" unicode="&#x166;" horiz-adv-x="1138" 
d="M444 782q-35 -2 -70 -4.5t-73 -2.5q-26 0 -50 5.5t-43 19t-30 36t-11 55.5q0 45 38 72.5t102 27.5q34 0 68 -1.5t69 -3.5l1 334q-70 0 -145 -1t-164 -1q-24 0 -42 11t-30 28.5t-18 39.5t-6 44q0 59 33 81.5t107 22.5h798q20 0 41.5 -5t39 -18t29 -34t11.5 -54
q0 -24 -8 -46t-21.5 -38t-32 -26t-39.5 -10q-16 0 -31 3t-32 3h-258l-1 -332q42 5 83 9t85 4q24 0 46.5 -3.5t39.5 -15.5t27 -34t10 -59q0 -33 -14 -55t-33.5 -35t-39.5 -18.5t-33 -5.5q-42 0 -84.5 1.5t-87.5 3.5l-1 -588q0 -24 3.5 -47t3.5 -50q0 -22 -4 -44t-17 -40
t-37 -29.5t-63 -11.5q-46 0 -70 15.5t-34.5 39.5t-11.5 53t-1 56z" />
    <glyph glyph-name="Hbar" unicode="&#x126;" horiz-adv-x="1576" 
d="M219 91q0 50 3.5 100.5t3.5 107.5v33t-0.5 52t-1 89.5t-2 145.5l-3.5 221t-4 315h-19q-9 -1 -25 -1h-31q-47 0 -74.5 19t-27.5 69q0 33 13.5 53t37 30t55.5 13.5t69 3.5v23q0 28 -7.5 56t-7.5 61q0 26 6.5 46t24 34t46.5 21.5t74 7.5q23 0 40 -9.5t28.5 -25t17 -34.5
t5.5 -38q0 -34 -2 -69t-4 -76q42 0 102 -0.5t143.5 -0.5h194.5h256v27q0 29 -6 57.5t-6 59.5q0 26 6.5 46t24 34t47 21.5t74.5 7.5q24 0 41 -11t27.5 -27.5t15 -35t4.5 -33.5q0 -35 -1 -69t-3 -69q25 0 51 -2t47.5 -11.5t35.5 -29t14 -53.5q0 -23 -4 -41.5t-16 -31.5
t-34.5 -20t-60.5 -7h-40v-133t0.5 -137.5t0.5 -147v-160.5q0 -101 2.5 -170.5t6 -117t7.5 -77t7 -49.5q3 -16 5 -32t2 -34q0 -23 -5.5 -42t-19 -32.5t-36.5 -21.5t-58 -8q-40 0 -66 6.5t-41.5 20t-22 32.5t-6.5 45q0 51 7.5 102.5t7.5 105.5q0 71 -5 159t-5 176
q-71 1 -163 0.5t-187.5 -2t-185 -4t-156.5 -3.5q2 -68 5 -131.5t6 -118.5t6.5 -99.5t6.5 -72.5q3 -27 4.5 -52t1.5 -61q0 -23 -5 -41.5t-18.5 -32.5t-36 -21.5t-58.5 -7.5q-40 0 -65 6.5t-39.5 19.5t-19.5 32t-5 45zM434 848q104 -3 200 -5.5t200 -2.5q72 0 144 5t151 7
v42.5t0.5 70.5t0.5 90v100q-103 1 -274 1t-422 -1v-307z" />
    <glyph glyph-name="dcroat" unicode="&#x111;" horiz-adv-x="1578" 
d="M119 600q0 136 45.5 251.5t126 200t190.5 132.5t239 48q58 0 115 -11.5t108.5 -34t95.5 -55.5t77 -76v75.5t-1 116.5l-129 2q-18 0 -36 5t-32.5 16t-23.5 30t-9 46q0 37 26.5 59t91.5 22l110 -1q0 32 -0.5 66t-0.5 70h-85q-23 0 -45 -5t-47 -5q-18 0 -36.5 8.5t-33 24
t-24 38t-9.5 51.5q0 52 27 80t68 28q10 0 24 -0.5t32 -5.5q66 -1 133 1.5t144 3.5q42 0 66 -29t24 -77q0 -34 -9 -53l-3 -197h40q19 0 37.5 5t39.5 5q15 0 32 -1.5t31.5 -10.5t24.5 -28.5t10 -54.5q0 -57 -26 -77t-72 -20l-119 1q-1 -107 -1.5 -216.5t-1 -205t-0.5 -168.5
v-107q0 -98 1.5 -176.5t5.5 -123.5l18 11q21 12 40.5 21t42.5 11q17 2 35 -3.5t33 -18t25 -33.5t10 -51q0 -42 -22.5 -67.5t-46.5 -35.5q-24 -11 -46 -22.5l-45 -23.5l-65.5 -34t-55.5 -16q-48 0 -77.5 45.5t-44.5 121.5q-40 -41 -91 -74t-109 -57t-121.5 -37t-127.5 -13
q-130 0 -235.5 49t-180.5 134t-116 199.5t-41 246.5zM342 600q0 -79 25 -153.5t72.5 -132.5t115.5 -93t154 -35q66 0 132 21.5t121.5 61t96.5 96t56 127.5v67t-0.5 44.5t-0.5 34v35.5q-16 72 -51.5 134.5t-86.5 108.5t-114.5 72.5t-134.5 26.5q-83 0 -153.5 -30t-122 -84.5
t-80.5 -131t-29 -169.5z" />
    <glyph glyph-name="Dcroat" unicode="&#x110;" horiz-adv-x="1626" 
d="M90 0zM224 117q0 46 4 90t4 103v188.5t-1 190.5h-42q-18 0 -35.5 2.5t-31.5 13t-23 33t-9 63.5q0 31 10 49t28 27.5t44 12.5t58 3q-3 245 -9 490q-11 21 -19.5 46t-8.5 43q0 43 23.5 72.5t80.5 29.5q29 0 57 -7.5t60 -7.5q70 0 139 7.5t141 7.5q147 0 263.5 -28.5
t204.5 -79t150 -120t100.5 -152t56.5 -175t18 -187.5q0 -85 -17.5 -181.5t-57.5 -191t-104 -181t-158 -152.5t-219.5 -105.5t-287.5 -39.5q-38 0 -75.5 3.5t-75.5 8t-76.5 8t-78.5 3.5q-61 0 -87 28t-26 85zM447 220q21 -6 50.5 -9.5t59.5 -5.5t56.5 -2.5t41.5 -0.5
q124 0 217 31t159.5 81t110.5 113t69.5 127t35.5 123t10 101q0 166 -39.5 276.5t-116 176.5t-188 93t-256.5 27q-19 0 -46.5 -1l-57.5 -2t-59.5 -3t-52.5 -3l2 -449q74 0 120 -0.5t72.5 -0.5h37.5h16q17 0 34.5 5.5t36.5 5.5q14 0 32 -5.5t34.5 -18.5t27.5 -36t11 -57
q0 -57 -26.5 -81t-71.5 -24q-81 0 -161 1t-162 3z" />
    <glyph glyph-name="notequal" unicode="&#x2260;" horiz-adv-x="1184" 
d="M307 91q0 22 8.5 40t29.5 51l22 86l22 86l-167 2q-18 0 -35.5 5t-31.5 18.5t-23 38.5t-9 64q0 31 10 48.5t29 26.5t45 11t58 2l174 -1l30 130l34 153l-281 3q-18 0 -35.5 5t-31.5 18.5t-23 38.5t-9 64q0 31 10 48.5t29 26.5t45 11t58 2l288 -1q11 50 23 95l23 88
q8 29 17 57t23 50.5t34.5 36t51.5 13.5q19 0 38 -6.5t34.5 -19.5t25 -31.5t9.5 -43.5q0 -13 -3.5 -29t-8 -30t-8.5 -25t-5 -13q-11 -34 -21 -69.5l-21 -72.5h121q7 0 15 2l16 4q9 2 19 4t21 2q13 0 31 -5t34.5 -18t27.5 -35.5t11 -56.5q0 -54 -26.5 -85.5t-71.5 -31.5
q-25 0 -55 0.5t-70 0.5l-128 1q-11 -46 -20.5 -92l-18.5 -93l-20 -96h235q7 0 15 2l16 4q9 2 19 4t21 2q13 0 31 -5t34.5 -18t27.5 -35t11 -56q0 -54 -26.5 -86t-71.5 -32q-25 0 -55 0.5t-70 0.5l-240 2l-38.5 -144.5l-35.5 -143.5q-3 -14 -7.5 -28t-14 -26t-27 -20.5
t-47.5 -9.5q-32 0 -55 10t-37.5 26t-21.5 36t-7 39z" />
    <glyph glyph-name="minus" unicode="&#x2212;" horiz-adv-x="1348" 
d="M276 616q-18 0 -35.5 5t-32 19t-23.5 38.5t-9 63.5q0 31 10.5 48.5t29.5 26.5t45.5 11.5t58.5 2.5h161t150 -0.5t159 -0.5h188q17 0 33.5 5.5t36.5 5.5q14 0 32.5 -5t34.5 -18t27 -35t11 -56q0 -54 -26.5 -86t-71.5 -32q-92 1 -179 2.5t-179.5 2.5t-195.5 1.5t-225 0.5z
" />
    <glyph glyph-name="lessequal" unicode="&#x2264;" horiz-adv-x="1186" 
d="M288 307q-26 0 -45.5 10.5t-32 27.5t-19 38t-6.5 42q0 29 12 49t28.5 32t33.5 17.5t28 6.5l411 158l-147.5 51.5l-106.5 37l-73.5 26l-48.5 17l-31.5 11t-22.5 8.5q-16 7 -30.5 14.5t-25.5 18t-17.5 27t-6.5 41.5q0 19 9 40.5t23.5 39.5t32.5 29.5t36 11.5
q29 0 54.5 -13.5t39.5 -23.5l553 -214h-3q2 -1 5 -2q2 -1 5 -2t7 -2l26 -10.5t23 -15.5t16 -26.5t6 -43.5q0 -16 -2.5 -34t-8.5 -35t-15.5 -30t-22.5 -19l-85.5 -34.5l-126 -53l-169.5 -73.5l-216 -94q-19 -10 -40 -19t-47 -9zM86 99q0 37 19 69t56 38l755 5q17 0 34 6.5
t36 6.5q14 0 32 -4.5t33.5 -16.5t26.5 -33t11 -55q0 -26 -7 -47t-23.5 -36t-44 -23.5t-68.5 -8.5h-778q-22 1 -37.5 9.5t-25.5 22t-14.5 31t-4.5 36.5z" />
    <glyph glyph-name="greaterequal" unicode="&#x2265;" horiz-adv-x="1186" 
d="M86 0zM887.018 307q25.998 0 45.4971 10.5t31.998 27.5t18.999 38t6.5 42q0 29 -12 49q-11.999 20 -28.498 32t-33.498 17.5t-27.998 6.5l-410.975 158l147.49 51.5l106.494 37l73.4951 26l48.4971 17l31.498 11t22.499 8.5q15.999 7 30.498 14.5t25.498 18
q11 10.5 17.499 27q6.5 16.5 6.5 41.5q0 19 -9 40.5q-8.99902 21.5 -23.498 39.5t-32.498 29.5t-35.998 11.5q-28.998 0 -54.4961 -13.5q-25.499 -13.5 -39.498 -23.5l-552.967 -214h3q-2 -1 -4.99902 -2q-2 -1 -5 -2t-7 -2l-25.998 -10.5t-22.999 -15.5
q-9.99902 -10 -15.999 -26.5q-5.99902 -16.5 -5.99902 -43.5q0 -16 2.5 -34t8.49902 -35q6 -17 15.499 -30q9.5 -13 22.499 -19l85.4941 -34.5l125.993 -53l169.489 -73.5l215.986 -94q18.999 -10 39.998 -19t46.9971 -9zM1089 99q0 37 -18.999 69q-18.998 32 -55.9961 38
l-754.954 5q-16.999 0 -33.998 6.5t-35.9971 6.5q-14 0 -31.998 -4.5q-17.999 -4.5 -33.498 -16.5t-26.499 -33q-10.999 -21 -10.999 -55q0 -26 7 -47q6.99902 -21 23.498 -36t43.9971 -23.5q27.499 -8.5 68.4961 -8.5h777.952q21.999 1 37.498 9.5t25.498 22
q10 13.5 14.5 31q4.49902 17.5 4.49902 36.5z" />
    <glyph glyph-name="infinity" unicode="&#x221e;" horiz-adv-x="1858" 
d="M580 213q-86 0 -162 33t-133 89t-90.5 129.5t-33.5 154.5q0 94 32.5 170.5t90.5 130t138.5 82.5t176.5 29q54 0 100 -14t84 -39t69 -59t55 -73q34 39 74 73t84.5 59t93.5 39.5t102 14.5q100 0 176 -34t127.5 -91t78 -132.5t26.5 -158.5q0 -93 -30 -168.5t-82.5 -129
t-123.5 -82.5t-153 -29q-54 0 -104.5 10t-94.5 32.5t-82 58.5t-67 88q-36 -50 -77 -85t-86 -56.5t-92.5 -31.5t-96.5 -10zM584 418q29 0 61.5 13.5t64 37.5t60 57t48.5 72l-37 71t-48.5 74.5t-64 58.5t-82.5 24q-48 0 -85 -18t-62.5 -46.5t-38.5 -64t-13 -70.5
q0 -39 13.5 -77t39 -67t62 -47t82.5 -18zM1016 658q17 -36 41 -79t55 -80t70 -61.5t87 -24.5q81 0 130 53.5t49 153.5q0 46 -12.5 84t-35.5 65t-55.5 41.5t-72.5 14.5q-43 0 -81 -16t-70 -40.5t-58.5 -54t-46.5 -56.5z" />
    <glyph glyph-name="lcaron" unicode="&#x13e;" horiz-adv-x="825" 
d="M0 0zM254 120q0 62 3 131q2 36 3 81.5t1 90.5q0 30 -0.5 95.5t-1 155.5t-2 200l-3 229.5l-3 243.5t-3.5 243q-39 -1 -79 -4.5t-82 -3.5q-18 0 -36.5 6t-33.5 18.5t-25 33.5t-10 51q0 53 28.5 80.5t66.5 27.5q35 0 69 -4t72 -4q28 0 49 1t40.5 2.5t41.5 3t53 1.5
q42 0 68.5 -26.5t26.5 -81.5q0 -20 -3.5 -39t-8 -38t-8 -38.5t-4.5 -39.5v-1311q41 12 65.5 18t42.5 6q105 0 105 -110q0 -45 -30.5 -69.5t-87.5 -38.5l-100 -26q-34 -11 -53 -14t-41 -3q-32 0 -54.5 12t-37 31.5t-21.5 42.5t-7 46zM668 1136q-20 0 -38.5 6t-32.5 18
t-22.5 30t-8.5 42q0 25 8 44.5t20 36.5q14 19 21.5 41t10.5 46.5t3 50v50.5q0 16 -1 33t-1 43q0 25 5 46t18.5 36.5t36 24.5t57.5 9q37 0 58.5 -15t32 -38t13 -51t2.5 -55q0 -67 -13 -132.5t-42 -146.5q-6 -16 -17.5 -36.5t-27.5 -39t-37 -31t-45 -12.5z" />
    <glyph glyph-name="Lcaron" unicode="&#x13d;" horiz-adv-x="1098" 
d="M198 17zM198 128q0 29 8.5 57.5t8.5 60.5l-15 1194q1 76 26.5 112.5t87.5 36.5q34 0 57 -6t37 -21t19.5 -39t5.5 -60v-150q0 -62 -0.5 -147.5t-0.5 -182.5v-200.5v-202v-186.5t1 -154q117 0 197.5 0.5t132.5 2.5q28 2 56 6.5t60 4.5q66 0 100.5 -30t34.5 -88
q0 -39 -15 -62.5t-39.5 -36t-55 -16.5t-61.5 -4h-531q-25 0 -46 4.5t-36 16.5t-23.5 33.5t-8.5 56.5zM756 1136q-20 0 -38.5 6t-32.5 18t-22.5 30t-8.5 42q0 25 8 44.5t20 36.5q14 19 21.5 41t10.5 46.5t3 50v50.5q0 16 -1 33t-1 43q0 25 5 46t18.5 36.5t36 24.5t57.5 9
q37 0 58.5 -15t32 -38t13 -51t2.5 -55q0 -67 -13 -132.5t-42 -146.5q-6 -16 -17.5 -36.5t-27.5 -39t-37 -31t-45 -12.5z" />
    <glyph glyph-name="tcaron" unicode="&#x165;" horiz-adv-x="1011" 
d="M285 290l-6 705l-121 -1q-23 0 -40 9.5t-28.5 26t-17.5 37.5t-6 44q0 39 9.5 59.5t27.5 30t44 11t60 1.5h71v37q0 37 -0.5 60t-0.5 31q0 29 -5.5 58t-5.5 59q0 25 6 44t20.5 32.5t38.5 20.5t59 7q24 0 45.5 -4t38 -15.5t26.5 -31.5t10 -52q0 -43 -7.5 -85t-6.5 -87v-72
q25 0 43.5 0.5t33 1.5t26.5 1.5t24 0.5q4 0 7.5 0.5t6.5 0.5q11 1 26 1h25q19 0 37 -6t31.5 -20t21.5 -36t8 -53q0 -24 -4 -45t-15.5 -37t-32 -25.5t-53.5 -9.5q-31 0 -62.5 3.5t-65.5 4.5l-55 -1l5 -792q41 7 75 14t64 14.5t58.5 16.5t59.5 21q17 9 40 18.5t47 9.5
q50 0 77.5 -33.5t27.5 -87.5q0 -14 -6 -31t-19.5 -33.5t-34 -30t-48.5 -19.5l-69.5 -15l-84.5 -19.5l-89.5 -21l-85 -19t-69.5 -13.5t-45 -4q-18 0 -39.5 4.5t-39.5 16t-29.5 32t-11.5 52.5zM917 1136q-20 0 -38.5 6t-32.5 18t-22.5 30t-8.5 42q0 25 8 44.5t20 36.5
q14 19 21.5 41t10.5 46.5t3 50v50.5q0 16 -1 33t-1 43q0 25 5 46t18.5 36.5t36 24.5t57.5 9q37 0 58.5 -15t32 -38t13 -51t2.5 -55q0 -67 -13 -132.5t-42 -146.5q-6 -16 -17.5 -36.5t-27.5 -39t-37 -31t-45 -12.5z" />
    <glyph glyph-name="dcaron" unicode="&#x10f;" horiz-adv-x="1732" 
d="M119 0zM119 617q0 136 45.5 251.5t126 200t190.5 132.5t239 48q58 0 115 -11.5t108.5 -34t95.5 -55.5t77 -76v74t-0.5 114t-1.5 147t-2 172h-85q-23 0 -45 -5t-47 -5q-18 0 -36.5 8.5t-33 24t-24 38t-9.5 51.5q0 52 27 80t68 28q10 0 24 -0.5t32 -5.5q66 -1 133 1.5
t144 3.5q42 0 66 -29t24 -77q0 -34 -9 -53q-2 -65 -3 -160.5t-2 -203.5t-1.5 -220t-1 -209.5t-0.5 -172.5v-109q0 -98 1.5 -176.5t5.5 -123.5l18 11q21 12 40.5 21t42.5 11q17 2 35 -3.5t33 -18t25 -33.5t10 -51q0 -42 -22.5 -67.5t-46.5 -35.5q-24 -11 -46 -22.5l-45 -23.5
l-65.5 -34t-55.5 -16q-48 0 -77.5 45.5t-44.5 121.5q-40 -41 -91 -74t-109 -57t-121.5 -37t-127.5 -13q-130 0 -235.5 49t-180.5 134t-116 199.5t-41 246.5zM342 617q0 -79 25 -153.5t72.5 -132.5t115.5 -93t154 -35q66 0 132 21.5t121.5 61t96.5 96t56 127.5v67t-0.5 44.5
t-0.5 34v35.5q-16 72 -51.5 134.5t-86.5 108.5t-114.5 72.5t-134.5 26.5q-83 0 -153.5 -30t-122 -84.5t-80.5 -131t-29 -169.5zM1555 1136q-20 0 -38.5 6t-32.5 18t-22.5 30t-8.5 42q0 25 8 44.5t20 36.5q14 19 21.5 41t10.5 46.5t3 50v50.5q0 16 -1 33t-1 43q0 25 5 46
t18.5 36.5t36 24.5t57.5 9q37 0 58.5 -15t32 -38t13 -51t2.5 -55q0 -67 -13 -132.5t-42 -146.5q-6 -16 -17.5 -36.5t-27.5 -39t-37 -31t-45 -12.5z" />
    <glyph glyph-name="seven" unicode="7" horiz-adv-x="1184" 
d="M378 97q0 35 15 69t29 60q22 56 44 118.5l47 138.5l53.5 168l63 206l76.5 253l93 309h-62.5t-87 -0.5t-130 -0.5h-192.5q-47 -4 -74 -6.5t-42 -3.5t-20.5 -1h-8.5q-57 0 -91.5 27.5t-34.5 90.5q0 36 13.5 57.5t37 32.5t53.5 14.5t63 3.5h712q18 0 38 -6.5t37.5 -21
t29 -37.5t11.5 -57q0 -18 -3 -38.5t-10 -41.5q-18 -49 -38 -110l-44.5 -139l-55 -176.5l-68.5 -224l-84.5 -281.5l-104.5 -348q-2 -32 -8.5 -64.5t-22 -59t-42 -43t-67.5 -16.5q-21 0 -43.5 8t-40.5 23.5t-29.5 39.5t-11.5 57z" />
    <glyph glyph-name="daggerdbl" unicode="&#x2021;" horiz-adv-x="1186" 
d="M467 98q0 5 0.5 16t1 47.5t1 110t1.5 203.5q-38 -1 -77.5 -1h-84.5q-18 0 -36 5t-32 19t-23 39t-9 65q0 30 10.5 48t30 27.5t47 12.5t60.5 3h114q0 63 0.5 137.5t0.5 157.5q-38 -1 -78 -1h-85q-18 0 -36 5t-32 19t-23 39t-9 65q0 30 10.5 48t30 27.5t47 12.5t60.5 3h115
v122q0 29 -5.5 58t-5.5 59q0 26 4.5 47.5t19.5 36.5t42.5 23.5t73.5 8.5q22 0 40 -12.5t31 -30.5t19.5 -37.5t6.5 -33.5q0 -11 -3 -26t-7 -26l-3 -189h78q19 0 42 6t43 6q19 0 37.5 -4t33.5 -15t24 -32.5t9 -55.5q0 -27 -8.5 -49.5t-23 -38t-34 -24t-41.5 -8.5h-78.5
t-81.5 -1v-27v-135.5t1 -134.5h77q19 0 42 6t43 6q19 0 37.5 -4t33.5 -15t24 -32.5t9 -55.5q0 -27 -8.5 -49.5t-23 -38t-34 -24t-41.5 -8.5h-76.5t-79.5 -1q2 -96 5 -178.5t8 -145.5l1 -3l4 -25t2 -27q0 -22 -5 -42.5t-18.5 -36.5t-36.5 -25.5t-58 -9.5q-40 0 -64.5 8
t-37.5 23t-17.5 36t-4.5 47z" />
    <glyph glyph-name="rcaron" unicode="&#x159;" horiz-adv-x="1252" 
d="M128 0zM214 89q0 35 1 70t2 77v771q0 28 -6 56.5t-6 59.5q0 53 38 81t103 28q28 0 49 -9.5t35 -24.5t21 -34t7 -39q0 -17 -2.5 -34.5t-5.5 -34.5q153 38 260.5 69t168.5 51q13 23 36.5 39.5t61.5 16.5q55 0 87.5 -28.5t32.5 -71.5q0 -17 -2 -35t-2 -36q-6 -61 -2.5 -124
t8.5 -127q2 -20 2.5 -42.5t0.5 -45.5q0 -24 -12 -40t-30.5 -25.5t-40.5 -13.5t-43 -4q-30 0 -50 10.5t-32.5 27t-18 37t-5.5 40.5q0 46 1 93.5t2 104.5l-104.5 -24l-145.5 -32q-45 -11 -89 -20.5l-89 -19.5v-653l30 9q20 7 38 12.5t41 7.5q19 -2 37.5 -9t33 -20t23.5 -32.5
t9 -44.5q0 -23 -7.5 -44t-20.5 -37.5t-30.5 -27t-38.5 -11.5q-14 -2 -38 -6.5l-56 -10.5q-51 -10 -82.5 -14t-52.5 -4q-23 0 -44.5 7.5t-37.5 22.5t-25.5 37t-9.5 51zM533 1431q-34 0 -64.5 11.5t-62.5 43.5q-45 43 -97 79t-106 80q-20 17 -34.5 32t-23.5 30t-13 32t-4 38
q0 42 26 67.5t73 25.5q41 0 64 -13t40 -28q46 -43 98 -78t101 -77l49.5 36l53 42l51.5 43.5t45 40.5q7 8 19 15t25.5 11.5t26.5 7t23 2.5q23 0 43 -7.5t35 -21t23.5 -31.5t8.5 -39q0 -42 -23 -73t-72 -59q-12 -6 -37.5 -26.5l-55 -45.5l-58 -50.5l-46.5 -41.5
q-23 -19 -46 -32.5t-62 -13.5z" />
    <glyph glyph-name="ugrave" unicode="&#xf9;" horiz-adv-x="1437" 
d="M105 0zM157 546q0 94 20.5 203t66.5 209q-20 -6 -37 -6q-38 0 -59 13.5t-30.5 31.5t-11 37t-1.5 30q0 30 10 49.5t28 31.5t44.5 19t59.5 14q17 2 37 9.5t39 15.5q26 11 55 20t60 9q32 0 54.5 -9t37 -24.5t21 -36t6.5 -43.5q0 -29 -13 -59t-37 -57q-32 -36 -56 -89
t-40.5 -114.5t-25 -127t-8.5 -126.5q0 -188 77.5 -277t228.5 -89q49 0 98.5 14t97 38.5t91 58t81.5 72.5q2 85 3 157.5t1 141.5v79.5t-1 74l-2 76t-3 86.5q-31 -9 -59 -14t-42 -5q-21 0 -40 7t-34 21t-24 35.5t-9 50.5q0 31 11.5 50.5t33 31t51.5 18.5l67 15q21 3 40.5 10.5
l39.5 15t41 13t44 5.5q36 0 55 -12.5t28 -34t10.5 -51t1.5 -62.5v-74.5t1 -102.5q0 -164 3 -333.5t3 -362.5q0 -27 3.5 -54.5t3.5 -59.5q0 -27 -3.5 -47.5t-17 -34.5t-40 -22.5t-73.5 -9.5q-30 0 -50.5 11.5t-33 28.5t-18 36.5t-5.5 35.5q0 11 1.5 17.5t3.5 16.5
q-46 -40 -94.5 -67.5t-95.5 -45t-91.5 -25.5t-82.5 -8q-260 0 -390.5 147t-130.5 428zM770 1404q-23 0 -39 4.5t-30 14t-28 23.5t-32 34v-1l-96 94.5t-103 93.5q-33 27 -43 50t-10 55q0 17 8.5 35.5t23 33.5t33 24.5t39.5 9.5t48 -12.5t61 -43.5l87.5 -84l59 -55.5l37.5 -34
t24 -20.5q8 -3 21 -13t25.5 -24t21.5 -30.5t9 -34.5q0 -57 -33.5 -88t-83.5 -31z" />
    <glyph glyph-name="uacute" unicode="&#xfa;" horiz-adv-x="1437" 
d="M105 0zM157 546q0 94 20.5 203t66.5 209q-20 -6 -37 -6q-38 0 -59 13.5t-30.5 31.5t-11 37t-1.5 30q0 30 10 49.5t28 31.5t44.5 19t59.5 14q17 2 37 9.5t39 15.5q26 11 55 20t60 9q32 0 54.5 -9t37 -24.5t21 -36t6.5 -43.5q0 -29 -13 -59t-37 -57q-32 -36 -56 -89
t-40.5 -114.5t-25 -127t-8.5 -126.5q0 -188 77.5 -277t228.5 -89q49 0 98.5 14t97 38.5t91 58t81.5 72.5q2 85 3 157.5t1 141.5v79.5t-1 74l-2 76t-3 86.5q-31 -9 -59 -14t-42 -5q-21 0 -40 7t-34 21t-24 35.5t-9 50.5q0 31 11.5 50.5t33 31t51.5 18.5l67 15q21 3 40.5 10.5
l39.5 15t41 13t44 5.5q36 0 55 -12.5t28 -34t10.5 -51t1.5 -62.5v-74.5t1 -102.5q0 -164 3 -333.5t3 -362.5q0 -27 3.5 -54.5t3.5 -59.5q0 -27 -3.5 -47.5t-17 -34.5t-40 -22.5t-73.5 -9.5q-30 0 -50.5 11.5t-33 28.5t-18 36.5t-5.5 35.5q0 11 1.5 17.5t3.5 16.5
q-46 -40 -94.5 -67.5t-95.5 -45t-91.5 -25.5t-82.5 -8q-260 0 -390.5 147t-130.5 428zM701 1413q-20 0 -39 9t-33.5 23.5t-23 32t-8.5 35.5q0 24 14.5 49.5t36 49.5t46 46l44.5 39l108 106v-1q18 19 33.5 33.5t31 24.5t32 15.5t37.5 5.5q25 0 47.5 -8t39 -23.5t26 -37.5
t9.5 -50q0 -18 -9 -35t-21.5 -30.5t-25.5 -23t-21 -12.5l1 1l-50 -44l-55.5 -50.5l-56 -52.5l-51.5 -49q-37 -34 -63 -43.5t-49 -9.5z" />
    <glyph glyph-name="ucircumflex" unicode="&#xfb;" horiz-adv-x="1437" 
d="M105 0zM157 546q0 94 20.5 203t66.5 209q-20 -6 -37 -6q-38 0 -59 13.5t-30.5 31.5t-11 37t-1.5 30q0 30 10 49.5t28 31.5t44.5 19t59.5 14q17 2 37 9.5t39 15.5q26 11 55 20t60 9q32 0 54.5 -9t37 -24.5t21 -36t6.5 -43.5q0 -29 -13 -59t-37 -57q-32 -36 -56 -89
t-40.5 -114.5t-25 -127t-8.5 -126.5q0 -188 77.5 -277t228.5 -89q49 0 98.5 14t97 38.5t91 58t81.5 72.5q2 85 3 157.5t1 141.5v79.5t-1 74l-2 76t-3 86.5q-31 -9 -59 -14t-42 -5q-21 0 -40 7t-34 21t-24 35.5t-9 50.5q0 31 11.5 50.5t33 31t51.5 18.5l67 15q21 3 40.5 10.5
l39.5 15t41 13t44 5.5q36 0 55 -12.5t28 -34t10.5 -51t1.5 -62.5v-74.5t1 -102.5q0 -164 3 -333.5t3 -362.5q0 -27 3.5 -54.5t3.5 -59.5q0 -27 -3.5 -47.5t-17 -34.5t-40 -22.5t-73.5 -9.5q-30 0 -50.5 11.5t-33 28.5t-18 36.5t-5.5 35.5q0 11 1.5 17.5t3.5 16.5
q-46 -40 -94.5 -67.5t-95.5 -45t-91.5 -25.5t-82.5 -8q-260 0 -390.5 147t-130.5 428zM440 1442q-47 0 -73 26t-26 68q0 21 4 36.5t13 29t23 26.5t35 29l64 49l51.5 39.5l44 35.5t41.5 38q33 32 63.5 42.5t65.5 10.5t63 -17t57 -44q15 -15 41 -37.5l54 -45l53 -41t38 -26.5
q45 -27 69.5 -58.5t24.5 -71.5q0 -42 -32 -66.5t-78 -24.5q-10 0 -23 3t-26 7.5t-25 11t-20 14.5q-20 19 -45.5 41l-52 44l-53 42t-49.5 35q-19 -12 -44.5 -30.5l-52.5 -39l-53.5 -42.5t-47.5 -42q-16 -16 -40 -29t-64 -13z" />
    <glyph glyph-name="udieresis" unicode="&#xfc;" horiz-adv-x="1437" 
d="M105 0zM157 546q0 94 20.5 203t66.5 209q-20 -6 -37 -6q-38 0 -59 13.5t-30.5 31.5t-11 37t-1.5 30q0 30 10 49.5t28 31.5t44.5 19t59.5 14q17 2 37 9.5t39 15.5q26 11 55 20t60 9q32 0 54.5 -9t37 -24.5t21 -36t6.5 -43.5q0 -29 -13 -59t-37 -57q-32 -36 -56 -89
t-40.5 -114.5t-25 -127t-8.5 -126.5q0 -188 77.5 -277t228.5 -89q49 0 98.5 14t97 38.5t91 58t81.5 72.5q2 85 3 157.5t1 141.5v79.5t-1 74l-2 76t-3 86.5q-31 -9 -59 -14t-42 -5q-21 0 -40 7t-34 21t-24 35.5t-9 50.5q0 31 11.5 50.5t33 31t51.5 18.5l67 15q21 3 40.5 10.5
l39.5 15t41 13t44 5.5q36 0 55 -12.5t28 -34t10.5 -51t1.5 -62.5v-74.5t1 -102.5q0 -164 3 -333.5t3 -362.5q0 -27 3.5 -54.5t3.5 -59.5q0 -27 -3.5 -47.5t-17 -34.5t-40 -22.5t-73.5 -9.5q-30 0 -50.5 11.5t-33 28.5t-18 36.5t-5.5 35.5q0 11 1.5 17.5t3.5 16.5
q-46 -40 -94.5 -67.5t-95.5 -45t-91.5 -25.5t-82.5 -8q-260 0 -390.5 147t-130.5 428zM485 1395q-19 0 -38.5 7.5t-35.5 21t-26.5 33.5t-10.5 44q0 32 16.5 69.5t42 69.5t55.5 53.5t57 21.5q23 0 44 -10.5t37.5 -27t26.5 -37t10 -40.5q0 -26 -18 -61.5t-45 -67.5t-58 -54
t-57 -22zM908 1388q-18 0 -37.5 7.5t-35.5 21.5t-26 33.5t-10 43.5q0 31 19.5 68t48.5 68t61.5 52t59.5 21q23 0 42.5 -10t34 -27t23 -38.5t8.5 -45.5v-1q0 -26 -19.5 -59.5t-48 -63t-61 -50t-59.5 -20.5z" />
    <glyph glyph-name="yacute" unicode="&#xfd;" horiz-adv-x="1457" 
d="M103 0zM208 -222q0 16 6.5 36t21 37.5t37.5 29.5t56 12q15 0 29 -6.5t26 -17t22.5 -22.5l19.5 -22q30 -37 62 -59t66.5 -33.5t72.5 -15t80 -3.5q77 0 142.5 17.5t113.5 60t76.5 114t31.5 178.5q0 2 -0.5 4t-0.5 4q-27 -26 -61.5 -48t-77 -38t-93.5 -25.5t-112 -9.5
q-119 0 -227 32t-190 105t-130.5 189.5t-48.5 286.5q0 34 6 77.5t18 91.5t30.5 97t44.5 94q-5 -1 -9.5 -1h-9.5q-23 0 -42.5 9t-34 23t-22.5 31t-8 33q0 26 8 46.5t27.5 37t51.5 29t80 22.5q38 8 71.5 17.5t58.5 17.5q33 10 58.5 16.5t51.5 6.5q42 0 71.5 -27.5t29.5 -73.5
q0 -23 -8.5 -48.5t-36.5 -45.5q-28 -11 -55 -37t-51 -62t-44 -79t-34.5 -88.5t-22.5 -91.5t-8 -87q0 -114 30.5 -192.5t81.5 -127t118 -69.5t141 -21q130 0 213.5 40.5t132.5 123.5v23v608q-15 -5 -32 -10t-33.5 -9t-30.5 -6.5t-23 -2.5q-21 0 -41.5 5t-37 16.5t-27 30.5
t-10.5 48q0 48 25 77.5t81 38.5l155 44l-1 -1q21 11 48 17.5t42 6.5q11 0 29.5 -2t36 -12.5t30.5 -34.5t13 -67q0 -12 -1 -24t-3 -21v-4t-0.5 -27t-0.5 -72t-0.5 -139t-1.5 -228.5t-2 -340.5q0 -44 3 -88.5t3 -99.5q0 -167 -43.5 -277.5t-122 -175.5t-187.5 -91.5
t-239 -26.5q-94 0 -182 20.5t-156.5 57.5t-109.5 88t-41 111zM667 1413q-20 0 -39 9t-33.5 23.5t-23 32t-8.5 35.5q0 24 14.5 49.5t36 49.5t46 46l44.5 39l108 106v-1q18 19 33.5 33.5t31 24.5t32 15.5t37.5 5.5q25 0 47.5 -8t39 -23.5t26 -37.5t9.5 -50q0 -18 -9 -35
t-21.5 -30.5t-25.5 -23t-21 -12.5l1 1l-50 -44l-55.5 -50.5l-56 -52.5l-51.5 -49q-37 -34 -63 -43.5t-49 -9.5z" />
    <glyph glyph-name="ydieresis" unicode="&#xff;" horiz-adv-x="1457" 
d="M103 0zM208 -222q0 16 6.5 36t21 37.5t37.5 29.5t56 12q15 0 29 -6.5t26 -17t22.5 -22.5l19.5 -22q30 -37 62 -59t66.5 -33.5t72.5 -15t80 -3.5q77 0 142.5 17.5t113.5 60t76.5 114t31.5 178.5q0 2 -0.5 4t-0.5 4q-27 -26 -61.5 -48t-77 -38t-93.5 -25.5t-112 -9.5
q-119 0 -227 32t-190 105t-130.5 189.5t-48.5 286.5q0 34 6 77.5t18 91.5t30.5 97t44.5 94q-5 -1 -9.5 -1h-9.5q-23 0 -42.5 9t-34 23t-22.5 31t-8 33q0 26 8 46.5t27.5 37t51.5 29t80 22.5q38 8 71.5 17.5t58.5 17.5q33 10 58.5 16.5t51.5 6.5q42 0 71.5 -27.5t29.5 -73.5
q0 -23 -8.5 -48.5t-36.5 -45.5q-28 -11 -55 -37t-51 -62t-44 -79t-34.5 -88.5t-22.5 -91.5t-8 -87q0 -114 30.5 -192.5t81.5 -127t118 -69.5t141 -21q130 0 213.5 40.5t132.5 123.5v23v608q-15 -5 -32 -10t-33.5 -9t-30.5 -6.5t-23 -2.5q-21 0 -41.5 5t-37 16.5t-27 30.5
t-10.5 48q0 48 25 77.5t81 38.5l155 44l-1 -1q21 11 48 17.5t42 6.5q11 0 29.5 -2t36 -12.5t30.5 -34.5t13 -67q0 -12 -1 -24t-3 -21v-4t-0.5 -27t-0.5 -72t-0.5 -139t-1.5 -228.5t-2 -340.5q0 -44 3 -88.5t3 -99.5q0 -167 -43.5 -277.5t-122 -175.5t-187.5 -91.5
t-239 -26.5q-94 0 -182 20.5t-156.5 57.5t-109.5 88t-41 111zM451 1395q-19 0 -38.5 7.5t-35.5 21t-26.5 33.5t-10.5 44q0 32 16.5 69.5t42 69.5t55.5 53.5t57 21.5q23 0 44 -10.5t37.5 -27t26.5 -37t10 -40.5q0 -26 -18 -61.5t-45 -67.5t-58 -54t-57 -22zM874 1388
q-18 0 -37.5 7.5t-35.5 21.5t-26 33.5t-10 43.5q0 31 19.5 68t48.5 68t61.5 52t59.5 21q23 0 42.5 -10t34 -27t23 -38.5t8.5 -45.5v-1q0 -26 -19.5 -59.5t-48 -63t-61 -50t-59.5 -20.5z" />
    <glyph glyph-name="Agrave" unicode="&#xc0;" horiz-adv-x="1568" 
d="M35 0zM35 77q0 32 9 64.5t33 65.5q17 29 46.5 88l66.5 139l79.5 174.5l86.5 193l87.5 197l82.5 185l71 156.5t54 113q3 22 12 43.5t24 39t36 28t49 10.5q36 0 58.5 -10t37 -27.5t23.5 -40.5t18 -49l15 -43.5t13 -31.5l130.5 -270l126 -276.5l126.5 -284.5l133 -293
l19 -28l19 -26.5t20.5 -33.5t16 -38t6.5 -40q0 -60 -34 -85.5t-83 -25.5q-27 0 -49.5 8.5t-39.5 23t-27 34t-13 41.5l-52 114.5l-46.5 103.5l-43.5 97.5l-42 95.5q-16 0 -45 0.5t-65 2.5q-57 0 -115.5 1t-119.5 1.5t-126 0t-136 -3.5q-11 -1 -21 -1.5t-21 -0.5l-53 -129.5
l-45 -113.5l-35.5 -92.5t-23.5 -65.5v1q-6 -22 -13.5 -43t-21.5 -37.5t-38.5 -27t-64.5 -10.5q-54 0 -89.5 27t-35.5 79zM546 707h54.5t87 -0.5t131.5 -1t189 -1.5l-104 225.5l-137 292.5l-49 -112l-54.5 -127l-58 -136zM793 1605q-23 0 -41.5 6.5t-34 17.5t-29 24.5
t-25.5 27.5q-8 8 -17.5 18.5t-17.5 17.5q-21 19 -33 31l-21 21t-17.5 16.5l-21.5 18.5q-33 27 -42 51.5t-10 54.5q0 17 9 34.5t23.5 32t34 24t40.5 9.5q20 0 46.5 -9.5t58.5 -45.5l28 -28.5l34 -34l37 -34.5l36 -32q8 -3 21 -13t25.5 -24t21.5 -30.5t9 -34.5q0 -57 -32 -88
t-82 -31z" />
    <glyph glyph-name="Aacute" unicode="&#xc1;" horiz-adv-x="1568" 
d="M35 0zM35 77q0 32 9 64.5t33 65.5q17 29 46.5 88l66.5 139l79.5 174.5l86.5 193l87.5 197l82.5 185l71 156.5t54 113q3 22 12 43.5t24 39t36 28t49 10.5q36 0 58.5 -10t37 -27.5t23.5 -40.5t18 -49l15 -43.5t13 -31.5l130.5 -270l126 -276.5l126.5 -284.5l133 -293
l19 -28l19 -26.5t20.5 -33.5t16 -38t6.5 -40q0 -60 -34 -85.5t-83 -25.5q-27 0 -49.5 8.5t-39.5 23t-27 34t-13 41.5l-52 114.5l-46.5 103.5l-43.5 97.5l-42 95.5q-16 0 -45 0.5t-65 2.5q-57 0 -115.5 1t-119.5 1.5t-126 0t-136 -3.5q-11 -1 -21 -1.5t-21 -0.5l-53 -129.5
l-45 -113.5l-35.5 -92.5t-23.5 -65.5v1q-6 -22 -13.5 -43t-21.5 -37.5t-38.5 -27t-64.5 -10.5q-54 0 -89.5 27t-35.5 79zM546 707h54.5t87 -0.5t131.5 -1t189 -1.5l-104 225.5l-137 292.5l-49 -112l-54.5 -127l-58 -136zM784 1605q-51 0 -83 31t-32 88q0 18 9 34.5
t21.5 30.5t25.5 24t21 13l36.5 32l36.5 34.5l34 34l28 28.5q32 36 59 45.5t47 9.5q21 0 40 -9.5t33.5 -24t23.5 -32t9 -34.5q-1 -30 -9.5 -54.5t-42.5 -51.5q-14 -11 -22 -18.5l-17 -16.5l-21 -21t-33 -31q-8 -7 -17.5 -17.5t-17.5 -18.5q-24 -28 -54.5 -52t-74.5 -24z" />
    <glyph glyph-name="Acircumflex" unicode="&#xc2;" horiz-adv-x="1568" 
d="M35 0zM35 77q0 32 9 64.5t33 65.5q17 29 46.5 88l66.5 139l79.5 174.5l86.5 193l87.5 197l82.5 185l71 156.5t54 113q3 22 12 43.5t24 39t36 28t49 10.5q36 0 58.5 -10t37 -27.5t23.5 -40.5t18 -49l15 -43.5t13 -31.5l130.5 -270l126 -276.5l126.5 -284.5l133 -293
l19 -28l19 -26.5t20.5 -33.5t16 -38t6.5 -40q0 -60 -34 -85.5t-83 -25.5q-27 0 -49.5 8.5t-39.5 23t-27 34t-13 41.5l-52 114.5l-46.5 103.5l-43.5 97.5l-42 95.5q-16 0 -45 0.5t-65 2.5q-57 0 -115.5 1t-119.5 1.5t-126 0t-136 -3.5q-11 -1 -21 -1.5t-21 -0.5l-53 -129.5
l-45 -113.5l-35.5 -92.5t-23.5 -65.5v1q-6 -22 -13.5 -43t-21.5 -37.5t-38.5 -27t-64.5 -10.5q-54 0 -89.5 27t-35.5 79zM546 707h54.5t87 -0.5t131.5 -1t189 -1.5l-104 225.5l-137 292.5l-49 -112l-54.5 -127l-58 -136zM546 1622q-46 0 -72 25t-26 58q0 41 18 73.5t60 59.5
q18 12 38 27l39.5 30.5t37 31l31.5 28.5q33 32 63.5 43.5t63.5 11.5q35 0 63.5 -16.5t57.5 -45.5q15 -15 35 -32l40.5 -33l39.5 -29.5t31 -19.5q53 -29 73.5 -59t20.5 -71q0 -42 -31 -65.5t-78 -23.5q-10 0 -23 3t-26 7.5t-25 11t-20 12.5l-43.5 37l-38.5 32.5t-38 29.5
l-41 29q-20 -12 -37 -23.5t-33.5 -25l-34.5 -29.5l-40 -37q-17 -16 -40.5 -28t-64.5 -12z" />
    <glyph glyph-name="Atilde" unicode="&#xc3;" horiz-adv-x="1568" 
d="M35 0zM35 77q0 32 9 64.5t33 65.5q17 29 46.5 88l66.5 139l79.5 174.5l86.5 193l87.5 197l82.5 185l71 156.5t54 113q3 22 12 43.5t24 39t36 28t49 10.5q36 0 58.5 -10t37 -27.5t23.5 -40.5t18 -49l15 -43.5t13 -31.5l130.5 -270l126 -276.5l126.5 -284.5l133 -293
l19 -28l19 -26.5t20.5 -33.5t16 -38t6.5 -40q0 -60 -34 -85.5t-83 -25.5q-27 0 -49.5 8.5t-39.5 23t-27 34t-13 41.5l-52 114.5l-46.5 103.5l-43.5 97.5l-42 95.5q-16 0 -45 0.5t-65 2.5q-57 0 -115.5 1t-119.5 1.5t-126 0t-136 -3.5q-11 -1 -21 -1.5t-21 -0.5l-53 -129.5
l-45 -113.5l-35.5 -92.5t-23.5 -65.5v1q-6 -22 -13.5 -43t-21.5 -37.5t-38.5 -27t-64.5 -10.5q-54 0 -89.5 27t-35.5 79zM546 707h54.5t87 -0.5t131.5 -1t189 -1.5l-104 225.5l-137 292.5l-49 -112l-54.5 -127l-58 -136zM454 1650q-48 0 -74.5 33t-26.5 93q0 48 20 90.5
t55 74.5t83 50.5t104 18.5q40 0 73 -10t61.5 -26t52.5 -36l45 -39l52 -47.5t49 -19.5q23 0 42 17t24 40q3 17 9 35.5t18 33.5t32 25t52 10q22 0 41.5 -6.5t34.5 -21t24 -37.5t9 -56q0 -43 -16 -86t-48.5 -77t-83 -55t-119.5 -21q-19 0 -40 3t-41.5 8t-38 11.5t-30.5 14.5
q-21 12 -46 36.5l-50.5 50t-50 44.5t-45.5 19q-12 0 -23 -7t-20 -18t-15 -24.5t-8 -25.5q-3 -18 -9.5 -35t-19 -30.5t-31 -21.5t-45.5 -8z" />
    <glyph glyph-name="Adieresis" unicode="&#xc4;" horiz-adv-x="1568" 
d="M35 0zM35 77q0 32 9 64.5t33 65.5q17 29 46.5 88l66.5 139l79.5 174.5l86.5 193l87.5 197l82.5 185l71 156.5t54 113q3 22 12 43.5t24 39t36 28t49 10.5q36 0 58.5 -10t37 -27.5t23.5 -40.5t18 -49l15 -43.5t13 -31.5l130.5 -270l126 -276.5l126.5 -284.5l133 -293
l19 -28l19 -26.5t20.5 -33.5t16 -38t6.5 -40q0 -60 -34 -85.5t-83 -25.5q-27 0 -49.5 8.5t-39.5 23t-27 34t-13 41.5l-52 114.5l-46.5 103.5l-43.5 97.5l-42 95.5q-16 0 -45 0.5t-65 2.5q-57 0 -115.5 1t-119.5 1.5t-126 0t-136 -3.5q-11 -1 -21 -1.5t-21 -0.5l-53 -129.5
l-45 -113.5l-35.5 -92.5t-23.5 -65.5v1q-6 -22 -13.5 -43t-21.5 -37.5t-38.5 -27t-64.5 -10.5q-54 0 -89.5 27t-35.5 79zM546 707h54.5t87 -0.5t131.5 -1t189 -1.5l-104 225.5l-137 292.5l-49 -112l-54.5 -127l-58 -136zM527 1649q-18 0 -37.5 7.5t-35.5 21.5t-26.5 33
t-10.5 43q0 32 16.5 69.5t42 69.5t55.5 53.5t56 21.5q23 0 44.5 -10t38 -26.5t26.5 -37t10 -41.5q0 -26 -18 -61.5t-45 -67t-58.5 -53.5t-57.5 -22zM964 1642q-18 0 -37.5 7.5t-35.5 21.5t-26.5 33.5t-10.5 42.5q0 32 19.5 68.5t48.5 68t61.5 52t59.5 20.5q23 0 43 -10
t34.5 -26.5t22.5 -38t8 -45.5v-1q0 -26 -19.5 -59.5t-48 -63t-61 -50t-58.5 -20.5z" />
    <glyph glyph-name="Aring" unicode="&#xc5;" horiz-adv-x="1568" 
d="M35 77q0 32 9 64.5t33 65.5q17 28 44.5 83.5l62 130.5l75 164.5l82.5 183.5l84 189l80.5 181l72 158.5l57.5 122.5q-84 28 -134.5 97t-50.5 182q0 92 31 152.5t81.5 96t113 50t125.5 14.5q71 0 128 -26t97 -70t61.5 -102t21.5 -122q0 -54 -14.5 -97t-40 -77t-61 -57.5
t-76.5 -38.5q11 -34 20 -50l130.5 -270l126 -276.5l126.5 -284.5l133 -293l19 -28l19 -26.5t20.5 -33.5t16 -38t6.5 -40q0 -60 -34 -85.5t-83 -25.5q-27 0 -49.5 8.5t-39.5 23t-27 34t-13 41.5l-52 114.5l-46.5 103.5l-43.5 97.5l-42 95.5q-16 0 -45 0.5t-65 2.5
q-57 0 -115.5 1t-119.5 1.5t-126 0t-136 -3.5q-11 -1 -21 -1.5t-21 -0.5l-53 -129.5l-45 -113.5l-35.5 -92.5t-23.5 -65.5v1q-6 -22 -13.5 -43t-21.5 -37.5t-38.5 -27t-64.5 -10.5q-54 0 -89.5 27t-35.5 79zM785 1576q21 0 44.5 6t43.5 19.5t33.5 34t13.5 50.5
q0 39 -10.5 67t-28 46t-41 26.5t-48.5 8.5q-20 0 -46 -5t-50 -20t-40.5 -43t-16.5 -74q0 -33 13 -55.5t34 -36t47 -19t52 -5.5zM546 707h54.5t87 -0.5t131.5 -1t189 -1.5l-104 225.5l-137 292.5l-49 -112l-54.5 -127l-58 -136z" />
    <glyph glyph-name="Ccedilla" unicode="&#xc7;" horiz-adv-x="1495" 
d="M109 0zM109 756q0 144 31.5 260.5t86.5 207.5t129 157t160 109t179.5 63.5t186.5 20.5q85 0 167 -15.5t162 -43.5l48.5 -17.5t44 -21.5t31.5 -33t12 -51q0 -36 -11.5 -59.5t-29.5 -37.5t-39.5 -20t-41.5 -6q-14 0 -30 4.5t-33 11.5t-33 16.5t-29 18.5q-36 15 -67.5 22.5
t-60.5 11t-57 4t-56 0.5q-63 0 -126 -14.5t-121.5 -45t-109.5 -76.5t-88.5 -109.5t-59 -144.5t-21.5 -181q0 -166 47.5 -280.5t124 -185.5t172.5 -102.5t194 -31.5q45 0 88.5 5.5t81 14t66.5 19t44 21.5q30 26 53 39.5t53 13.5q23 0 43.5 -5t35.5 -17.5t24 -32.5t9 -50
q0 -42 -28.5 -76.5t-91.5 -64.5v1q-21 -12 -61.5 -27t-91 -27.5t-106.5 -21t-110 -8.5q-123 0 -227.5 29.5t-190 82t-151.5 125.5t-111 160t-68 185.5t-23 202.5zM649 -311q17 0 32 -6t29.5 -13t29.5 -13t32 -6q40 0 62 14.5t22 47.5q0 24 -5.5 38.5t-14 24.5t-18 18
t-18 18.5t-14 25.5t-4.5 40q0 8 6 20t17 23t26.5 19t34.5 8q34 0 70.5 -22t66.5 -55.5t49 -73.5t19 -76q0 -61 -23.5 -110t-65.5 -84t-100.5 -54t-128.5 -19q-44 0 -82.5 10.5t-68 28.5t-46.5 43t-17 54t10.5 48t27 30.5t35.5 16t37 4.5z" />
    <glyph glyph-name="Egrave" unicode="&#xc8;" horiz-adv-x="1321" 
d="M198 0zM198 113q0 17 4.5 36t9.5 35l9 32l-23 1196q0 49 11.5 76t29.5 40t41.5 15t47.5 2h527q18 2 40.5 5.5t31.5 3.5q38 0 61.5 -7t37 -20.5t18 -33.5t4.5 -47q0 -38 -9.5 -61t-26 -35.5t-38.5 -16.5t-47 -4q-11 0 -29 0.5t-38 2.5h-156.5t-95 -0.5t-54 -0.5h-32.5h-93
v-317q6 0 14.5 -0.5t26.5 -0.5h49.5h84.5h131h189q11 0 25 1t28 3q18 2 42 4t52 2q27 0 48 -11t35.5 -27.5t22 -35.5t7.5 -36q0 -54 -35.5 -79t-91.5 -25l-628 -1v-599q99 0 199 -3t209 -3q30 0 55 3t48 7q21 3 42.5 5.5t47.5 2.5q30 0 55.5 -4.5t44.5 -16t30 -31t11 -49.5
q0 -44 -15 -68t-40.5 -35.5t-58 -14t-67.5 -2.5h-673q-26 0 -47.5 6t-37.5 19.5t-25 35t-9 52.5zM712 1605q-23 0 -41.5 6.5t-34 17.5t-29 24.5t-25.5 27.5q-8 8 -17.5 18.5t-17.5 17.5q-21 19 -33 31l-21 21t-17.5 16.5l-21.5 18.5q-33 27 -42 51.5t-10 54.5q0 17 9 34.5
t23.5 32t34 24t40.5 9.5q20 0 46.5 -9.5t58.5 -45.5l28 -28.5l34 -34l37 -34.5l36 -32q8 -3 21 -13t25.5 -24t21.5 -30.5t9 -34.5q0 -57 -32 -88t-82 -31z" />
    <glyph glyph-name="Eacute" unicode="&#xc9;" horiz-adv-x="1321" 
d="M198 0zM198 113q0 17 4.5 36t9.5 35l9 32l-23 1196q0 49 11.5 76t29.5 40t41.5 15t47.5 2h527q18 2 40.5 5.5t31.5 3.5q38 0 61.5 -7t37 -20.5t18 -33.5t4.5 -47q0 -38 -9.5 -61t-26 -35.5t-38.5 -16.5t-47 -4q-11 0 -29 0.5t-38 2.5h-156.5t-95 -0.5t-54 -0.5h-32.5h-93
v-317q6 0 14.5 -0.5t26.5 -0.5h49.5h84.5h131h189q11 0 25 1t28 3q18 2 42 4t52 2q27 0 48 -11t35.5 -27.5t22 -35.5t7.5 -36q0 -54 -35.5 -79t-91.5 -25l-628 -1v-599q99 0 199 -3t209 -3q30 0 55 3t48 7q21 3 42.5 5.5t47.5 2.5q30 0 55.5 -4.5t44.5 -16t30 -31t11 -49.5
q0 -44 -15 -68t-40.5 -35.5t-58 -14t-67.5 -2.5h-673q-26 0 -47.5 6t-37.5 19.5t-25 35t-9 52.5zM703 1605q-51 0 -83 31t-32 88q0 18 9 34.5t21.5 30.5t25.5 24t21 13l36.5 32l36.5 34.5l34 34l28 28.5q32 36 59 45.5t47 9.5q21 0 40 -9.5t33.5 -24t23.5 -32t9 -34.5
q-1 -30 -9.5 -54.5t-42.5 -51.5q-14 -11 -22 -18.5l-17 -16.5l-21 -21t-33 -31q-8 -7 -17.5 -17.5t-17.5 -18.5q-24 -28 -54.5 -52t-74.5 -24z" />
    <glyph glyph-name="Ecircumflex" unicode="&#xca;" horiz-adv-x="1321" 
d="M198 0zM198 113q0 17 4.5 36t9.5 35l9 32l-23 1196q0 49 11.5 76t29.5 40t41.5 15t47.5 2h527q18 2 40.5 5.5t31.5 3.5q38 0 61.5 -7t37 -20.5t18 -33.5t4.5 -47q0 -38 -9.5 -61t-26 -35.5t-38.5 -16.5t-47 -4q-11 0 -29 0.5t-38 2.5h-156.5t-95 -0.5t-54 -0.5h-32.5h-93
v-317q6 0 14.5 -0.5t26.5 -0.5h49.5h84.5h131h189q11 0 25 1t28 3q18 2 42 4t52 2q27 0 48 -11t35.5 -27.5t22 -35.5t7.5 -36q0 -54 -35.5 -79t-91.5 -25l-628 -1v-599q99 0 199 -3t209 -3q30 0 55 3t48 7q21 3 42.5 5.5t47.5 2.5q30 0 55.5 -4.5t44.5 -16t30 -31t11 -49.5
q0 -44 -15 -68t-40.5 -35.5t-58 -14t-67.5 -2.5h-673q-26 0 -47.5 6t-37.5 19.5t-25 35t-9 52.5zM465 1622q-46 0 -72 25t-26 58q0 41 18 73.5t60 59.5q18 12 38 27l39.5 30.5t37 31l31.5 28.5q33 32 63.5 43.5t63.5 11.5q35 0 63.5 -16.5t57.5 -45.5q15 -15 35 -32
l40.5 -33l39.5 -29.5t31 -19.5q53 -29 73.5 -59t20.5 -71q0 -42 -31 -65.5t-78 -23.5q-10 0 -23 3t-26 7.5t-25 11t-20 12.5l-43.5 37l-38.5 32.5t-38 29.5l-41 29q-20 -12 -37 -23.5t-33.5 -25l-34.5 -29.5l-40 -37q-17 -16 -40.5 -28t-64.5 -12z" />
    <glyph glyph-name="Edieresis" unicode="&#xcb;" horiz-adv-x="1321" 
d="M198 0zM198 113q0 17 4.5 36t9.5 35l9 32l-23 1196q0 49 11.5 76t29.5 40t41.5 15t47.5 2h527q18 2 40.5 5.5t31.5 3.5q38 0 61.5 -7t37 -20.5t18 -33.5t4.5 -47q0 -38 -9.5 -61t-26 -35.5t-38.5 -16.5t-47 -4q-11 0 -29 0.5t-38 2.5h-156.5t-95 -0.5t-54 -0.5h-32.5h-93
v-317q6 0 14.5 -0.5t26.5 -0.5h49.5h84.5h131h189q11 0 25 1t28 3q18 2 42 4t52 2q27 0 48 -11t35.5 -27.5t22 -35.5t7.5 -36q0 -54 -35.5 -79t-91.5 -25l-628 -1v-599q99 0 199 -3t209 -3q30 0 55 3t48 7q21 3 42.5 5.5t47.5 2.5q30 0 55.5 -4.5t44.5 -16t30 -31t11 -49.5
q0 -44 -15 -68t-40.5 -35.5t-58 -14t-67.5 -2.5h-673q-26 0 -47.5 6t-37.5 19.5t-25 35t-9 52.5zM446 1649q-18 0 -37.5 7.5t-35.5 21.5t-26.5 33t-10.5 43q0 32 16.5 69.5t42 69.5t55.5 53.5t56 21.5q23 0 44.5 -10t38 -26.5t26.5 -37t10 -41.5q0 -26 -18 -61.5t-45 -67
t-58.5 -53.5t-57.5 -22zM883 1642q-18 0 -37.5 7.5t-35.5 21.5t-26.5 33.5t-10.5 42.5q0 32 19.5 68.5t48.5 68t61.5 52t59.5 20.5q23 0 43 -10t34.5 -26.5t22.5 -38t8 -45.5v-1q0 -26 -19.5 -59.5t-48 -63t-61 -50t-58.5 -20.5z" />
    <glyph glyph-name="Igrave" unicode="&#xcc;" horiz-adv-x="794" 
d="M109 0zM273 80q0 51 7.5 100.5t7.5 105.5q0 255 -4.5 513t-4.5 530q0 28 -6 56.5t-6 61.5q0 26 7 49t24 40.5t47 27.5t75 10t71 -34t26 -91q0 -17 -3 -33.5l-6 -34.5q-2 -86 -3 -185t-1 -227q0 -114 1 -233t3 -229t5.5 -205.5t8.5 -164.5v1q2 -15 3.5 -28.5t1.5 -27.5
q0 -24 -5.5 -44.5t-18.5 -35.5t-36 -23t-57 -8q-40 0 -66.5 7t-42 21t-22 34.5t-6.5 46.5zM419 1605q-23 0 -41.5 6.5t-34 17.5t-29 24.5t-25.5 27.5q-8 8 -17.5 18.5t-17.5 17.5q-21 19 -33 31l-21 21t-17.5 16.5l-21.5 18.5q-33 27 -42 51.5t-10 54.5q0 17 9 34.5t23.5 32
t34 24t40.5 9.5q20 0 46.5 -9.5t58.5 -45.5l28 -28.5l34 -34l37 -34.5l36 -32q8 -3 21 -13t25.5 -24t21.5 -30.5t9 -34.5q0 -57 -32 -88t-82 -31z" />
    <glyph glyph-name="Iacute" unicode="&#xcd;" horiz-adv-x="794" 
d="M267 0zM273 80q0 51 7.5 100.5t7.5 105.5q0 255 -4.5 513t-4.5 530q0 28 -6 56.5t-6 61.5q0 26 7 49t24 40.5t47 27.5t75 10t71 -34t26 -91q0 -17 -3 -33.5l-6 -34.5q-2 -86 -3 -185t-1 -227q0 -114 1 -233t3 -229t5.5 -205.5t8.5 -164.5v1q2 -15 3.5 -28.5t1.5 -27.5
q0 -24 -5.5 -44.5t-18.5 -35.5t-36 -23t-57 -8q-40 0 -66.5 7t-42 21t-22 34.5t-6.5 46.5zM410 1605q-51 0 -83 31t-32 88q0 18 9 34.5t21.5 30.5t25.5 24t21 13l36.5 32l36.5 34.5l34 34l28 28.5q32 36 59 45.5t47 9.5q21 0 40 -9.5t33.5 -24t23.5 -32t9 -34.5
q-1 -30 -9.5 -54.5t-42.5 -51.5q-14 -11 -22 -18.5l-17 -16.5l-21 -21t-33 -31q-8 -7 -17.5 -17.5t-17.5 -18.5q-24 -28 -54.5 -52t-74.5 -24z" />
    <glyph glyph-name="Itilde" unicode="&#x128;" horiz-adv-x="794" 
d="M0 0zM273 80q0 51 7.5 100.5t7.5 105.5q0 255 -4.5 513t-4.5 530q0 28 -6 56.5t-6 61.5q0 26 7 49t24 40.5t47 27.5t75 10t71 -34t26 -91q0 -17 -3 -33.5l-6 -34.5q-2 -86 -3 -185t-1 -227q0 -114 1 -233t3 -229t5.5 -205.5t8.5 -164.5v1q2 -15 3.5 -28.5t1.5 -27.5
q0 -24 -5.5 -44.5t-18.5 -35.5t-36 -23t-57 -8q-40 0 -66.5 7t-42 21t-22 34.5t-6.5 46.5zM81 1650q-48 0 -74.5 33t-26.5 93q0 48 20 90.5t55 74.5t83 50.5t104 18.5q40 0 73 -10t61.5 -26t52.5 -36l45 -39l52 -47.5t49 -19.5q23 0 42 17t24 40q3 17 9 35.5t18 33.5t32 25
t52 10q22 0 41.5 -6.5t34.5 -21t24 -37.5t9 -56q0 -43 -16 -86t-48.5 -77t-83 -55t-119.5 -21q-19 0 -40 3t-41.5 8t-38 11.5t-30.5 14.5q-21 12 -46 36.5l-50.5 50t-50 44.5t-45.5 19q-12 0 -23 -7t-20 -18t-15 -24.5t-8 -25.5q-3 -18 -9.5 -35t-19 -30.5t-31 -21.5
t-45.5 -8z" />
    <glyph glyph-name="Icircumflex" unicode="&#xce;" horiz-adv-x="794" 
d="M75 0zM273 80q0 51 7.5 100.5t7.5 105.5q0 255 -4.5 513t-4.5 530q0 28 -6 56.5t-6 61.5q0 26 7 49t24 40.5t47 27.5t75 10t71 -34t26 -91q0 -17 -3 -33.5l-6 -34.5q-2 -86 -3 -185t-1 -227q0 -114 1 -233t3 -229t5.5 -205.5t8.5 -164.5v1q2 -15 3.5 -28.5t1.5 -27.5
q0 -24 -5.5 -44.5t-18.5 -35.5t-36 -23t-57 -8q-40 0 -66.5 7t-42 21t-22 34.5t-6.5 46.5zM173 1622q-46 0 -72 25t-26 58q0 41 18 73.5t60 59.5q18 12 38 27l39.5 30.5t37 31l31.5 28.5q33 32 63.5 43.5t63.5 11.5q35 0 63.5 -16.5t57.5 -45.5q15 -15 35 -32l40.5 -33
l39.5 -29.5t31 -19.5q53 -29 73.5 -59t20.5 -71q0 -42 -31 -65.5t-78 -23.5q-10 0 -23 3t-26 7.5t-25 11t-20 12.5l-43.5 37l-38.5 32.5t-38 29.5l-41 29q-20 -12 -37 -23.5t-33.5 -25l-34.5 -29.5l-40 -37q-17 -16 -40.5 -28t-64.5 -12z" />
    </font>
</defs>
</svg>
